<svg width="80" height="80" viewBox="0 0 80 80" fill="none" xmlns="http://www.w3.org/2000/svg">
<g id="basil:add-solid">
<path id="Vector" fill-rule="evenodd" clip-rule="evenodd" d="M18.2138 2.8316C32.6936 1.22931 47.3064 1.22931 61.7862 2.8316C69.8034 3.72868 76.2714 10.0316 77.2121 18.0632C78.9293 32.7231 78.9293 47.5329 77.2121 62.1928C76.7361 66.0955 74.9536 69.7232 72.1537 72.4879C69.3537 75.2526 65.7005 76.9921 61.7862 77.4244C47.3067 79.0317 32.6933 79.0317 18.2138 77.4244C14.2995 76.9921 10.6463 75.2526 7.84632 72.4879C5.04639 69.7232 3.26391 66.0955 2.78788 62.1928C1.07071 47.5345 1.07071 32.7262 2.78788 18.0679C3.2637 14.1659 5.0455 10.5387 7.8445 7.77414C10.6435 5.00955 14.2957 3.2696 18.2091 2.83628L18.2138 2.8316ZM40 16.8017C40.9309 16.8017 41.8237 17.1709 42.482 17.8281C43.1403 18.4852 43.5101 19.3765 43.5101 20.3059V36.6261H59.858C60.7889 36.6261 61.6818 36.9953 62.34 37.6525C62.9983 38.3097 63.3681 39.201 63.3681 40.1304C63.3681 41.0597 62.9983 41.951 62.34 42.6082C61.6818 43.2654 60.7889 43.6346 59.858 43.6346H43.5101V59.9548C43.5101 60.8842 43.1403 61.7755 42.482 62.4327C41.8237 63.0898 40.9309 63.459 40 63.459C39.069 63.459 38.1762 63.0898 37.518 62.4327C36.8597 61.7755 36.4899 60.8842 36.4899 59.9548V43.6346H20.142C19.211 43.6346 18.3182 43.2654 17.6599 42.6082C17.0017 41.951 16.6319 41.0597 16.6319 40.1304C16.6319 39.201 17.0017 38.3097 17.6599 37.6525C18.3182 36.9953 19.211 36.6261 20.142 36.6261H36.4899V20.3059C36.4899 19.3765 36.8597 18.4852 37.518 17.8281C38.1762 17.1709 39.069 16.8017 40 16.8017Z" fill="#2196F3"/>
</g>
</svg>
