<svg width="937" height="1482" viewBox="0 0 937 1482" fill="none" xmlns="http://www.w3.org/2000/svg">
<path d="M262.462 -404.97C402.171 -338.114 341.243 -84.8372 464.283 9.24673C566.9 87.7141 757.927 -51.4261 847.079 42.0652C931.782 130.89 827.785 285.465 843.745 407.176C856.996 508.234 958.294 598.196 932.947 696.916C906.127 801.374 749.656 827.286 710.118 927.621C667.248 1036.41 755.37 1169.88 704.988 1275.4C657.231 1375.42 555.674 1461.3 446.429 1479.89C331.428 1499.45 232.1 1376.79 115.453 1375.7C4.06256 1374.66 -97.385 1514.71 -201.022 1473.86C-306.355 1432.33 -283.308 1254.11 -371.891 1183.58C-465.343 1109.18 -654.431 1176.38 -708.473 1069.83C-763.145 962.044 -605.669 846.672 -604.078 725.813C-602.737 623.92 -720.57 538.188 -700.162 438.352C-680.044 339.931 -541.442 308.059 -499.981 216.562C-447.064 99.7873 -512.483 -60.3113 -429.8 -158.279C-354.538 -247.454 -207.845 -220.635 -97.9402 -259.8C25.1055 -303.647 144.632 -461.356 262.462 -404.97Z" fill="url(#paint0_linear_148_953)"/>
<defs>
<linearGradient id="paint0_linear_148_953" x1="-720" y1="-417" x2="1036.04" y2="1383.21" gradientUnits="userSpaceOnUse">
<stop stop-color="#2196F3"/>
<stop offset="1" stop-color="#0D47A1"/>
</linearGradient>
</defs>
</svg>
