<svg version="1.1" id="Layer_1" xmlns="http://www.w3.org/2000/svg" xmlns:xlink="http://www.w3.org/1999/xlink" x="0px" y="0px"
	 width="100%" viewBox="0 0 426 242" enable-background="new 0 0 426 242" xml:space="preserve">
<path fill="#FFFEFE" opacity="1.000000" stroke="none" 
	d="
M321.000000,243.000000 
	C250.312439,243.000000 179.624878,243.000000 108.536896,242.535583 
	C108.132851,176.685455 108.136673,111.299736 108.120018,45.914017 
	C108.116203,30.942671 108.041870,15.971339 108.000000,1.000000 
	C178.687561,1.000000 249.375122,1.000000 320.519623,1.468532 
	C320.984375,82.291374 320.992188,162.645691 321.000000,243.000000 
M142.463348,118.647964 
	C138.922546,119.884079 135.381760,121.120186 131.019531,122.643059 
	C145.000198,134.234802 158.408401,145.351883 171.903290,156.540848 
	C170.029312,161.028656 168.223129,165.354156 166.114838,170.403122 
	C180.875290,168.750534 194.705704,167.202087 209.148788,165.585052 
	C209.148788,180.339066 209.148788,194.571747 209.148788,208.634491 
	C212.152328,208.634491 214.570236,208.634491 217.356049,208.634491 
	C217.356049,193.856689 217.356049,179.406754 217.356049,164.228729 
	C231.764343,167.131134 245.672318,169.932739 260.644806,172.948792 
	C259.446838,169.412613 258.681122,166.269547 257.328857,163.403214 
	C255.909668,160.395065 256.182251,158.547058 258.937378,156.269974 
	C269.980560,147.142899 280.766296,137.704178 291.638916,128.371002 
	C293.583588,126.701660 295.488953,124.986481 298.072723,122.711021 
	C293.682739,121.839249 290.370667,121.181534 286.769775,120.466454 
	C289.200989,111.746162 291.531006,103.388786 294.047302,94.363304 
	C287.150452,95.572449 281.076569,96.443130 275.099091,97.753708 
	C271.131683,98.623573 268.473816,98.122040 267.241852,93.732513 
	C266.542877,91.242104 265.163635,88.942642 263.905182,86.144615 
	C256.440735,92.969307 249.443451,99.366890 241.425949,106.697250 
	C243.776764,89.798019 245.912415,74.445580 248.132629,58.485176 
	C242.373550,60.667561 237.461136,62.529099 232.374359,64.456718 
	C226.157532,54.588753 220.169418,45.083839 213.831192,35.023193 
	C207.627853,45.753029 201.847610,55.751022 196.058029,65.765175 
	C189.951355,62.581547 184.453796,59.715469 178.252365,56.482441 
	C181.130936,73.159081 183.836731,88.834717 186.542526,104.510345 
	C186.073792,104.634789 185.605042,104.759239 185.136292,104.883682 
	C178.024902,98.206566 170.913513,91.529449 163.242188,84.326591 
	C162.350281,89.339653 161.591675,93.603477 160.832977,97.867867 
	C152.310074,96.217247 144.363510,94.678246 135.711823,93.002693 
	C136.519119,95.457207 137.181870,97.276451 137.716263,99.132660 
	C139.535110,105.450371 141.308685,111.781105 142.463348,118.647964 
z"/>
<path fill="#DB1F26" opacity="1.000000" stroke="none" 
	d="
M107.531342,1.000000 
	C108.041870,15.971339 108.116203,30.942671 108.120018,45.914017 
	C108.136673,111.299736 108.132851,176.685455 108.068237,242.535583 
	C72.367569,243.000000 36.735142,243.000000 1.051356,243.000000 
	C1.051356,162.445038 1.051356,81.890022 1.051356,1.000000 
	C36.353523,1.000000 71.708099,1.000000 107.531342,1.000000 
z"/>
<path fill="#DB1F26" opacity="1.000000" stroke="none" 
	d="
M321.468658,243.000000 
	C320.992188,162.645691 320.984375,82.291374 320.988281,1.468532 
	C356.299255,1.000000 391.598511,1.000000 426.948883,1.000000 
	C426.948883,81.554779 426.948883,162.109589 426.948883,243.000000 
	C391.979828,243.000000 356.958557,243.000000 321.468658,243.000000 
z"/>
<path fill="#DB2128" opacity="1.000000" stroke="none" 
	d="
M142.781433,118.377419 
	C141.308685,111.781105 139.535110,105.450371 137.716263,99.132660 
	C137.181870,97.276451 136.519119,95.457207 135.711823,93.002693 
	C144.363510,94.678246 152.310074,96.217247 160.832977,97.867867 
	C161.591675,93.603477 162.350281,89.339653 163.242188,84.326591 
	C170.913513,91.529449 178.024902,98.206566 185.136292,104.883682 
	C185.605042,104.759239 186.073792,104.634789 186.542526,104.510345 
	C183.836731,88.834717 181.130936,73.159081 178.252365,56.482441 
	C184.453796,59.715469 189.951355,62.581547 196.058029,65.765175 
	C201.847610,55.751022 207.627853,45.753029 213.831192,35.023193 
	C220.169418,45.083839 226.157532,54.588753 232.374359,64.456718 
	C237.461136,62.529099 242.373550,60.667561 248.132629,58.485176 
	C245.912415,74.445580 243.776764,89.798019 241.425949,106.697250 
	C249.443451,99.366890 256.440735,92.969307 263.905182,86.144615 
	C265.163635,88.942642 266.542877,91.242104 267.241852,93.732513 
	C268.473816,98.122040 271.131683,98.623573 275.099091,97.753708 
	C281.076569,96.443130 287.150452,95.572449 294.047302,94.363304 
	C291.531006,103.388786 289.200989,111.746162 286.769775,120.466454 
	C290.370667,121.181534 293.682739,121.839249 298.072723,122.711021 
	C295.488953,124.986481 293.583588,126.701660 291.638916,128.371002 
	C280.766296,137.704178 269.980560,147.142899 258.937378,156.269974 
	C256.182251,158.547058 255.909668,160.395065 257.328857,163.403214 
	C258.681122,166.269547 259.446838,169.412613 260.644806,172.948792 
	C245.672318,169.932739 231.764343,167.131134 217.356049,164.228729 
	C217.356049,179.406754 217.356049,193.856689 217.356049,208.634491 
	C214.570236,208.634491 212.152328,208.634491 209.148788,208.634491 
	C209.148788,194.571747 209.148788,180.339066 209.148788,165.585052 
	C194.705704,167.202087 180.875290,168.750534 166.114838,170.403122 
	C168.223129,165.354156 170.029312,161.028656 171.903290,156.540848 
	C158.408401,145.351883 145.000198,134.234802 131.019531,122.643059 
	C135.381760,121.120186 138.922546,119.884079 142.781433,118.377419 
z"/>
</svg>