<svg width="787" height="766" viewBox="0 0 787 766" fill="none" xmlns="http://www.w3.org/2000/svg">
<g opacity="0.6">
<path d="M872 579.483H0V579.88H872V579.483Z" fill="#EBEBEB"/>
<path d="M784.627 605.011H726.863V605.408H784.627V605.011Z" fill="#EBEBEB"/>
<path d="M577.648 609.316H562.487V609.712H577.648V609.316Z" fill="#EBEBEB"/>
<path d="M725.117 590.284H691.646V590.68H725.117V590.284Z" fill="#EBEBEB"/>
<path d="M166.817 592.948H91.4885V593.345H166.817V592.948Z" fill="#EBEBEB"/>
<path d="M193.39 592.948H182.346V593.345H193.39V592.948Z" fill="#EBEBEB"/>
<path d="M392.656 599.646H229.285V600.043H392.656V599.646Z" fill="#EBEBEB"/>
<path d="M413.352 508.751H76.5878C71.0994 508.751 66.633 504.689 66.633 499.698V69.2068C66.633 64.2156 71.0994 60.1539 76.5878 60.1539H413.352C418.839 60.1539 423.305 64.2156 423.305 69.2068V499.698C423.305 504.689 418.839 508.751 413.352 508.751ZM76.5878 60.552C71.3383 60.552 67.069 64.4345 67.069 69.2083V499.699C67.069 504.473 71.3383 508.356 76.5878 508.356H413.352C418.6 508.356 422.869 504.473 422.869 499.699V69.2068C422.869 64.4345 418.6 60.5504 413.352 60.5504L76.5878 60.552Z" fill="#EBEBEB"/>
<path d="M790.573 508.751H453.81C448.321 508.751 443.857 504.689 443.857 499.698V69.2068C443.857 64.2156 448.323 60.1539 453.81 60.1539H790.573C796.063 60.1539 800.527 64.2156 800.527 69.2068V499.698C800.529 504.689 796.063 508.751 790.573 508.751ZM453.81 60.552C448.562 60.552 444.293 64.4345 444.293 69.2083V499.699C444.293 504.473 448.562 508.356 453.81 508.356H790.573C795.822 508.356 800.091 504.473 800.091 499.699V69.2068C800.091 64.4345 795.822 60.5504 790.573 60.5504L453.81 60.552Z" fill="#EBEBEB"/>
<path d="M776.812 158.841H354.274V529.234H776.812V158.841Z" fill="#E0E0E0"/>
<path d="M776.812 165.567H361.055V522.774H776.812V165.567Z" fill="#F5F5F5"/>
<path d="M364.123 436.263V328.822H376.397V314.631L404.017 302.883V288.357H408.619V328.822H413.222V436.263H419.359V380.45H433.168V351.147H437.772V436.263H448.511V404.17H456.183V395.797H473.062V366.496H482.268V346.961H493.008V317.66H497.61V346.961H508.352V366.496H517.558V395.797H534.435V404.17H542.107V436.263H551.313V395.797H568.19V306.496H572.794V296.73H609.619V306.496H617.29V370.682H647.976V377.658H658.717V381.845H647.976V406.961H680.198V323.241H686.335V306.496H701.679V242.311H706.282V306.496H717.023V323.241H776.811V522.774H361.055V436.263H364.123Z" fill="#E6E6E6"/>
<path d="M744.864 327.615H740.516V331.569H744.864V327.615Z" fill="#F0F0F0"/>
<path d="M744.864 334.243H740.516V338.197H744.864V334.243Z" fill="#F0F0F0"/>
<path d="M744.864 360.755H740.516V364.709H744.864V360.755Z" fill="#F0F0F0"/>
<path d="M744.864 367.383H740.516V371.337H744.864V367.383Z" fill="#F0F0F0"/>
<path d="M744.864 374.011H740.516V377.964H744.864V374.011Z" fill="#F0F0F0"/>
<path d="M744.864 393.894H740.516V397.848H744.864V393.894Z" fill="#F0F0F0"/>
<path d="M744.864 400.522H740.516V404.476H744.864V400.522Z" fill="#F0F0F0"/>
<path d="M737.96 354.127H733.612V358.081H737.96V354.127Z" fill="#F0F0F0"/>
<path d="M737.96 360.755H733.612V364.709H737.96V360.755Z" fill="#F0F0F0"/>
<path d="M737.96 367.383H733.612V371.337H737.96V367.383Z" fill="#F0F0F0"/>
<path d="M737.96 374.011H733.612V377.964H737.96V374.011Z" fill="#F0F0F0"/>
<path d="M737.96 380.638H733.612V384.592H737.96V380.638Z" fill="#F0F0F0"/>
<path d="M737.96 393.894H733.612V397.848H737.96V393.894Z" fill="#F0F0F0"/>
<path d="M737.96 400.522H733.612V404.476H737.96V400.522Z" fill="#F0F0F0"/>
<path d="M731.055 327.615H726.707V331.569H731.055V327.615Z" fill="#F0F0F0"/>
<path d="M731.055 334.243H726.707V338.197H731.055V334.243Z" fill="#F0F0F0"/>
<path d="M731.055 340.871H726.707V344.825H731.055V340.871Z" fill="#F0F0F0"/>
<path d="M731.055 347.499H726.707V351.453H731.055V347.499Z" fill="#F0F0F0"/>
<path d="M731.055 354.127H726.707V358.081H731.055V354.127Z" fill="#F0F0F0"/>
<path d="M731.055 360.755H726.707V364.709H731.055V360.755Z" fill="#F0F0F0"/>
<path d="M731.055 367.383H726.707V371.337H731.055V367.383Z" fill="#F0F0F0"/>
<path d="M731.055 374.011H726.707V377.964H731.055V374.011Z" fill="#F0F0F0"/>
<path d="M731.055 380.638H726.707V384.592H731.055V380.638Z" fill="#F0F0F0"/>
<path d="M731.055 387.266H726.707V391.22H731.055V387.266Z" fill="#F0F0F0"/>
<path d="M731.055 400.522H726.707V404.476H731.055V400.522Z" fill="#F0F0F0"/>
<path d="M724.151 327.615H719.803V331.569H724.151V327.615Z" fill="#F0F0F0"/>
<path d="M724.151 334.243H719.803V338.197H724.151V334.243Z" fill="#F0F0F0"/>
<path d="M724.151 340.871H719.803V344.825H724.151V340.871Z" fill="#F0F0F0"/>
<path d="M724.151 347.499H719.803V351.453H724.151V347.499Z" fill="#F0F0F0"/>
<path d="M724.151 354.127H719.803V358.081H724.151V354.127Z" fill="#F0F0F0"/>
<path d="M724.151 360.755H719.803V364.709H724.151V360.755Z" fill="#F0F0F0"/>
<path d="M724.151 367.383H719.803V371.337H724.151V367.383Z" fill="#F0F0F0"/>
<path d="M724.151 427.034H719.803V430.988H724.151V427.034Z" fill="#F0F0F0"/>
<path d="M717.246 327.615H712.898V331.569H717.246V327.615Z" fill="#F0F0F0"/>
<path d="M717.246 334.243H712.898V338.197H717.246V334.243Z" fill="#F0F0F0"/>
<path d="M717.246 340.871H712.898V344.825H717.246V340.871Z" fill="#F0F0F0"/>
<path d="M717.246 347.499H712.898V351.453H717.246V347.499Z" fill="#F0F0F0"/>
<path d="M717.246 354.127H712.898V358.081H717.246V354.127Z" fill="#F0F0F0"/>
<path d="M717.246 360.755H712.898V364.709H717.246V360.755Z" fill="#F0F0F0"/>
<path d="M717.246 367.383H712.898V371.337H717.246V367.383Z" fill="#F0F0F0"/>
<path d="M717.246 374.011H712.898V377.964H717.246V374.011Z" fill="#F0F0F0"/>
<path d="M717.246 413.778H712.898V417.732H717.246V413.778Z" fill="#F0F0F0"/>
<path d="M717.246 420.406H712.898V424.36H717.246V420.406Z" fill="#F0F0F0"/>
<path d="M717.246 427.034H712.898V430.988H717.246V427.034Z" fill="#F0F0F0"/>
<path d="M717.246 433.662H712.898V437.616H717.246V433.662Z" fill="#F0F0F0"/>
<path d="M717.246 460.173H712.898V464.127H717.246V460.173Z" fill="#F0F0F0"/>
<path d="M710.342 327.615H705.994V331.569H710.342V327.615Z" fill="#F0F0F0"/>
<path d="M710.342 334.243H705.994V338.197H710.342V334.243Z" fill="#F0F0F0"/>
<path d="M710.342 340.871H705.994V344.825H710.342V340.871Z" fill="#F0F0F0"/>
<path d="M710.342 347.499H705.994V351.453H710.342V347.499Z" fill="#F0F0F0"/>
<path d="M710.342 354.127H705.994V358.081H710.342V354.127Z" fill="#F0F0F0"/>
<path d="M710.342 360.755H705.994V364.709H710.342V360.755Z" fill="#F0F0F0"/>
<path d="M710.342 367.383H705.994V371.337H710.342V367.383Z" fill="#F0F0F0"/>
<path d="M710.342 374.011H705.994V377.964H710.342V374.011Z" fill="#F0F0F0"/>
<path d="M710.342 380.638H705.994V384.592H710.342V380.638Z" fill="#F0F0F0"/>
<path d="M710.342 387.266H705.994V391.22H710.342V387.266Z" fill="#F0F0F0"/>
<path d="M710.342 407.15H705.994V411.104H710.342V407.15Z" fill="#F0F0F0"/>
<path d="M710.342 413.778H705.994V417.732H710.342V413.778Z" fill="#F0F0F0"/>
<path d="M710.342 420.406H705.994V424.36H710.342V420.406Z" fill="#F0F0F0"/>
<path d="M710.342 427.034H705.994V430.988H710.342V427.034Z" fill="#F0F0F0"/>
<path d="M710.342 433.662H705.994V437.616H710.342V433.662Z" fill="#F0F0F0"/>
<path d="M710.342 460.173H705.994V464.127H710.342V460.173Z" fill="#F0F0F0"/>
<path d="M703.435 327.615H699.088V331.569H703.435V327.615Z" fill="#F0F0F0"/>
<path d="M703.435 334.243H699.088V338.197H703.435V334.243Z" fill="#F0F0F0"/>
<path d="M703.435 340.871H699.088V344.825H703.435V340.871Z" fill="#F0F0F0"/>
<path d="M703.435 347.499H699.088V351.453H703.435V347.499Z" fill="#F0F0F0"/>
<path d="M703.435 354.127H699.088V358.081H703.435V354.127Z" fill="#F0F0F0"/>
<path d="M703.435 360.755H699.088V364.709H703.435V360.755Z" fill="#F0F0F0"/>
<path d="M703.435 367.383H699.088V371.337H703.435V367.383Z" fill="#F0F0F0"/>
<path d="M703.435 374.011H699.088V377.964H703.435V374.011Z" fill="#F0F0F0"/>
<path d="M703.435 380.638H699.088V384.592H703.435V380.638Z" fill="#F0F0F0"/>
<path d="M703.435 387.266H699.088V391.22H703.435V387.266Z" fill="#F0F0F0"/>
<path d="M703.435 393.894H699.088V397.848H703.435V393.894Z" fill="#F0F0F0"/>
<path d="M703.435 400.522H699.088V404.476H703.435V400.522Z" fill="#F0F0F0"/>
<path d="M703.435 407.15H699.088V411.104H703.435V407.15Z" fill="#F0F0F0"/>
<path d="M703.435 413.778H699.088V417.732H703.435V413.778Z" fill="#F0F0F0"/>
<path d="M703.435 420.406H699.088V424.36H703.435V420.406Z" fill="#F0F0F0"/>
<path d="M703.435 427.034H699.088V430.988H703.435V427.034Z" fill="#F0F0F0"/>
<path d="M703.435 433.662H699.088V437.616H703.435V433.662Z" fill="#F0F0F0"/>
<path d="M703.435 440.29H699.088V444.243H703.435V440.29Z" fill="#F0F0F0"/>
<path d="M696.531 327.615H692.183V331.569H696.531V327.615Z" fill="#F0F0F0"/>
<path d="M696.531 334.243H692.183V338.197H696.531V334.243Z" fill="#F0F0F0"/>
<path d="M696.531 340.871H692.183V344.825H696.531V340.871Z" fill="#F0F0F0"/>
<path d="M696.531 347.499H692.183V351.453H696.531V347.499Z" fill="#F0F0F0"/>
<path d="M696.531 354.127H692.183V358.081H696.531V354.127Z" fill="#F0F0F0"/>
<path d="M696.531 360.755H692.183V364.709H696.531V360.755Z" fill="#F0F0F0"/>
<path d="M696.531 367.383H692.183V371.337H696.531V367.383Z" fill="#F0F0F0"/>
<path d="M696.531 374.011H692.183V377.964H696.531V374.011Z" fill="#F0F0F0"/>
<path d="M696.531 380.638H692.183V384.592H696.531V380.638Z" fill="#F0F0F0"/>
<path d="M696.531 387.266H692.183V391.22H696.531V387.266Z" fill="#F0F0F0"/>
<path d="M696.531 407.15H692.183V411.104H696.531V407.15Z" fill="#F0F0F0"/>
<path d="M696.531 413.778H692.183V417.732H696.531V413.778Z" fill="#F0F0F0"/>
<path d="M696.531 420.406H692.183V424.36H696.531V420.406Z" fill="#F0F0F0"/>
<path d="M696.531 427.034H692.183V430.988H696.531V427.034Z" fill="#F0F0F0"/>
<path d="M689.626 327.615H685.279V331.569H689.626V327.615Z" fill="#F0F0F0"/>
<path d="M689.626 334.243H685.279V338.197H689.626V334.243Z" fill="#F0F0F0"/>
<path d="M689.626 340.871H685.279V344.825H689.626V340.871Z" fill="#F0F0F0"/>
<path d="M689.626 347.499H685.279V351.453H689.626V347.499Z" fill="#F0F0F0"/>
<path d="M689.626 354.127H685.279V358.081H689.626V354.127Z" fill="#F0F0F0"/>
<path d="M689.626 360.755H685.279V364.709H689.626V360.755Z" fill="#F0F0F0"/>
<path d="M689.626 367.383H685.279V371.337H689.626V367.383Z" fill="#F0F0F0"/>
<path d="M689.626 374.011H685.279V377.964H689.626V374.011Z" fill="#F0F0F0"/>
<path d="M689.626 380.638H685.279V384.592H689.626V380.638Z" fill="#F0F0F0"/>
<path d="M689.626 387.266H685.279V391.22H689.626V387.266Z" fill="#F0F0F0"/>
<path d="M689.626 407.15H685.279V411.104H689.626V407.15Z" fill="#F0F0F0"/>
<path d="M689.626 413.778H685.279V417.732H689.626V413.778Z" fill="#F0F0F0"/>
<path d="M689.626 420.406H685.279V424.36H689.626V420.406Z" fill="#F0F0F0"/>
<path d="M611.888 310.406H607.54V314.36H611.888V310.406Z" fill="#F0F0F0"/>
<path d="M611.888 317.034H607.54V320.987H611.888V317.034Z" fill="#F0F0F0"/>
<path d="M611.888 323.661H607.54V327.615H611.888V323.661Z" fill="#F0F0F0"/>
<path d="M611.888 330.289H607.54V334.243H611.888V330.289Z" fill="#F0F0F0"/>
<path d="M611.888 336.917H607.54V340.871H611.888V336.917Z" fill="#F0F0F0"/>
<path d="M611.888 343.545H607.54V347.499H611.888V343.545Z" fill="#F0F0F0"/>
<path d="M611.888 350.173H607.54V354.127H611.888V350.173Z" fill="#F0F0F0"/>
<path d="M611.888 356.801H607.54V360.755H611.888V356.801Z" fill="#F0F0F0"/>
<path d="M611.888 376.685H607.54V380.638H611.888V376.685Z" fill="#F0F0F0"/>
<path d="M611.888 383.312H607.54V387.266H611.888V383.312Z" fill="#F0F0F0"/>
<path d="M604.983 310.406H600.635V314.36H604.983V310.406Z" fill="#F0F0F0"/>
<path d="M604.983 317.034H600.635V320.987H604.983V317.034Z" fill="#F0F0F0"/>
<path d="M604.983 323.661H600.635V327.615H604.983V323.661Z" fill="#F0F0F0"/>
<path d="M604.983 330.289H600.635V334.243H604.983V330.289Z" fill="#F0F0F0"/>
<path d="M604.983 336.917H600.635V340.871H604.983V336.917Z" fill="#F0F0F0"/>
<path d="M604.983 343.545H600.635V347.499H604.983V343.545Z" fill="#F0F0F0"/>
<path d="M604.983 350.173H600.635V354.127H604.983V350.173Z" fill="#F0F0F0"/>
<path d="M604.983 356.801H600.635V360.755H604.983V356.801Z" fill="#F0F0F0"/>
<path d="M604.983 383.312H600.635V387.266H604.983V383.312Z" fill="#F0F0F0"/>
<path d="M598.079 310.406H593.731V314.36H598.079V310.406Z" fill="#F0F0F0"/>
<path d="M598.079 317.034H593.731V320.987H598.079V317.034Z" fill="#F0F0F0"/>
<path d="M598.079 323.661H593.731V327.615H598.079V323.661Z" fill="#F0F0F0"/>
<path d="M598.079 330.289H593.731V334.243H598.079V330.289Z" fill="#F0F0F0"/>
<path d="M598.079 336.917H593.731V340.871H598.079V336.917Z" fill="#F0F0F0"/>
<path d="M598.079 343.545H593.731V347.499H598.079V343.545Z" fill="#F0F0F0"/>
<path d="M598.079 350.173H593.731V354.127H598.079V350.173Z" fill="#F0F0F0"/>
<path d="M598.079 356.801H593.731V360.755H598.079V356.801Z" fill="#F0F0F0"/>
<path d="M591.174 310.406H586.826V314.36H591.174V310.406Z" fill="#F0F0F0"/>
<path d="M591.174 317.034H586.826V320.987H591.174V317.034Z" fill="#F0F0F0"/>
<path d="M591.174 323.661H586.826V327.615H591.174V323.661Z" fill="#F0F0F0"/>
<path d="M591.174 330.289H586.826V334.243H591.174V330.289Z" fill="#F0F0F0"/>
<path d="M591.174 336.917H586.826V340.871H591.174V336.917Z" fill="#F0F0F0"/>
<path d="M591.174 343.545H586.826V347.499H591.174V343.545Z" fill="#F0F0F0"/>
<path d="M591.174 356.801H586.826V360.755H591.174V356.801Z" fill="#F0F0F0"/>
<path d="M591.174 363.429H586.826V367.383H591.174V363.429Z" fill="#F0F0F0"/>
<path d="M591.174 383.312H586.826V387.266H591.174V383.312Z" fill="#F0F0F0"/>
<path d="M591.174 389.94H586.826V393.894H591.174V389.94Z" fill="#F0F0F0"/>
<path d="M591.174 396.568H586.826V400.522H591.174V396.568Z" fill="#F0F0F0"/>
<path d="M591.174 403.196H586.826V407.15H591.174V403.196Z" fill="#F0F0F0"/>
<path d="M591.174 409.824H586.826V413.778H591.174V409.824Z" fill="#F0F0F0"/>
<path d="M591.174 416.452H586.826V420.406H591.174V416.452Z" fill="#F0F0F0"/>
<path d="M591.174 423.08H586.826V427.034H591.174V423.08Z" fill="#F0F0F0"/>
<path d="M584.268 310.406H579.92V314.36H584.268V310.406Z" fill="#F0F0F0"/>
<path d="M584.268 317.034H579.92V320.987H584.268V317.034Z" fill="#F0F0F0"/>
<path d="M584.268 323.661H579.92V327.615H584.268V323.661Z" fill="#F0F0F0"/>
<path d="M584.268 330.289H579.92V334.243H584.268V330.289Z" fill="#F0F0F0"/>
<path d="M584.268 336.917H579.92V340.871H584.268V336.917Z" fill="#F0F0F0"/>
<path d="M584.268 343.545H579.92V347.499H584.268V343.545Z" fill="#F0F0F0"/>
<path d="M584.268 363.429H579.92V367.383H584.268V363.429Z" fill="#F0F0F0"/>
<path d="M584.268 370.057H579.92V374.011H584.268V370.057Z" fill="#F0F0F0"/>
<path d="M584.268 376.685H579.92V380.638H584.268V376.685Z" fill="#F0F0F0"/>
<path d="M584.268 383.312H579.92V387.266H584.268V383.312Z" fill="#F0F0F0"/>
<path d="M584.268 389.94H579.92V393.894H584.268V389.94Z" fill="#F0F0F0"/>
<path d="M584.268 396.568H579.92V400.522H584.268V396.568Z" fill="#F0F0F0"/>
<path d="M584.268 403.196H579.92V407.15H584.268V403.196Z" fill="#F0F0F0"/>
<path d="M584.268 409.824H579.92V413.778H584.268V409.824Z" fill="#F0F0F0"/>
<path d="M584.268 416.452H579.92V420.406H584.268V416.452Z" fill="#F0F0F0"/>
<path d="M584.268 423.08H579.92V427.034H584.268V423.08Z" fill="#F0F0F0"/>
<path d="M584.268 429.708H579.92V433.662H584.268V429.708Z" fill="#F0F0F0"/>
<path d="M584.268 442.964H579.92V446.917H584.268V442.964Z" fill="#F0F0F0"/>
<path d="M577.365 310.406H573.017V314.36H577.365V310.406Z" fill="#F0F0F0"/>
<path d="M577.365 317.034H573.017V320.987H577.365V317.034Z" fill="#F0F0F0"/>
<path d="M577.365 323.661H573.017V327.615H577.365V323.661Z" fill="#F0F0F0"/>
<path d="M577.365 330.289H573.017V334.243H577.365V330.289Z" fill="#F0F0F0"/>
<path d="M577.365 336.917H573.017V340.871H577.365V336.917Z" fill="#F0F0F0"/>
<path d="M577.365 343.545H573.017V347.499H577.365V343.545Z" fill="#F0F0F0"/>
<path d="M577.365 363.429H573.017V367.383H577.365V363.429Z" fill="#F0F0F0"/>
<path d="M577.365 370.057H573.017V374.011H577.365V370.057Z" fill="#F0F0F0"/>
<path d="M577.365 376.685H573.017V380.638H577.365V376.685Z" fill="#F0F0F0"/>
<path d="M577.365 383.312H573.017V387.266H577.365V383.312Z" fill="#F0F0F0"/>
<path d="M577.365 403.196H573.017V407.15H577.365V403.196Z" fill="#F0F0F0"/>
<path d="M577.365 409.824H573.017V413.778H577.365V409.824Z" fill="#F0F0F0"/>
<path d="M577.365 416.452H573.017V420.406H577.365V416.452Z" fill="#F0F0F0"/>
<path d="M577.365 423.08H573.017V427.034H577.365V423.08Z" fill="#F0F0F0"/>
<path d="M577.365 429.708H573.017V433.662H577.365V429.708Z" fill="#F0F0F0"/>
<path d="M577.365 442.964H573.017V446.917H577.365V442.964Z" fill="#F0F0F0"/>
<path d="M577.365 449.591H573.017V453.545H577.365V449.591Z" fill="#F0F0F0"/>
<path d="M514.712 372.034H510.364V375.988H514.712V372.034Z" fill="#F0F0F0"/>
<path d="M514.712 378.662H510.364V382.616H514.712V378.662Z" fill="#F0F0F0"/>
<path d="M514.712 385.29H510.364V389.244H514.712V385.29Z" fill="#F0F0F0"/>
<path d="M514.712 391.917H510.364V395.87H514.712V391.917Z" fill="#F0F0F0"/>
<path d="M514.712 398.546H510.364V402.5H514.712V398.546Z" fill="#F0F0F0"/>
<path d="M514.712 405.172H510.364V409.126H514.712V405.172Z" fill="#F0F0F0"/>
<path d="M514.712 411.802H510.364V415.756H514.712V411.802Z" fill="#F0F0F0"/>
<path d="M514.712 431.684H510.364V435.638H514.712V431.684Z" fill="#F0F0F0"/>
<path d="M514.712 438.312H510.364V442.266H514.712V438.312Z" fill="#F0F0F0"/>
<path d="M514.712 444.94H510.364V448.894H514.712V444.94Z" fill="#F0F0F0"/>
<path d="M507.807 372.034H503.46V375.988H507.807V372.034Z" fill="#F0F0F0"/>
<path d="M507.807 378.662H503.46V382.616H507.807V378.662Z" fill="#F0F0F0"/>
<path d="M507.807 385.29H503.46V389.244H507.807V385.29Z" fill="#F0F0F0"/>
<path d="M507.807 391.917H503.46V395.87H507.807V391.917Z" fill="#F0F0F0"/>
<path d="M507.807 398.546H503.46V402.5H507.807V398.546Z" fill="#F0F0F0"/>
<path d="M507.807 405.172H503.46V409.126H507.807V405.172Z" fill="#F0F0F0"/>
<path d="M507.807 411.802H503.46V415.756H507.807V411.802Z" fill="#F0F0F0"/>
<path d="M500.903 372.034H496.555V375.988H500.903V372.034Z" fill="#F0F0F0"/>
<path d="M500.903 378.662H496.555V382.616H500.903V378.662Z" fill="#F0F0F0"/>
<path d="M500.903 385.29H496.555V389.244H500.903V385.29Z" fill="#F0F0F0"/>
<path d="M500.903 391.917H496.555V395.87H500.903V391.917Z" fill="#F0F0F0"/>
<path d="M500.903 398.546H496.555V402.5H500.903V398.546Z" fill="#F0F0F0"/>
<path d="M500.903 405.172H496.555V409.126H500.903V405.172Z" fill="#F0F0F0"/>
<path d="M500.903 411.802H496.555V415.756H500.903V411.802Z" fill="#F0F0F0"/>
<path d="M493.998 372.034H489.651V375.988H493.998V372.034Z" fill="#F0F0F0"/>
<path d="M493.998 378.662H489.651V382.616H493.998V378.662Z" fill="#F0F0F0"/>
<path d="M493.998 385.29H489.651V389.244H493.998V385.29Z" fill="#F0F0F0"/>
<path d="M493.998 391.917H489.651V395.87H493.998V391.917Z" fill="#F0F0F0"/>
<path d="M493.998 398.546H489.651V402.5H493.998V398.546Z" fill="#F0F0F0"/>
<path d="M493.998 405.172H489.651V409.126H493.998V405.172Z" fill="#F0F0F0"/>
<path d="M493.998 411.802H489.651V415.756H493.998V411.802Z" fill="#F0F0F0"/>
<path d="M493.998 418.428H489.651V422.382H493.998V418.428Z" fill="#F0F0F0"/>
<path d="M493.998 425.056H489.651V429.01H493.998V425.056Z" fill="#F0F0F0"/>
<path d="M493.998 431.684H489.651V435.638H493.998V431.684Z" fill="#F0F0F0"/>
<path d="M493.998 438.312H489.651V442.266H493.998V438.312Z" fill="#F0F0F0"/>
<path d="M487.094 372.034H482.746V375.988H487.094V372.034Z" fill="#F0F0F0"/>
<path d="M487.094 378.662H482.746V382.616H487.094V378.662Z" fill="#F0F0F0"/>
<path d="M487.094 385.29H482.746V389.244H487.094V385.29Z" fill="#F0F0F0"/>
<path d="M487.094 391.917H482.746V395.87H487.094V391.917Z" fill="#F0F0F0"/>
<path d="M487.094 398.546H482.746V402.5H487.094V398.546Z" fill="#F0F0F0"/>
<path d="M487.094 405.172H482.746V409.126H487.094V405.172Z" fill="#F0F0F0"/>
<path d="M487.094 411.802H482.746V415.756H487.094V411.802Z" fill="#F0F0F0"/>
<path d="M487.094 418.428H482.746V422.382H487.094V418.428Z" fill="#F0F0F0"/>
<path d="M487.094 425.056H482.746V429.01H487.094V425.056Z" fill="#F0F0F0"/>
<path d="M487.094 431.684H482.746V435.638H487.094V431.684Z" fill="#F0F0F0"/>
<path d="M487.094 438.312H482.746V442.266H487.094V438.312Z" fill="#F0F0F0"/>
<path d="M487.094 444.94H482.746V448.894H487.094V444.94Z" fill="#F0F0F0"/>
<path d="M487.094 464.823H482.746V468.777H487.094V464.823Z" fill="#F0F0F0"/>
<path d="M487.094 471.451H482.746V475.405H487.094V471.451Z" fill="#F0F0F0"/>
<path d="M480.189 372.034H475.842V375.988H480.189V372.034Z" fill="#F0F0F0"/>
<path d="M480.189 378.662H475.842V382.616H480.189V378.662Z" fill="#F0F0F0"/>
<path d="M480.189 385.29H475.842V389.244H480.189V385.29Z" fill="#F0F0F0"/>
<path d="M480.189 405.172H475.842V409.126H480.189V405.172Z" fill="#F0F0F0"/>
<path d="M480.189 411.802H475.842V415.756H480.189V411.802Z" fill="#F0F0F0"/>
<path d="M480.189 418.428H475.842V422.382H480.189V418.428Z" fill="#F0F0F0"/>
<path d="M480.189 425.056H475.842V429.01H480.189V425.056Z" fill="#F0F0F0"/>
<path d="M480.189 431.684H475.842V435.638H480.189V431.684Z" fill="#F0F0F0"/>
<path d="M480.189 438.312H475.842V442.266H480.189V438.312Z" fill="#F0F0F0"/>
<path d="M480.189 444.94H475.842V448.894H480.189V444.94Z" fill="#F0F0F0"/>
<path d="M480.189 464.823H475.842V468.777H480.189V464.823Z" fill="#F0F0F0"/>
<path d="M480.189 471.451H475.842V475.405H480.189V471.451Z" fill="#F0F0F0"/>
<path d="M480.189 478.079H475.842V482.033H480.189V478.079Z" fill="#F0F0F0"/>
<path d="M407.819 332.267H403.471V336.221H407.819V332.267Z" fill="#F0F0F0"/>
<path d="M407.819 338.895H403.471V342.849H407.819V338.895Z" fill="#F0F0F0"/>
<path d="M407.819 345.523H403.471V349.477H407.819V345.523Z" fill="#F0F0F0"/>
<path d="M407.819 352.151H403.471V356.105H407.819V352.151Z" fill="#F0F0F0"/>
<path d="M407.819 358.779H403.471V362.733H407.819V358.779Z" fill="#F0F0F0"/>
<path d="M407.819 365.407H403.471V369.36H407.819V365.407Z" fill="#F0F0F0"/>
<path d="M407.819 372.034H403.471V375.988H407.819V372.034Z" fill="#F0F0F0"/>
<path d="M407.819 378.662H403.471V382.616H407.819V378.662Z" fill="#F0F0F0"/>
<path d="M407.819 385.29H403.471V389.244H407.819V385.29Z" fill="#F0F0F0"/>
<path d="M407.819 391.917H403.471V395.87H407.819V391.917Z" fill="#F0F0F0"/>
<path d="M407.819 398.546H403.471V402.5H407.819V398.546Z" fill="#F0F0F0"/>
<path d="M407.819 405.172H403.471V409.126H407.819V405.172Z" fill="#F0F0F0"/>
<path d="M407.819 411.802H403.471V415.756H407.819V411.802Z" fill="#F0F0F0"/>
<path d="M407.819 418.428H403.471V422.382H407.819V418.428Z" fill="#F0F0F0"/>
<path d="M407.819 425.056H403.471V429.01H407.819V425.056Z" fill="#F0F0F0"/>
<path d="M407.819 431.684H403.471V435.638H407.819V431.684Z" fill="#F0F0F0"/>
<path d="M407.819 438.312H403.471V442.266H407.819V438.312Z" fill="#F0F0F0"/>
<path d="M407.819 444.94H403.471V448.894H407.819V444.94Z" fill="#F0F0F0"/>
<path d="M407.819 451.568H403.471V455.521H407.819V451.568Z" fill="#F0F0F0"/>
<path d="M407.819 458.195H403.471V462.149H407.819V458.195Z" fill="#F0F0F0"/>
<path d="M407.819 464.823H403.471V468.777H407.819V464.823Z" fill="#F0F0F0"/>
<path d="M407.819 471.451H403.471V475.405H407.819V471.451Z" fill="#F0F0F0"/>
<path d="M407.819 478.079H403.471V482.033H407.819V478.079Z" fill="#F0F0F0"/>
<path d="M400.914 332.267H396.566V336.221H400.914V332.267Z" fill="#F0F0F0"/>
<path d="M400.914 338.895H396.566V342.849H400.914V338.895Z" fill="#F0F0F0"/>
<path d="M400.914 345.523H396.566V349.477H400.914V345.523Z" fill="#F0F0F0"/>
<path d="M400.914 352.151H396.566V356.105H400.914V352.151Z" fill="#F0F0F0"/>
<path d="M400.914 358.779H396.566V362.733H400.914V358.779Z" fill="#F0F0F0"/>
<path d="M400.914 365.407H396.566V369.36H400.914V365.407Z" fill="#F0F0F0"/>
<path d="M400.914 372.034H396.566V375.988H400.914V372.034Z" fill="#F0F0F0"/>
<path d="M400.914 378.662H396.566V382.616H400.914V378.662Z" fill="#F0F0F0"/>
<path d="M400.914 385.29H396.566V389.244H400.914V385.29Z" fill="#F0F0F0"/>
<path d="M400.914 391.917H396.566V395.87H400.914V391.917Z" fill="#F0F0F0"/>
<path d="M400.914 398.546H396.566V402.5H400.914V398.546Z" fill="#F0F0F0"/>
<path d="M400.914 405.172H396.566V409.126H400.914V405.172Z" fill="#F0F0F0"/>
<path d="M400.914 411.802H396.566V415.756H400.914V411.802Z" fill="#F0F0F0"/>
<path d="M400.914 418.428H396.566V422.382H400.914V418.428Z" fill="#F0F0F0"/>
<path d="M400.914 425.056H396.566V429.01H400.914V425.056Z" fill="#F0F0F0"/>
<path d="M400.914 431.684H396.566V435.638H400.914V431.684Z" fill="#F0F0F0"/>
<path d="M400.914 438.312H396.566V442.266H400.914V438.312Z" fill="#F0F0F0"/>
<path d="M400.914 444.94H396.566V448.894H400.914V444.94Z" fill="#F0F0F0"/>
<path d="M400.914 451.568H396.566V455.521H400.914V451.568Z" fill="#F0F0F0"/>
<path d="M394.01 332.267H389.662V336.221H394.01V332.267Z" fill="#F0F0F0"/>
<path d="M394.01 338.895H389.662V342.849H394.01V338.895Z" fill="#F0F0F0"/>
<path d="M394.01 345.523H389.662V349.477H394.01V345.523Z" fill="#F0F0F0"/>
<path d="M394.01 352.151H389.662V356.105H394.01V352.151Z" fill="#F0F0F0"/>
<path d="M394.01 358.779H389.662V362.733H394.01V358.779Z" fill="#F0F0F0"/>
<path d="M394.01 365.407H389.662V369.36H394.01V365.407Z" fill="#F0F0F0"/>
<path d="M394.01 372.034H389.662V375.988H394.01V372.034Z" fill="#F0F0F0"/>
<path d="M394.01 378.662H389.662V382.616H394.01V378.662Z" fill="#F0F0F0"/>
<path d="M394.01 385.29H389.662V389.244H394.01V385.29Z" fill="#F0F0F0"/>
<path d="M394.01 391.917H389.662V395.87H394.01V391.917Z" fill="#F0F0F0"/>
<path d="M394.01 398.546H389.662V402.5H394.01V398.546Z" fill="#F0F0F0"/>
<path d="M394.01 405.172H389.662V409.126H394.01V405.172Z" fill="#F0F0F0"/>
<path d="M394.01 411.802H389.662V415.756H394.01V411.802Z" fill="#F0F0F0"/>
<path d="M394.01 418.428H389.662V422.382H394.01V418.428Z" fill="#F0F0F0"/>
<path d="M394.01 425.056H389.662V429.01H394.01V425.056Z" fill="#F0F0F0"/>
<path d="M394.01 431.684H389.662V435.638H394.01V431.684Z" fill="#F0F0F0"/>
<path d="M394.01 438.312H389.662V442.266H394.01V438.312Z" fill="#F0F0F0"/>
<path d="M394.01 444.94H389.662V448.894H394.01V444.94Z" fill="#F0F0F0"/>
<path d="M394.01 451.568H389.662V455.521H394.01V451.568Z" fill="#F0F0F0"/>
<path d="M387.105 332.267H382.757V336.221H387.105V332.267Z" fill="#F0F0F0"/>
<path d="M387.105 338.895H382.757V342.849H387.105V338.895Z" fill="#F0F0F0"/>
<path d="M387.105 345.523H382.757V349.477H387.105V345.523Z" fill="#F0F0F0"/>
<path d="M387.105 352.151H382.757V356.105H387.105V352.151Z" fill="#F0F0F0"/>
<path d="M387.105 358.779H382.757V362.733H387.105V358.779Z" fill="#F0F0F0"/>
<path d="M387.105 365.407H382.757V369.36H387.105V365.407Z" fill="#F0F0F0"/>
<path d="M387.105 372.034H382.757V375.988H387.105V372.034Z" fill="#F0F0F0"/>
<path d="M387.105 378.662H382.757V382.616H387.105V378.662Z" fill="#F0F0F0"/>
<path d="M387.105 385.29H382.757V389.244H387.105V385.29Z" fill="#F0F0F0"/>
<path d="M387.105 391.917H382.757V395.87H387.105V391.917Z" fill="#F0F0F0"/>
<path d="M387.105 398.546H382.757V402.5H387.105V398.546Z" fill="#F0F0F0"/>
<path d="M387.105 405.172H382.757V409.126H387.105V405.172Z" fill="#F0F0F0"/>
<path d="M387.105 411.802H382.757V415.756H387.105V411.802Z" fill="#F0F0F0"/>
<path d="M387.105 418.428H382.757V422.382H387.105V418.428Z" fill="#F0F0F0"/>
<path d="M387.105 425.056H382.757V429.01H387.105V425.056Z" fill="#F0F0F0"/>
<path d="M380.201 332.267H375.853V336.221H380.201V332.267Z" fill="#F0F0F0"/>
<path d="M380.201 338.895H375.853V342.849H380.201V338.895Z" fill="#F0F0F0"/>
<path d="M380.201 345.523H375.853V349.477H380.201V345.523Z" fill="#F0F0F0"/>
<path d="M380.201 352.151H375.853V356.105H380.201V352.151Z" fill="#F0F0F0"/>
<path d="M380.201 358.779H375.853V362.733H380.201V358.779Z" fill="#F0F0F0"/>
<path d="M380.201 365.407H375.853V369.36H380.201V365.407Z" fill="#F0F0F0"/>
<path d="M380.201 372.034H375.853V375.988H380.201V372.034Z" fill="#F0F0F0"/>
<path d="M380.201 378.662H375.853V382.616H380.201V378.662Z" fill="#F0F0F0"/>
<path d="M380.201 385.29H375.853V389.244H380.201V385.29Z" fill="#F0F0F0"/>
<path d="M380.201 391.917H375.853V395.87H380.201V391.917Z" fill="#F0F0F0"/>
<path d="M380.201 398.546H375.853V402.5H380.201V398.546Z" fill="#F0F0F0"/>
<path d="M380.201 405.172H375.853V409.126H380.201V405.172Z" fill="#F0F0F0"/>
<path d="M380.201 411.802H375.853V415.756H380.201V411.802Z" fill="#F0F0F0"/>
<path d="M373.296 332.267H368.948V336.221H373.296V332.267Z" fill="#F0F0F0"/>
<path d="M373.296 338.895H368.948V342.849H373.296V338.895Z" fill="#F0F0F0"/>
<path d="M373.296 345.523H368.948V349.477H373.296V345.523Z" fill="#F0F0F0"/>
<path d="M373.296 352.151H368.948V356.105H373.296V352.151Z" fill="#F0F0F0"/>
<path d="M373.296 358.779H368.948V362.733H373.296V358.779Z" fill="#F0F0F0"/>
<path d="M373.296 365.407H368.948V369.36H373.296V365.407Z" fill="#F0F0F0"/>
<path d="M373.296 372.034H368.948V375.988H373.296V372.034Z" fill="#F0F0F0"/>
<path d="M373.296 378.662H368.948V382.616H373.296V378.662Z" fill="#F0F0F0"/>
<path d="M373.296 385.29H368.948V389.244H373.296V385.29Z" fill="#F0F0F0"/>
<path d="M373.296 391.917H368.948V395.87H373.296V391.917Z" fill="#F0F0F0"/>
<path d="M373.296 398.546H368.948V402.5H373.296V398.546Z" fill="#F0F0F0"/>
<path d="M373.296 405.172H368.948V409.126H373.296V405.172Z" fill="#F0F0F0"/>
<path d="M776.317 330.289H771.969V334.243H776.317V330.289Z" fill="#F0F0F0"/>
<path d="M776.317 336.917H771.969V340.871H776.317V336.917Z" fill="#F0F0F0"/>
<path d="M776.317 343.545H771.969V347.499H776.317V343.545Z" fill="#F0F0F0"/>
<path d="M776.317 350.173H771.969V354.127H776.317V350.173Z" fill="#F0F0F0"/>
<path d="M776.317 356.801H771.969V360.755H776.317V356.801Z" fill="#F0F0F0"/>
<path d="M776.317 363.429H771.969V367.383H776.317V363.429Z" fill="#F0F0F0"/>
<path d="M776.317 370.057H771.969V374.011H776.317V370.057Z" fill="#F0F0F0"/>
<path d="M776.317 376.685H771.969V380.638H776.317V376.685Z" fill="#F0F0F0"/>
<path d="M776.317 383.312H771.969V387.266H776.317V383.312Z" fill="#F0F0F0"/>
<path d="M776.317 389.94H771.969V393.894H776.317V389.94Z" fill="#F0F0F0"/>
<path d="M776.317 396.568H771.969V400.522H776.317V396.568Z" fill="#F0F0F0"/>
<path d="M776.317 403.196H771.969V407.15H776.317V403.196Z" fill="#F0F0F0"/>
<path d="M776.317 409.824H771.969V413.778H776.317V409.824Z" fill="#F0F0F0"/>
<path d="M776.317 416.452H771.969V420.406H776.317V416.452Z" fill="#F0F0F0"/>
<path d="M776.317 423.08H771.969V427.034H776.317V423.08Z" fill="#F0F0F0"/>
<path d="M776.317 429.708H771.969V433.662H776.317V429.708Z" fill="#F0F0F0"/>
<path d="M776.317 436.336H771.969V440.29H776.317V436.336Z" fill="#F0F0F0"/>
<path d="M776.317 449.591H771.969V453.545H776.317V449.591Z" fill="#F0F0F0"/>
<path d="M776.317 456.219H771.969V460.173H776.317V456.219Z" fill="#F0F0F0"/>
<path d="M776.317 462.847H771.969V466.801H776.317V462.847Z" fill="#F0F0F0"/>
<path d="M776.317 469.475H771.969V473.429H776.317V469.475Z" fill="#F0F0F0"/>
<path d="M776.317 476.103H771.969V480.057H776.317V476.103Z" fill="#F0F0F0"/>
<path d="M769.413 330.289H765.065V334.243H769.413V330.289Z" fill="#F0F0F0"/>
<path d="M769.413 336.917H765.065V340.871H769.413V336.917Z" fill="#F0F0F0"/>
<path d="M769.413 343.545H765.065V347.499H769.413V343.545Z" fill="#F0F0F0"/>
<path d="M769.413 350.173H765.065V354.127H769.413V350.173Z" fill="#F0F0F0"/>
<path d="M769.413 356.801H765.065V360.755H769.413V356.801Z" fill="#F0F0F0"/>
<path d="M769.413 363.429H765.065V367.383H769.413V363.429Z" fill="#F0F0F0"/>
<path d="M769.413 370.057H765.065V374.011H769.413V370.057Z" fill="#F0F0F0"/>
<path d="M769.413 376.685H765.065V380.638H769.413V376.685Z" fill="#F0F0F0"/>
<path d="M769.413 383.312H765.065V387.266H769.413V383.312Z" fill="#F0F0F0"/>
<path d="M769.413 389.94H765.065V393.894H769.413V389.94Z" fill="#F0F0F0"/>
<path d="M769.413 396.568H765.065V400.522H769.413V396.568Z" fill="#F0F0F0"/>
<path d="M769.413 403.196H765.065V407.15H769.413V403.196Z" fill="#F0F0F0"/>
<path d="M769.413 409.824H765.065V413.778H769.413V409.824Z" fill="#F0F0F0"/>
<path d="M769.413 416.452H765.065V420.406H769.413V416.452Z" fill="#F0F0F0"/>
<path d="M769.413 423.08H765.065V427.034H769.413V423.08Z" fill="#F0F0F0"/>
<path d="M769.413 429.708H765.065V433.662H769.413V429.708Z" fill="#F0F0F0"/>
<path d="M769.413 469.475H765.065V473.429H769.413V469.475Z" fill="#F0F0F0"/>
<path d="M769.413 476.103H765.065V480.057H769.413V476.103Z" fill="#F0F0F0"/>
<path d="M762.508 330.289H758.16V334.243H762.508V330.289Z" fill="#F0F0F0"/>
<path d="M762.508 336.917H758.16V340.871H762.508V336.917Z" fill="#F0F0F0"/>
<path d="M762.508 343.545H758.16V347.499H762.508V343.545Z" fill="#F0F0F0"/>
<path d="M762.508 350.173H758.16V354.127H762.508V350.173Z" fill="#F0F0F0"/>
<path d="M762.508 356.801H758.16V360.755H762.508V356.801Z" fill="#F0F0F0"/>
<path d="M762.508 363.429H758.16V367.383H762.508V363.429Z" fill="#F0F0F0"/>
<path d="M762.508 370.057H758.16V374.011H762.508V370.057Z" fill="#F0F0F0"/>
<path d="M762.508 376.685H758.16V380.638H762.508V376.685Z" fill="#F0F0F0"/>
<path d="M762.508 383.312H758.16V387.266H762.508V383.312Z" fill="#F0F0F0"/>
<path d="M762.508 389.94H758.16V393.894H762.508V389.94Z" fill="#F0F0F0"/>
<path d="M762.508 396.568H758.16V400.522H762.508V396.568Z" fill="#F0F0F0"/>
<path d="M762.508 403.196H758.16V407.15H762.508V403.196Z" fill="#F0F0F0"/>
<path d="M762.508 409.824H758.16V413.778H762.508V409.824Z" fill="#F0F0F0"/>
<path d="M762.508 416.452H758.16V420.406H762.508V416.452Z" fill="#F0F0F0"/>
<path d="M762.508 423.08H758.16V427.034H762.508V423.08Z" fill="#F0F0F0"/>
<path d="M762.508 429.708H758.16V433.662H762.508V429.708Z" fill="#F0F0F0"/>
<path d="M762.508 442.964H758.16V446.917H762.508V442.964Z" fill="#F0F0F0"/>
<path d="M762.508 449.591H758.16V453.545H762.508V449.591Z" fill="#F0F0F0"/>
<path d="M762.508 456.219H758.16V460.173H762.508V456.219Z" fill="#F0F0F0"/>
<path d="M762.508 462.847H758.16V466.801H762.508V462.847Z" fill="#F0F0F0"/>
<path d="M762.508 476.103H758.16V480.057H762.508V476.103Z" fill="#F0F0F0"/>
<path d="M642.062 376.685H637.714V380.638H642.062V376.685Z" fill="#F0F0F0"/>
<path d="M642.062 383.312H637.714V387.266H642.062V383.312Z" fill="#F0F0F0"/>
<path d="M642.062 389.94H637.714V393.894H642.062V389.94Z" fill="#F0F0F0"/>
<path d="M642.062 396.568H637.714V400.522H642.062V396.568Z" fill="#F0F0F0"/>
<path d="M642.062 403.196H637.714V407.15H642.062V403.196Z" fill="#F0F0F0"/>
<path d="M642.062 409.824H637.714V413.778H642.062V409.824Z" fill="#F0F0F0"/>
<path d="M642.062 416.452H637.714V420.406H642.062V416.452Z" fill="#F0F0F0"/>
<path d="M642.062 423.08H637.714V427.034H642.062V423.08Z" fill="#F0F0F0"/>
<path d="M642.062 429.708H637.714V433.662H642.062V429.708Z" fill="#F0F0F0"/>
<path d="M642.062 436.336H637.714V440.29H642.062V436.336Z" fill="#F0F0F0"/>
<path d="M642.062 442.964H637.714V446.917H642.062V442.964Z" fill="#F0F0F0"/>
<path d="M642.062 449.591H637.714V453.545H642.062V449.591Z" fill="#F0F0F0"/>
<path d="M642.062 456.219H637.714V460.173H642.062V456.219Z" fill="#F0F0F0"/>
<path d="M642.062 469.475H637.714V473.429H642.062V469.475Z" fill="#F0F0F0"/>
<path d="M642.062 476.103H637.714V480.057H642.062V476.103Z" fill="#F0F0F0"/>
<path d="M642.062 482.731H637.714V486.685H642.062V482.731Z" fill="#F0F0F0"/>
<path d="M642.062 489.359H637.714V493.313H642.062V489.359Z" fill="#F0F0F0"/>
<path d="M642.062 502.615H637.714V506.568H642.062V502.615Z" fill="#F0F0F0"/>
<path d="M642.062 509.242H637.714V513.196H642.062V509.242Z" fill="#F0F0F0"/>
<path d="M642.062 515.87H637.714V519.824H642.062V515.87Z" fill="#F0F0F0"/>
<path d="M635.158 376.685H630.81V380.638H635.158V376.685Z" fill="#F0F0F0"/>
<path d="M635.158 383.312H630.81V387.266H635.158V383.312Z" fill="#F0F0F0"/>
<path d="M635.158 389.94H630.81V393.894H635.158V389.94Z" fill="#F0F0F0"/>
<path d="M635.158 396.568H630.81V400.522H635.158V396.568Z" fill="#F0F0F0"/>
<path d="M635.158 403.196H630.81V407.15H635.158V403.196Z" fill="#F0F0F0"/>
<path d="M635.158 409.824H630.81V413.778H635.158V409.824Z" fill="#F0F0F0"/>
<path d="M635.158 416.452H630.81V420.406H635.158V416.452Z" fill="#F0F0F0"/>
<path d="M635.158 423.08H630.81V427.034H635.158V423.08Z" fill="#F0F0F0"/>
<path d="M635.158 429.708H630.81V433.662H635.158V429.708Z" fill="#F0F0F0"/>
<path d="M635.158 436.336H630.81V440.29H635.158V436.336Z" fill="#F0F0F0"/>
<path d="M635.158 442.964H630.81V446.917H635.158V442.964Z" fill="#F0F0F0"/>
<path d="M635.158 449.591H630.81V453.545H635.158V449.591Z" fill="#F0F0F0"/>
<path d="M635.158 456.219H630.81V460.173H635.158V456.219Z" fill="#F0F0F0"/>
<path d="M635.158 476.103H630.81V480.057H635.158V476.103Z" fill="#F0F0F0"/>
<path d="M635.158 482.731H630.81V486.685H635.158V482.731Z" fill="#F0F0F0"/>
<path d="M635.158 495.987H630.81V499.941H635.158V495.987Z" fill="#F0F0F0"/>
<path d="M635.158 502.615H630.81V506.568H635.158V502.615Z" fill="#F0F0F0"/>
<path d="M635.158 509.242H630.81V513.196H635.158V509.242Z" fill="#F0F0F0"/>
<path d="M635.158 515.87H630.81V519.824H635.158V515.87Z" fill="#F0F0F0"/>
<path d="M628.253 376.685H623.906V380.638H628.253V376.685Z" fill="#F0F0F0"/>
<path d="M628.253 383.312H623.906V387.266H628.253V383.312Z" fill="#F0F0F0"/>
<path d="M628.253 389.94H623.906V393.894H628.253V389.94Z" fill="#F0F0F0"/>
<path d="M628.253 396.568H623.906V400.522H628.253V396.568Z" fill="#F0F0F0"/>
<path d="M628.253 403.196H623.906V407.15H628.253V403.196Z" fill="#F0F0F0"/>
<path d="M628.253 409.824H623.906V413.778H628.253V409.824Z" fill="#F0F0F0"/>
<path d="M628.253 416.452H623.906V420.406H628.253V416.452Z" fill="#F0F0F0"/>
<path d="M628.253 423.08H623.906V427.034H628.253V423.08Z" fill="#F0F0F0"/>
<path d="M628.253 429.708H623.906V433.662H628.253V429.708Z" fill="#F0F0F0"/>
<path d="M628.253 436.336H623.906V440.29H628.253V436.336Z" fill="#F0F0F0"/>
<path d="M628.253 442.964H623.906V446.917H628.253V442.964Z" fill="#F0F0F0"/>
<path d="M628.253 449.591H623.906V453.545H628.253V449.591Z" fill="#F0F0F0"/>
<path d="M628.253 456.219H623.906V460.173H628.253V456.219Z" fill="#F0F0F0"/>
<path d="M628.253 462.847H623.906V466.801H628.253V462.847Z" fill="#F0F0F0"/>
<path d="M628.253 476.103H623.906V480.057H628.253V476.103Z" fill="#F0F0F0"/>
<path d="M628.253 489.359H623.906V493.313H628.253V489.359Z" fill="#F0F0F0"/>
<path d="M628.253 495.987H623.906V499.941H628.253V495.987Z" fill="#F0F0F0"/>
<path d="M628.253 502.615H623.906V506.568H628.253V502.615Z" fill="#F0F0F0"/>
<path d="M628.253 509.242H623.906V513.196H628.253V509.242Z" fill="#F0F0F0"/>
<path d="M628.253 515.87H623.906V519.824H628.253V515.87Z" fill="#F0F0F0"/>
<path d="M670.191 414.476H665.843V418.43H670.191V414.476Z" fill="#F0F0F0"/>
<path d="M670.191 421.104H665.843V425.058H670.191V421.104Z" fill="#F0F0F0"/>
<path d="M670.191 427.732H665.843V431.685H670.191V427.732Z" fill="#F0F0F0"/>
<path d="M670.191 434.359H665.843V438.313H670.191V434.359Z" fill="#F0F0F0"/>
<path d="M670.191 440.987H665.843V444.941H670.191V440.987Z" fill="#F0F0F0"/>
<path d="M670.191 447.615H665.843V451.569H670.191V447.615Z" fill="#F0F0F0"/>
<path d="M670.191 467.499H665.843V471.453H670.191V467.499Z" fill="#F0F0F0"/>
<path d="M670.191 474.127H665.843V478.081H670.191V474.127Z" fill="#F0F0F0"/>
<path d="M670.191 480.753H665.843V484.707H670.191V480.753Z" fill="#F0F0F0"/>
<path d="M670.191 487.383H665.843V491.337H670.191V487.383Z" fill="#F0F0F0"/>
<path d="M670.191 494.009H665.843V497.963H670.191V494.009Z" fill="#F0F0F0"/>
<path d="M670.191 500.637H665.843V504.591H670.191V500.637Z" fill="#F0F0F0"/>
<path d="M670.191 507.265H665.843V511.219H670.191V507.265Z" fill="#F0F0F0"/>
<path d="M663.287 414.476H658.939V418.43H663.287V414.476Z" fill="#F0F0F0"/>
<path d="M663.287 421.104H658.939V425.058H663.287V421.104Z" fill="#F0F0F0"/>
<path d="M663.287 427.732H658.939V431.685H663.287V427.732Z" fill="#F0F0F0"/>
<path d="M663.287 434.359H658.939V438.313H663.287V434.359Z" fill="#F0F0F0"/>
<path d="M663.287 440.987H658.939V444.941H663.287V440.987Z" fill="#F0F0F0"/>
<path d="M663.287 447.615H658.939V451.569H663.287V447.615Z" fill="#F0F0F0"/>
<path d="M663.287 467.499H658.939V471.453H663.287V467.499Z" fill="#F0F0F0"/>
<path d="M663.287 474.127H658.939V478.081H663.287V474.127Z" fill="#F0F0F0"/>
<path d="M663.287 480.753H658.939V484.707H663.287V480.753Z" fill="#F0F0F0"/>
<path d="M663.287 487.383H658.939V491.337H663.287V487.383Z" fill="#F0F0F0"/>
<path d="M663.287 494.009H658.939V497.963H663.287V494.009Z" fill="#F0F0F0"/>
<path d="M663.287 500.637H658.939V504.591H663.287V500.637Z" fill="#F0F0F0"/>
<path d="M663.287 513.893H658.939V517.847H663.287V513.893Z" fill="#F0F0F0"/>
<path d="M433.904 385.29H429.556V389.244H433.904V385.29Z" fill="#F0F0F0"/>
<path d="M433.904 391.917H429.556V395.87H433.904V391.917Z" fill="#F0F0F0"/>
<path d="M433.904 398.546H429.556V402.5H433.904V398.546Z" fill="#F0F0F0"/>
<path d="M433.904 405.172H429.556V409.126H433.904V405.172Z" fill="#F0F0F0"/>
<path d="M433.904 411.802H429.556V415.756H433.904V411.802Z" fill="#F0F0F0"/>
<path d="M433.904 418.428H429.556V422.382H433.904V418.428Z" fill="#F0F0F0"/>
<path d="M433.904 425.056H429.556V429.01H433.904V425.056Z" fill="#F0F0F0"/>
<path d="M433.904 431.684H429.556V435.638H433.904V431.684Z" fill="#F0F0F0"/>
<path d="M433.904 438.312H429.556V442.266H433.904V438.312Z" fill="#F0F0F0"/>
<path d="M433.904 444.94H429.556V448.894H433.904V444.94Z" fill="#F0F0F0"/>
<path d="M433.904 451.568H429.556V455.521H433.904V451.568Z" fill="#F0F0F0"/>
<path d="M433.904 464.823H429.556V468.777H433.904V464.823Z" fill="#F0F0F0"/>
<path d="M433.904 471.451H429.556V475.405H433.904V471.451Z" fill="#F0F0F0"/>
<path d="M433.904 478.079H429.556V482.033H433.904V478.079Z" fill="#F0F0F0"/>
<path d="M433.904 484.707H429.556V488.661H433.904V484.707Z" fill="#F0F0F0"/>
<path d="M433.904 491.335H429.556V495.289H433.904V491.335Z" fill="#F0F0F0"/>
<path d="M433.904 497.963H429.556V501.917H433.904V497.963Z" fill="#F0F0F0"/>
<path d="M433.904 504.591H429.556V508.545H433.904V504.591Z" fill="#F0F0F0"/>
<path d="M433.904 511.219H429.556V515.172H433.904V511.219Z" fill="#F0F0F0"/>
<path d="M426.999 385.29H422.651V389.244H426.999V385.29Z" fill="#F0F0F0"/>
<path d="M426.999 391.917H422.651V395.87H426.999V391.917Z" fill="#F0F0F0"/>
<path d="M426.999 398.546H422.651V402.5H426.999V398.546Z" fill="#F0F0F0"/>
<path d="M426.999 405.172H422.651V409.126H426.999V405.172Z" fill="#F0F0F0"/>
<path d="M426.999 411.802H422.651V415.756H426.999V411.802Z" fill="#F0F0F0"/>
<path d="M426.999 418.428H422.651V422.382H426.999V418.428Z" fill="#F0F0F0"/>
<path d="M426.999 425.056H422.651V429.01H426.999V425.056Z" fill="#F0F0F0"/>
<path d="M426.999 431.684H422.651V435.638H426.999V431.684Z" fill="#F0F0F0"/>
<path d="M426.999 438.312H422.651V442.266H426.999V438.312Z" fill="#F0F0F0"/>
<path d="M426.999 444.94H422.651V448.894H426.999V444.94Z" fill="#F0F0F0"/>
<path d="M426.999 451.568H422.651V455.521H426.999V451.568Z" fill="#F0F0F0"/>
<path d="M426.999 458.195H422.651V462.149H426.999V458.195Z" fill="#F0F0F0"/>
<path d="M426.999 464.823H422.651V468.777H426.999V464.823Z" fill="#F0F0F0"/>
<path d="M426.999 471.451H422.651V475.405H426.999V471.451Z" fill="#F0F0F0"/>
<path d="M426.999 478.079H422.651V482.033H426.999V478.079Z" fill="#F0F0F0"/>
<path d="M426.999 484.707H422.651V488.661H426.999V484.707Z" fill="#F0F0F0"/>
<path d="M426.999 491.335H422.651V495.289H426.999V491.335Z" fill="#F0F0F0"/>
<path d="M426.999 497.963H422.651V501.917H426.999V497.963Z" fill="#F0F0F0"/>
<path d="M426.999 504.591H422.651V508.545H426.999V504.591Z" fill="#F0F0F0"/>
<path d="M426.999 511.219H422.651V515.172H426.999V511.219Z" fill="#F0F0F0"/>
<path d="M467.913 411.104H463.566V415.058H467.913V411.104Z" fill="#F0F0F0"/>
<path d="M467.913 417.73H463.566V421.684H467.913V417.73Z" fill="#F0F0F0"/>
<path d="M467.913 424.36H463.566V428.314H467.913V424.36Z" fill="#F0F0F0"/>
<path d="M467.913 430.986H463.566V434.94H467.913V430.986Z" fill="#F0F0F0"/>
<path d="M467.913 437.616H463.566V441.569H467.913V437.616Z" fill="#F0F0F0"/>
<path d="M467.913 444.242H463.566V448.196H467.913V444.242Z" fill="#F0F0F0"/>
<path d="M467.913 450.87H463.566V454.824H467.913V450.87Z" fill="#F0F0F0"/>
<path d="M467.913 457.498H463.566V461.452H467.913V457.498Z" fill="#F0F0F0"/>
<path d="M467.913 464.126H463.566V468.079H467.913V464.126Z" fill="#F0F0F0"/>
<path d="M467.913 470.753H463.566V474.707H467.913V470.753Z" fill="#F0F0F0"/>
<path d="M461.011 411.104H456.663V415.058H461.011V411.104Z" fill="#F0F0F0"/>
<path d="M461.011 417.73H456.663V421.684H461.011V417.73Z" fill="#F0F0F0"/>
<path d="M461.011 424.36H456.663V428.314H461.011V424.36Z" fill="#F0F0F0"/>
<path d="M461.011 430.986H456.663V434.94H461.011V430.986Z" fill="#F0F0F0"/>
<path d="M461.011 437.616H456.663V441.569H461.011V437.616Z" fill="#F0F0F0"/>
<path d="M461.011 444.242H456.663V448.196H461.011V444.242Z" fill="#F0F0F0"/>
<path d="M461.011 450.87H456.663V454.824H461.011V450.87Z" fill="#F0F0F0"/>
<path d="M461.011 457.498H456.663V461.452H461.011V457.498Z" fill="#F0F0F0"/>
<path d="M461.011 464.126H456.663V468.079H461.011V464.126Z" fill="#F0F0F0"/>
<path d="M502.092 159.575H494.795V529.234H502.092V159.575Z" fill="#E0E0E0"/>
<path d="M639.35 159.575H632.053V529.234H639.35V159.575Z" fill="#E0E0E0"/>
<path d="M776.608 159.575H769.312V529.234H776.608V159.575Z" fill="#E0E0E0"/>
<path d="M310.444 579.298H250.119V500.267C250.119 496.409 253.558 493.279 257.803 493.279H302.762C307.005 493.279 310.446 496.407 310.446 500.267L310.444 579.298Z" fill="#F0F0F0"/>
<path d="M310.446 504.908H250.121V511.07H310.446V504.908Z" fill="#E6E6E6"/>
<path d="M299.45 568.879H284.422C282.136 568.879 280.282 570.565 280.282 572.644V579.299H303.59V572.644C303.59 570.564 301.736 568.879 299.45 568.879Z" fill="#E0E0E0"/>
<path d="M303.669 579.298H286.951C285.47 579.298 284.27 578.206 284.27 576.86C284.27 575.513 285.47 574.422 286.951 574.422H303.669C305.149 574.422 306.349 575.513 306.349 576.86C306.349 578.206 305.149 579.298 303.669 579.298Z" fill="#E6E6E6"/>
<path d="M571.51 142.178C593.589 137.437 607.261 117.317 602.048 97.2381C596.834 77.1595 574.709 64.726 552.631 69.4671C530.552 74.2083 516.88 94.3286 522.093 114.407C527.307 134.486 549.431 146.919 571.51 142.178Z" fill="#E0E0E0"/>
<path d="M567.696 137.199C586.737 134.388 599.667 118.073 596.577 100.757C593.487 83.4414 575.546 71.6823 556.505 74.4926C537.464 77.3028 524.534 93.6182 527.624 110.934C530.714 128.25 548.655 140.009 567.696 137.199Z" fill="#F0F0F0"/>
<path d="M563.739 84.0644V106.268L579.92 97.9419" fill="#F0F0F0"/>
<path d="M563.739 84.0644V106.268L579.92 97.9419" stroke="#E0E0E0" stroke-width="2" stroke-miterlimit="10" stroke-linecap="round" stroke-linejoin="round"/>
<path d="M169.048 470.435C165.908 465.734 160.739 469.822 160.739 469.822C161.477 460.814 152.365 454.652 152.365 454.652C152.365 454.652 162.954 454.652 164.431 445.463C165.908 436.274 160.739 440.548 155.889 440.486C151.039 440.423 145.969 453.309 152.365 460.557C158.76 467.803 157.047 480.174 142.276 492.071C138.672 494.973 136.222 498.837 134.567 503.017C135.681 492.087 136.311 476.687 132.774 466.405C126.766 448.943 138.214 444.242 141.538 435.511C144.862 426.78 132.774 419.392 132.774 419.392C132.774 419.392 144.122 414.691 138.583 409.318C133.045 403.945 121.597 404.676 121.597 411.699C121.597 418.72 129.351 421.407 129.351 421.407C129.351 421.407 138.212 429.801 138.212 434.168C138.212 438.534 129.351 447.936 129.351 447.936C129.351 447.936 133.412 439.888 125.289 439.547C117.165 439.205 114.581 448.943 117.903 453.309C121.225 457.675 126.764 453.98 126.764 453.98C126.764 453.98 127.41 463.382 129.302 469.091C130.134 471.602 129.743 481.451 129.044 491.7C127.408 488 125.094 484.61 121.852 481.997C107.082 470.098 105.367 457.729 111.762 450.483C118.158 443.236 113.088 430.35 108.238 430.414C103.388 430.475 98.2186 426.201 99.6958 435.39C101.173 444.58 111.762 444.58 111.762 444.58C111.762 444.58 102.65 450.741 103.388 459.75C103.388 459.75 98.2186 455.661 95.0794 460.364C89.4759 468.757 102.463 473.963 104.647 469.832C104.647 469.832 132.19 487.563 125.544 513.084L127.087 515.157C126.888 517.217 126.764 518.457 126.764 518.457L128.918 517.613L131.369 520.904C131.241 527.283 131.996 531.998 131.996 531.998L138.582 523.158C131.935 497.638 159.477 479.906 159.477 479.906C161.664 484.033 174.651 478.828 169.048 470.435Z" fill="#E0E0E0"/>
<path opacity="0.2" d="M169.048 470.435C165.908 465.734 160.739 469.822 160.739 469.822C161.477 460.814 152.365 454.652 152.365 454.652C152.365 454.652 162.954 454.652 164.431 445.463C165.908 436.274 160.739 440.548 155.889 440.486C151.039 440.423 145.969 453.309 152.365 460.557C158.76 467.803 157.047 480.174 142.276 492.071C138.672 494.973 136.222 498.837 134.567 503.017C135.681 492.087 136.311 476.687 132.774 466.405C126.766 448.943 138.214 444.242 141.538 435.511C144.862 426.78 132.774 419.392 132.774 419.392C132.774 419.392 144.122 414.691 138.583 409.318C133.045 403.945 121.597 404.676 121.597 411.699C121.597 418.72 129.351 421.407 129.351 421.407C129.351 421.407 138.212 429.801 138.212 434.168C138.212 438.534 129.351 447.936 129.351 447.936C129.351 447.936 133.412 439.888 125.289 439.547C117.165 439.205 114.581 448.943 117.903 453.309C121.225 457.675 126.764 453.98 126.764 453.98C126.764 453.98 127.41 463.382 129.302 469.091C130.134 471.602 129.743 481.451 129.044 491.7C127.408 488 125.094 484.61 121.852 481.997C107.082 470.098 105.367 457.729 111.762 450.483C118.158 443.236 113.088 430.35 108.238 430.414C103.388 430.475 98.2186 426.201 99.6958 435.39C101.173 444.58 111.762 444.58 111.762 444.58C111.762 444.58 102.65 450.741 103.388 459.75C103.388 459.75 98.2186 455.661 95.0794 460.364C89.4759 468.757 102.463 473.963 104.647 469.832C104.647 469.832 132.19 487.563 125.544 513.084L127.087 515.157C126.888 517.217 126.764 518.457 126.764 518.457L128.918 517.613L131.369 520.904C131.241 527.283 131.996 531.998 131.996 531.998L138.582 523.158C131.935 497.638 159.477 479.906 159.477 479.906C161.664 484.033 174.651 478.828 169.048 470.435Z" fill="#E0E0E0"/>
<path d="M163.66 579.298H100.571L93.7662 516.483H170.467L163.66 579.298Z" fill="#E6E6E6"/>
<path d="M173.835 509.552H90.3968V523.413H173.835V509.552Z" fill="#F0F0F0"/>
<path d="M436 651.112C622.751 651.112 774.143 643.072 774.143 633.153C774.143 623.235 622.751 615.195 436 615.195C249.249 615.195 97.8576 623.235 97.8576 633.153C97.8576 643.072 249.249 651.112 436 651.112Z" fill="#F5F5F5"/>
<path d="M715.82 583.161C716.085 581.537 722.189 543.238 709.962 530.016C707.255 527.09 703.84 525.559 699.81 525.469C675.127 524.944 671.75 542.972 671.721 543.156L674.632 543.564C674.745 542.918 677.671 527.661 699.738 528.146C702.931 528.216 705.539 529.393 707.708 531.738C719.091 544.047 712.972 582.379 712.907 582.765L715.82 583.161Z" fill="#407BFF"/>
<path d="M717.314 581.415L720.258 581.331C720.246 580.979 719.28 546.042 738.209 538.825C756.76 531.757 765.105 546.288 765.45 546.912L768.082 545.708C767.986 545.533 758.194 528.3 737.07 536.355C716.276 544.284 717.262 579.904 717.314 581.415Z" fill="#407BFF"/>
<path d="M717.227 584.16C717.229 583.604 717.405 528.349 729.25 512.188C740.625 496.672 758.973 503.977 759.747 504.297L760.965 501.858C760.752 501.771 739.578 493.27 726.8 510.702C714.461 527.534 714.283 581.853 714.281 584.157L717.227 584.16Z" fill="#407BFF"/>
<path d="M696.278 526.796C696.278 526.796 707.054 530.409 703.851 538.939C700.647 547.468 666.567 561.507 666.567 561.507C666.567 561.507 652.294 549.611 665.402 530.263C678.51 510.916 695.987 520.692 696.278 526.796Z" fill="#407BFF"/>
<path d="M729.786 509.279C729.786 509.279 722.135 508.532 722.75 504.294C723.366 500.056 752.492 489.148 769.678 506.787C769.678 506.787 758.675 523.976 742.768 524.202C726.861 524.424 729.786 509.279 729.786 509.279Z" fill="#407BFF"/>
<path d="M737.639 537.591C737.639 537.591 732.358 533.713 738.057 531.821C743.757 529.929 771.718 530.466 772.01 555.655C772.01 555.655 739.444 560.577 735.412 550.983C731.38 541.389 737.639 537.591 737.639 537.591Z" fill="#407BFF"/>
<path opacity="0.2" d="M696.278 526.796C696.278 526.796 707.054 530.409 703.851 538.939C700.647 547.468 666.567 561.507 666.567 561.507C666.567 561.507 652.294 549.611 665.402 530.263C678.51 510.916 695.987 520.692 696.278 526.796Z" fill="black"/>
<path opacity="0.2" d="M729.786 509.279C729.786 509.279 722.135 508.532 722.75 504.294C723.366 500.056 752.492 489.148 769.678 506.787C769.678 506.787 758.675 523.976 742.768 524.202C726.861 524.424 729.786 509.279 729.786 509.279Z" fill="black"/>
<path opacity="0.2" d="M737.639 537.591C737.639 537.591 732.358 533.713 738.057 531.821C743.757 529.929 771.718 530.466 772.01 555.655C772.01 555.655 739.444 560.577 735.412 550.983C731.38 541.389 737.639 537.591 737.639 537.591Z" fill="black"/>
<path d="M690.486 634.476H741.024L746.476 584.159H685.034L690.486 634.476Z" fill="#407BFF"/>
<path opacity="0.5" d="M690.486 634.476H741.024L746.476 584.159H685.034L690.486 634.476Z" fill="white"/>
<path d="M682.337 589.71H749.174V578.606H682.337V589.71Z" fill="#407BFF"/>
<path opacity="0.2" d="M682.337 589.71H749.174V578.606H682.337V589.71Z" fill="white"/>
<path d="M633.288 598.407L583.038 593.916V529.696H563.124V593.898L512.671 598.407C507.663 598.855 503.845 602.685 503.845 607.262V614.125H571.134H574.824H642.113V607.262C642.115 602.685 638.295 598.855 633.288 598.407Z" fill="#263238"/>
<path opacity="0.2" d="M633.288 598.407L583.038 593.916V529.696H563.124V593.898L512.671 598.407C507.663 598.855 503.845 602.685 503.845 607.262V614.125H571.134H574.824H642.113V607.262C642.115 602.685 638.295 598.855 633.288 598.407Z" fill="white"/>
<path d="M509.163 634.476C516.354 634.476 522.183 629.175 522.183 622.635C522.183 616.095 516.354 610.794 509.163 610.794C501.971 610.794 496.142 616.095 496.142 622.635C496.142 629.175 501.971 634.476 509.163 634.476Z" fill="#263238"/>
<path d="M636.795 634.476C643.987 634.476 649.816 629.175 649.816 622.635C649.816 616.095 643.987 610.794 636.795 610.794C629.604 610.794 623.775 616.095 623.775 622.635C623.775 629.175 629.604 634.476 636.795 634.476Z" fill="#263238"/>
<path d="M579.259 543.498H566.901C562.92 543.498 559.693 540.564 559.693 536.944V486.298H586.467V536.944C586.467 540.564 583.241 543.498 579.259 543.498Z" fill="#263238"/>
<path opacity="0.3" d="M579.259 543.498H566.901C562.92 543.498 559.693 540.564 559.693 536.944V486.298H586.467V536.944C586.467 540.564 583.241 543.498 579.259 543.498Z" fill="white"/>
<path d="M620.691 385.915C620.691 385.915 624.486 471.554 598.269 486.298H628.201C628.201 486.298 651.393 457.122 644.839 385.915H620.691Z" fill="#263238"/>
<path opacity="0.3" d="M620.691 385.915C620.691 385.915 624.486 471.554 598.269 486.298H628.201C628.201 486.298 651.393 457.122 644.839 385.915H620.691Z" fill="white"/>
<path d="M512.966 474.322H629.676C634.493 474.322 638.396 477.873 638.396 482.252V492.861H504.246V482.252C504.246 477.871 508.151 474.322 512.966 474.322Z" fill="#263238"/>
<path d="M502.162 483.592H640.48C642.418 483.592 643.988 485.019 643.988 486.782V489.671C643.988 491.433 642.418 492.861 640.48 492.861H502.162C500.225 492.861 498.655 491.433 498.655 489.671V486.782C498.655 485.019 500.225 483.592 502.162 483.592Z" fill="#263238"/>
<path opacity="0.6" d="M502.162 483.592H640.48C642.418 483.592 643.988 485.019 643.988 486.782V489.671C643.988 491.433 642.418 492.861 640.48 492.861H502.162C500.225 492.861 498.655 491.433 498.655 489.671V486.782C498.655 485.019 500.225 483.592 502.162 483.592Z" fill="white"/>
<path d="M652.176 403.315H604.226C590.178 403.315 578.792 392.96 578.792 380.185V363.132C578.792 350.357 590.178 340.002 604.226 340.002H652.177C666.225 340.002 677.612 350.357 677.612 363.132V380.185C677.612 392.96 666.224 403.315 652.176 403.315Z" fill="#263238"/>
<path d="M458.761 270.025L449.193 247.075C449.193 247.075 453.297 243.621 450.482 240.117C447.667 236.614 430.008 226.754 426.788 228.487C423.569 230.219 416.422 236.755 420.287 240.381C424.15 244.006 441.258 250.058 441.258 250.058L449.722 280.169L458.761 270.025Z" fill="#E4897B"/>
<path d="M525.612 313.659C525.612 313.659 482.064 305.518 477.342 303.575C472.621 301.632 455.088 254.942 455.088 254.942L441.652 260.651C441.652 260.651 452.469 307.503 463.527 318.645C474.588 329.787 521.761 339.209 521.761 339.209L525.612 313.659Z" fill="#407BFF"/>
<path opacity="0.2" d="M521.756 339.203C521.756 339.203 521.484 339.15 520.957 339.035C518.575 338.548 511.139 336.952 502.289 334.6C487.928 330.808 469.842 325.01 463.52 318.651C452.477 307.503 441.647 260.648 441.647 260.648L455.079 254.945C455.079 254.945 472.61 301.635 477.349 303.576C482.07 305.513 525.614 313.655 525.614 313.655L521.756 339.203Z" fill="black"/>
<path d="M455.301 254.025L458.077 258.892L440.812 264.299L441.478 258.35L455.301 254.025Z" fill="#407BFF"/>
<path opacity="0.2" d="M522.089 338.563C519.672 338.246 512.122 337.179 503.099 335.458C508.243 327.381 523.31 323.227 523.31 323.227L522.089 338.563Z" fill="black"/>
<path d="M587.001 281.339C587.001 281.339 589.563 303.273 580.625 308.659C571.687 314.046 527.736 307.736 522.748 298.914C517.762 290.091 536.524 266.128 536.524 266.128L587.001 281.339Z" fill="#263238"/>
<path d="M409.13 569.962L420.599 572.475L426.403 558.077L431.673 544.981L418.611 539.914L413.588 555.807L409.13 569.962Z" fill="#E4897B"/>
<path opacity="0.2" d="M413.588 555.807L426.403 558.077L431.673 544.981L418.611 539.914L413.588 555.807Z" fill="black"/>
<path d="M414.741 548.207L430.646 553.584C430.646 553.584 473.077 457.107 481.797 456.774C490.517 456.441 579.304 493.554 601.558 472.967C623.811 452.397 591.635 402.803 591.635 402.803C591.635 402.803 538.111 395.856 534.083 406.847C533.298 408.972 532.443 413.144 531.815 416.712C531.205 420.074 530.786 422.897 530.786 422.897C530.786 422.897 530.769 422.897 530.751 422.882C529.095 422.501 475.362 409.892 454.19 422.897C432.686 436.125 414.741 548.207 414.741 548.207Z" fill="#407BFF"/>
<path opacity="0.6" d="M414.741 548.207L430.646 553.584C430.646 553.584 473.077 457.107 481.797 456.774C490.517 456.441 579.304 493.554 601.558 472.967C623.811 452.397 591.635 402.803 591.635 402.803C591.635 402.803 538.111 395.856 534.083 406.847C533.298 408.972 532.443 413.144 531.815 416.712C531.205 420.074 530.786 422.897 530.786 422.897C530.786 422.897 530.769 422.897 530.751 422.882C529.095 422.501 475.362 409.892 454.19 422.897C432.686 436.125 414.741 548.207 414.741 548.207Z" fill="white"/>
<path d="M506.226 611.118L517.652 608.455L515.453 593.548L513.413 579.873L499.281 581.026L502.95 596.959L506.226 611.118Z" fill="#E4897B"/>
<path opacity="0.2" d="M503.041 597.28L515.533 593.832L513.453 580.016L499.302 581.098L503.041 597.28Z" fill="black"/>
<path d="M437.214 548.233L414.048 541.072L413.058 549.703L430.63 555.352L437.214 548.233Z" fill="#407BFF"/>
<path d="M563.12 477.917C563.12 477.917 559.496 477.995 503.355 475.616C503.355 475.616 511.745 539.445 516.322 587.228L499.534 589.83C499.534 589.83 459.422 487.513 459.858 471.256C460.294 455 480.786 450.242 480.786 450.242C480.786 450.242 520.783 471.255 563.12 477.917Z" fill="#407BFF"/>
<path opacity="0.6" d="M563.12 477.917C563.12 477.917 559.496 477.995 503.355 475.616C503.355 475.616 511.745 539.445 516.322 587.228L499.534 589.83C499.534 589.83 459.422 487.513 459.858 471.256C460.294 455 480.786 450.242 480.786 450.242C480.786 450.242 520.783 471.255 563.12 477.917Z" fill="white"/>
<path opacity="0.1" d="M563.12 477.917C563.12 477.917 559.496 477.995 503.355 475.616C503.355 475.616 511.745 539.445 516.322 587.228L499.534 589.83C499.534 589.83 459.422 487.513 459.858 471.256C460.294 455 480.786 450.242 480.786 450.242C480.786 450.242 520.783 471.255 563.12 477.917Z" fill="black"/>
<path d="M518.777 582.597L495.704 584.983L500.155 593.208L518.833 591.031L518.777 582.597Z" fill="#407BFF"/>
<path opacity="0.1" d="M530.786 422.897L562.091 428.829C562.091 428.829 544.791 420.138 531.815 416.712C531.205 420.074 530.786 422.897 530.786 422.897Z" fill="black"/>
<path d="M590.342 395.236L591.629 402.808L534.079 406.844L532.557 397.889L590.342 395.236Z" fill="#263238"/>
<path opacity="0.2" d="M590.342 395.236L591.629 402.808L534.079 406.844L532.557 397.889L590.342 395.236Z" fill="black"/>
<path d="M572.155 407.909L574.999 407.643L573.509 394.472L570.666 394.738L572.155 407.909Z" fill="#407BFF"/>
<path d="M546.671 406.583L559.28 405.846L558.665 397.151L546.057 397.887L546.671 406.583Z" fill="white"/>
<path d="M536.903 409.33L539.747 409.064L538.257 395.895L535.414 396.161L536.903 409.33Z" fill="#407BFF"/>
<path opacity="0.6" d="M572.155 407.909L574.999 407.643L573.509 394.472L570.666 394.738L572.155 407.909Z" fill="white"/>
<path opacity="0.6" d="M536.903 409.33L539.747 409.064L538.257 395.895L535.414 396.161L536.903 409.33Z" fill="white"/>
<path d="M524.567 312.935C524.567 312.935 539.26 317.127 557.726 316.264C576.191 315.402 598.269 323.558 598.269 323.558L590.342 395.236L532.557 397.889C532.557 397.889 513.141 338.034 524.567 312.935Z" fill="#407BFF"/>
<path d="M533.851 272.459C533.851 272.459 537.1 237.65 569.093 250.298C609.252 266.174 577.318 308.571 557.7 299.867C538.082 291.163 533.851 272.459 533.851 272.459Z" fill="#263238"/>
<path opacity="0.2" d="M542.82 318.209L543.739 337.877L550.916 328.624C550.916 328.624 548.355 350.378 549.854 362.222C549.854 362.222 551.224 340.982 554.475 328.624L562.091 337.877L573.035 318.329C573.035 318.329 555.328 312.545 542.82 318.209Z" fill="black"/>
<path d="M552.729 321.868L569.273 317.617C559.079 311.237 564.219 296.971 564.219 296.971L547.83 302.211C548.706 304.683 549.257 306.785 549.588 308.579C551.301 317.876 546.685 318.618 546.685 318.618L552.729 321.868Z" fill="#E4897B"/>
<path opacity="0.2" d="M547.832 302.211C548.708 304.683 549.259 306.785 549.59 308.579C557.435 305.719 564.221 296.971 564.221 296.971L547.832 302.211Z" fill="black"/>
<path d="M558.526 257.606C544.011 254.685 537.619 260.811 533.245 274.2C527.78 290.933 528.985 303.844 548.017 303.867C573.867 303.895 582.632 262.458 558.526 257.606Z" fill="#E4897B"/>
<path d="M542.808 275.352C542.808 275.352 539.958 278.395 537.251 279.977C537.251 279.977 538.057 282.023 540.715 282.24L542.808 275.352Z" fill="#DE5753"/>
<path d="M551.955 276.061C551.664 277.139 552.068 278.158 552.859 278.334C553.649 278.51 554.528 277.78 554.819 276.702C555.11 275.623 554.705 274.605 553.915 274.427C553.125 274.25 552.248 274.981 551.955 276.061Z" fill="#263238"/>
<path d="M554.231 274.553L551.899 273.055C551.899 273.055 552.651 275.317 554.231 274.553Z" fill="#263238"/>
<path d="M537.271 272.537C536.979 273.615 537.384 274.633 538.174 274.811C538.966 274.989 539.843 274.258 540.134 273.179C540.425 272.101 540.021 271.082 539.231 270.906C538.439 270.727 537.562 271.458 537.271 272.537Z" fill="#263238"/>
<path d="M539.546 271.03L537.216 269.533C537.216 269.533 537.966 271.794 539.546 271.03Z" fill="#263238"/>
<path d="M554.32 266.975C554.32 266.975 558.516 267.314 560.129 270.237" stroke="#263238" stroke-width="0.7247" stroke-miterlimit="10" stroke-linecap="round" stroke-linejoin="round"/>
<path d="M543.905 264.293C543.905 264.293 541.55 262.913 537.857 264.213" stroke="#263238" stroke-width="0.7247" stroke-miterlimit="10" stroke-linecap="round" stroke-linejoin="round"/>
<path d="M568.976 283.047C568.976 283.047 564.829 270.837 567.895 262.67C567.895 262.67 541.732 246.195 533.851 272.461C533.851 272.461 536.777 248.319 561.857 252.815C586.898 257.305 578.752 290.487 563.459 297.784C563.459 297.784 571.524 290.674 568.976 283.047Z" fill="#263238"/>
<path d="M565.928 285.356C566.542 283.25 569.829 280.138 574.071 281.445C578.46 282.797 578.56 291.626 566.88 291.393C565.204 291.359 564.646 289.75 565.928 285.356Z" fill="#E4897B"/>
<path d="M538.118 287.255C538.633 289.001 538.87 292.16 538.87 292.16C539.189 292.192 539.508 292.224 539.827 292.241C544.161 292.576 546.292 291.429 547.342 290.057C547.912 289.304 548.151 288.473 548.246 287.786C548.364 286.995 548.249 286.405 548.249 286.405C545.835 287.475 541.768 287.447 539.597 287.347C538.688 287.315 538.118 287.255 538.118 287.255Z" fill="#263238"/>
<path d="M539.597 287.347L539.86 288.788C543.943 289.095 546.863 288.812 548.246 287.786C548.364 286.995 548.249 286.405 548.249 286.405C545.835 287.475 541.768 287.445 539.597 287.347Z" fill="white"/>
<path d="M539.827 292.24C544.161 292.574 546.292 291.428 547.342 290.056C545.862 289.994 544.067 290.068 542.449 290.551C541.21 290.917 540.394 291.564 539.827 292.24Z" fill="#DE5753"/>
<path d="M558.584 258.662C558.584 258.662 559.146 281.559 574.252 284.308C589.359 287.057 572.845 254.885 572.845 254.885C572.845 254.885 550.352 241.524 535.359 250.94C520.366 260.356 533.851 272.461 533.851 272.461C533.851 272.461 537.018 255.452 558.584 258.662Z" fill="#263238"/>
<path d="M559.105 257.149C559.105 257.149 553.722 271.623 564.353 279.222" stroke="#263238" stroke-width="0.5" stroke-miterlimit="10" stroke-linecap="round" stroke-linejoin="round"/>
<path d="M578.663 289.018C576.741 293.675 571.807 296.295 567.641 294.874C563.476 293.451 561.657 288.525 563.579 283.87C565.501 279.214 570.434 276.594 574.601 278.015C578.766 279.436 580.585 284.362 578.663 289.018Z" fill="#407BFF"/>
<path opacity="0.4" d="M578.663 289.018C576.741 293.675 571.807 296.295 567.641 294.874C563.476 293.451 561.657 288.525 563.579 283.87C565.501 279.214 570.434 276.594 574.601 278.015C578.766 279.436 580.585 284.362 578.663 289.018Z" fill="black"/>
<path d="M573.853 281.383C573.853 281.383 580.107 255.896 566.071 249.216C566.071 249.216 568.996 249.575 570.809 250.055C572.623 250.536 583.835 260.872 578.169 283.778L573.853 281.383Z" fill="#407BFF"/>
<path opacity="0.2" d="M573.853 281.383C573.853 281.383 580.107 255.896 566.071 249.216C566.071 249.216 568.996 249.575 570.809 250.055C572.623 250.536 583.835 260.872 578.169 283.778L573.853 281.383Z" fill="black"/>
<path d="M547.527 295.97C547.18 295.929 546.831 295.881 546.479 295.827L546.761 294.263C559.4 296.135 568.804 290.053 568.898 289.989L569.929 291.269C569.536 291.531 560.391 297.508 547.527 295.97Z" fill="#407BFF"/>
<g opacity="0.2">
<path d="M547.527 295.97C547.18 295.929 546.831 295.881 546.479 295.827L546.761 294.263C559.4 296.135 568.804 290.053 568.898 289.989L569.929 291.269C569.536 291.531 560.391 297.508 547.527 295.97Z" fill="black"/>
</g>
<path d="M578.073 288.381C576.802 291.459 573.541 293.191 570.787 292.252C568.033 291.312 566.831 288.056 568.101 284.977C569.372 281.899 572.634 280.167 575.387 281.106C578.141 282.046 579.343 285.302 578.073 288.381Z" fill="#407BFF"/>
<path d="M545.968 296.49L544.567 296.322C543.528 296.198 542.797 295.331 542.933 294.385C543.069 293.44 544.023 292.776 545.061 292.899L546.461 293.068C547.501 293.191 548.232 294.059 548.096 295.004C547.961 295.949 547.007 296.614 545.968 296.49Z" fill="#407BFF"/>
<path opacity="0.4" d="M545.968 296.49L544.567 296.322C543.528 296.198 542.797 295.331 542.933 294.385C543.069 293.44 544.023 292.776 545.061 292.899L546.461 293.068C547.501 293.191 548.232 294.059 548.096 295.004C547.961 295.949 547.007 296.614 545.968 296.49Z" fill="black"/>
<path d="M564.838 312.163L554.475 321.419L558.619 332.76L573.035 318.329L564.838 312.163Z" fill="#407BFF"/>
<path d="M549.854 314.098L551.53 321.222L546.163 331.296L542.82 318.209L549.854 314.098Z" fill="#407BFF"/>
<path d="M562.62 320.198L568.638 300.166C568.638 300.166 565.722 295.177 566.352 294.132C566.981 293.088 570.114 279.639 572.348 278.173C574.58 276.709 583.76 279.209 584.69 280.573C585.619 281.937 575.891 300.165 575.891 300.165L572.346 321.866L562.62 320.198Z" fill="#E4897B"/>
<path d="M598.269 323.558C614.828 338.973 581.638 373.893 562.62 372.406C543.601 370.918 563.094 307.597 563.094 307.597L575.272 309.419C575.272 309.419 571 336.822 572.346 338.973C573.696 341.122 592.704 318.377 598.269 323.558Z" fill="#407BFF"/>
<path opacity="0.2" d="M598.269 323.558C614.828 338.973 581.638 373.893 562.62 372.406C543.601 370.918 563.094 307.597 563.094 307.597L575.272 309.419C575.272 309.419 571 336.822 572.346 338.973C573.696 341.122 592.704 318.377 598.269 323.558Z" fill="black"/>
<path d="M562.093 305.572L560.29 310.801L577.259 312.163V307.597L562.093 305.572Z" fill="#407BFF"/>
<path opacity="0.6" d="M536.381 361.291H529.506C528.744 361.291 528.127 360.729 528.127 360.036V348.238C528.127 347.545 528.744 346.984 529.506 346.984H536.381C537.143 346.984 537.761 347.545 537.761 348.238V360.036C537.761 360.729 537.143 361.291 536.381 361.291Z" fill="white"/>
<path opacity="0.2" d="M536.521 347.924H528.701V357.649H536.521V347.924Z" fill="black"/>
<path d="M533.645 343.531H531.92V349.263H533.645V343.531Z" fill="#263238"/>
<path d="M390.142 590.22C391.886 589.491 393.76 589.058 395.677 588.942C395.677 588.942 402.301 585.396 408.865 571.623L416.247 571.583C418.802 571.61 421.07 573.085 421.919 575.277C422.041 575.575 422.111 575.889 422.128 576.207C422.053 577.829 421.865 579.445 421.561 581.045C420.897 586.067 417.245 596.84 417.245 596.84L415.995 596.55L418.269 586.533C419.026 583.129 415.093 586.417 413.269 589.849C411.444 593.281 408.647 596.736 400.494 595.04C390.993 593.018 387.163 591.775 390.142 590.22Z" fill="#407BFF"/>
<path d="M410.201 568.013C410.201 568.013 400.984 585.556 395.675 588.941C395.675 588.941 402.791 592.799 410.201 584.211C419.783 573.104 422.126 576.207 422.126 576.207C422.126 576.207 421.72 572.407 420.972 570.546C419.535 566.962 410.201 568.013 410.201 568.013Z" fill="#E4897B"/>
<path d="M491.679 632.016C493.182 630.932 494.891 630.105 496.723 629.58C496.723 629.58 502.232 624.706 505.019 609.911L512.18 608.28C514.67 607.755 517.255 608.701 518.652 610.647C518.847 610.91 518.997 611.2 519.096 611.505C519.447 613.097 519.684 614.707 519.806 616.328C520.471 621.349 519.733 632.603 519.733 632.603L518.442 632.592L518.039 622.37C517.886 618.9 514.923 622.943 514.046 626.67C513.169 630.397 511.351 634.357 502.989 634.468C493.236 634.551 489.192 634.167 491.679 632.016Z" fill="#407BFF"/>
<path d="M505.376 606.115C505.376 606.115 500.995 625.146 496.723 629.579C496.723 629.579 504.642 631.793 509.6 621.852C516.011 608.995 519.098 611.503 519.098 611.503C519.098 611.503 517.713 607.898 516.501 606.252C514.168 603.081 505.376 606.115 505.376 606.115Z" fill="#E4897B"/>
<path d="M667.533 261.999H606.64C601.762 261.999 597.807 258.402 597.807 253.966V230.27C597.807 225.834 601.762 222.237 606.64 222.237H667.533C672.411 222.237 676.367 225.834 676.367 230.27V253.966C676.367 258.402 672.411 261.999 667.533 261.999Z" fill="#407BFF"/>
<path d="M618.86 257.467L600.515 280.143L630.112 258.988L618.86 257.467Z" fill="#407BFF"/>
<path d="M619.546 242.117C619.546 243.41 618.395 244.457 616.973 244.457C615.552 244.457 614.401 243.408 614.401 242.117C614.401 240.825 615.552 239.778 616.973 239.778C618.393 239.778 619.546 240.825 619.546 242.117Z" fill="white"/>
<path d="M632.955 242.117C632.955 243.41 631.802 244.457 630.383 244.457C628.963 244.457 627.81 243.408 627.81 242.117C627.81 240.825 628.963 239.778 630.383 239.778C631.802 239.778 632.955 240.825 632.955 242.117Z" fill="white"/>
<path d="M646.365 242.117C646.365 243.41 645.214 244.457 643.792 244.457C642.371 244.457 641.22 243.408 641.22 242.117C641.22 240.825 642.373 239.778 643.792 239.778C645.214 239.778 646.365 240.825 646.365 242.117Z" fill="white"/>
<path d="M659.774 242.117C659.774 243.41 658.622 244.457 657.202 244.457C655.781 244.457 654.63 243.408 654.63 242.117C654.63 240.825 655.781 239.778 657.202 239.778C658.623 239.778 659.774 240.825 659.774 242.117Z" fill="white"/>
<path d="M422.8 230.733L379.374 209.463C378.2 208.887 377.761 207.557 378.394 206.488L392.243 183.102C392.876 182.035 394.339 181.635 395.515 182.209L438.94 203.479C440.114 204.055 440.554 205.385 439.922 206.454L426.073 229.84C425.438 230.907 423.973 231.307 422.8 230.733Z" fill="#407BFF"/>
<path opacity="0.7" d="M422.8 230.733L379.374 209.463C378.2 208.887 377.761 207.557 378.394 206.488L392.243 183.102C392.876 182.035 394.339 181.635 395.515 182.209L438.94 203.479C440.114 204.055 440.554 205.385 439.922 206.454L426.073 229.84C425.438 230.907 423.973 231.307 422.8 230.733Z" fill="white"/>
<path opacity="0.2" d="M391.097 185.036L404.683 208.107C405.742 209.904 407.883 210.944 410.114 210.743L438.391 208.201L409.606 212.055C407.025 212.4 404.502 211.163 403.398 209.014L391.097 185.036Z" fill="black"/>
<path d="M358.116 180.737C358.579 171.913 365.76 154.134 374.5 148.697C383.239 143.259 377.489 150.789 377.489 150.789C377.489 150.789 385.768 143.47 390.138 143.679C394.509 143.888 390.138 148.489 390.138 148.489C390.138 148.489 399.107 143.462 403.248 143.674C407.388 143.888 403.248 148.28 403.248 148.28C403.248 148.28 410.607 143.47 413.597 145.771C416.586 148.072 375.42 172.75 370.821 182.79C366.221 192.826 357.649 189.668 358.116 180.737Z" fill="#407BFF"/>
<path opacity="0.4" d="M358.116 180.737C358.579 171.913 365.76 154.134 374.5 148.697C383.239 143.259 377.489 150.789 377.489 150.789C377.489 150.789 385.768 143.47 390.138 143.679C394.509 143.888 390.138 148.489 390.138 148.489C390.138 148.489 399.107 143.462 403.248 143.674C407.388 143.888 403.248 148.28 403.248 148.28C403.248 148.28 410.607 143.47 413.597 145.771C416.586 148.072 375.42 172.75 370.821 182.79C366.221 192.826 357.649 189.668 358.116 180.737Z" fill="white"/>
<path d="M393.473 179.435L398.971 182.637C399.367 182.867 399.162 183.426 398.692 183.392L392.916 182.983L393.413 187.015C393.467 187.453 392.869 187.694 392.548 187.364L389.217 183.933L393.473 179.435Z" fill="#407BFF"/>
<path opacity="0.3" d="M393.473 179.435L398.971 182.637C399.367 182.867 399.162 183.426 398.692 183.392L392.916 182.983L393.413 187.015C393.467 187.453 392.869 187.694 392.548 187.364L389.217 183.933L393.473 179.435Z" fill="white"/>
<path d="M316.316 159.575C316.316 159.575 323.906 154.762 335.404 157.899C335.404 157.899 338.711 171.702 347.752 176.303C352.717 178.83 364.881 178.612 374.501 175.78C385.926 172.416 391.519 172.416 393.589 176.303C395.55 179.984 393.359 184.25 384.62 186.133C375.881 188.016 368.982 201.819 353.113 202.028C337.244 202.237 328.892 187.768 332.876 175.048C332.876 175.048 328.045 165.567 316.316 159.575Z" fill="#407BFF"/>
<path opacity="0.5" d="M316.316 159.575C316.316 159.575 323.906 154.762 335.404 157.899C335.404 157.899 338.711 171.702 347.752 176.303C352.717 178.83 364.881 178.612 374.501 175.78C385.926 172.416 391.519 172.416 393.589 176.303C395.55 179.984 393.359 184.25 384.62 186.133C375.881 188.016 368.982 201.819 353.113 202.028C337.244 202.237 328.892 187.768 332.876 175.048C332.876 175.048 328.045 165.567 316.316 159.575Z" fill="white"/>
<path d="M389.219 178.918C389.219 179.308 388.872 179.624 388.443 179.624C388.014 179.624 387.667 179.308 387.667 178.918C387.667 178.528 388.014 178.213 388.443 178.213C388.872 178.213 389.219 178.528 389.219 178.918Z" fill="#263238"/>
<path d="M349.43 190.534C340.057 192.858 319.246 192.133 310.861 186.252C302.476 180.371 312.125 183.02 312.125 183.02C312.125 183.02 301.914 178.117 300.784 174.273C299.654 170.428 305.816 172.788 305.816 172.788C305.816 172.788 297.788 166.582 296.733 162.936C295.678 159.29 301.55 161.515 301.55 161.515C301.55 161.515 294.248 156.633 295.73 153.338C297.212 150.042 335.732 178.033 347.652 178.912C359.573 179.794 358.915 188.182 349.43 190.534Z" fill="#407BFF"/>
<path opacity="0.4" d="M349.43 190.534C340.057 192.858 319.246 192.133 310.861 186.252C302.476 180.371 312.125 183.02 312.125 183.02C312.125 183.02 301.914 178.117 300.784 174.273C299.654 170.428 305.816 172.788 305.816 172.788C305.816 172.788 297.788 166.582 296.733 162.936C295.678 159.29 301.55 161.515 301.55 161.515C301.55 161.515 294.248 156.633 295.73 153.338C297.212 150.042 335.732 178.033 347.652 178.912C359.573 179.794 358.915 188.182 349.43 190.534Z" fill="white"/>
<path d="M288.044 151.36C286.405 150.829 284.746 150.334 283.074 149.872" stroke="#407BFF" stroke-width="0.75" stroke-linecap="round" stroke-linejoin="round"/>
<path d="M272.878 147.508C266.766 146.343 260.552 145.589 254.38 145.198C237.423 144.125 210.841 142.597 200.454 157.964C190.989 171.967 207.273 195.858 213.052 208.859C220.131 224.781 228.548 244.469 220.183 261.325C202.995 295.962 129.415 277.977 104.595 246.076" stroke="#407BFF" stroke-width="0.75" stroke-linecap="round" stroke-linejoin="round" stroke-dasharray="6.03 6.03"/>
<path d="M101.773 242.047C100.899 240.649 100.121 239.228 99.4464 237.787" stroke="#407BFF" stroke-width="0.75" stroke-linecap="round" stroke-linejoin="round"/>
<path d="M313.585 367.981H247.386V380.328H313.585V367.981Z" fill="white"/>
<path opacity="0.1" d="M313.585 367.981H247.386V380.328H313.585V367.981Z" fill="black"/>
<path opacity="0.1" d="M275.268 367.981H247.386V380.328H275.268V367.981Z" fill="black"/>
<path opacity="0.1" d="M247.386 369.759H306.314L247.386 371.275V369.759Z" fill="black"/>
<path opacity="0.1" d="M313.585 371.903L262.503 373.053H313.585V371.903Z" fill="black"/>
<path opacity="0.1" d="M250.084 375.354L275.268 374.412L312.293 375.354L275.268 375.876L250.084 375.354Z" fill="black"/>
<path opacity="0.1" d="M247.386 377.968H291.021L247.386 378.908V377.968Z" fill="black"/>
<path opacity="0.1" d="M313.491 378.908L284.35 379.4H313.585L313.491 378.908Z" fill="black"/>
<path d="M304.372 355.634H238.173V367.981H304.372V355.634Z" fill="white"/>
<path opacity="0.1" d="M304.372 355.634H238.173V367.981H304.372V355.634Z" fill="black"/>
<path opacity="0.1" d="M266.054 355.634H238.173V367.981H266.054V355.634Z" fill="black"/>
<path opacity="0.1" d="M238.173 357.412H297.101L238.173 358.928V357.412Z" fill="black"/>
<path opacity="0.1" d="M304.373 359.556L253.29 360.706H304.373V359.556Z" fill="black"/>
<path opacity="0.1" d="M240.873 363.007L266.054 362.065L303.081 363.007L266.054 363.529L240.873 363.007Z" fill="black"/>
<path opacity="0.1" d="M238.173 365.621H281.808L238.173 366.561V365.621Z" fill="black"/>
<path opacity="0.1" d="M304.277 366.561L275.139 367.053H304.373L304.277 366.561Z" fill="black"/>
<path d="M311.93 343.287H245.731V355.634H311.93V343.287Z" fill="white"/>
<path opacity="0.1" d="M311.93 343.287H245.731V355.634H311.93V343.287Z" fill="black"/>
<path opacity="0.1" d="M273.613 343.287H245.731V355.634H273.613V343.287Z" fill="black"/>
<path opacity="0.1" d="M245.731 345.064H304.659L245.731 346.581V345.064Z" fill="black"/>
<path opacity="0.1" d="M311.932 347.209L260.848 348.359H311.932V347.209Z" fill="black"/>
<path opacity="0.1" d="M248.431 350.658L273.613 349.718L310.64 350.658L273.613 351.182L248.431 350.658Z" fill="black"/>
<path opacity="0.1" d="M245.731 353.274H289.366L245.731 354.214V353.274Z" fill="black"/>
<path opacity="0.1" d="M311.836 354.214L282.697 354.706H311.932L311.836 354.214Z" fill="black"/>
<path d="M356.031 380.069L357.752 374.153H428.475L461.042 377.111L462.28 380.069H356.031Z" fill="#263238"/>
<path opacity="0.4" d="M428.475 374.153V380.069H356.031L357.752 374.153H428.475Z" fill="black"/>
<path d="M414.266 345.835C414.58 348.96 412.069 351.497 408.651 351.497H300.313C296.878 351.497 293.843 348.96 293.529 345.835L287.094 282.76C287.024 282.11 287.076 281.491 287.233 280.92C287.844 278.7 289.989 277.098 292.709 277.098H401.047C404.482 277.098 407.517 279.636 407.831 282.76L414.266 345.835Z" fill="#263238"/>
<path opacity="0.4" d="M408.269 351.497H300.315C296.879 351.497 293.845 348.96 293.531 345.835L287.096 282.76C287.026 282.11 287.078 281.491 287.235 280.92H395.189C398.607 280.92 401.641 283.458 401.973 286.582L408.408 349.658C408.478 350.308 408.424 350.926 408.269 351.497Z" fill="black"/>
<path d="M333.838 312.812H356.25L350.275 371.165L385.717 376.004V380.069H311.074V376.004L326.365 371.165L333.838 312.812Z" fill="#263238"/>
<path opacity="0.1" d="M356.25 312.812L339.646 379.141L326.365 378.783L333.838 312.812H356.25Z" fill="white"/>
<path d="M356.147 634.476H345.464L326.267 391.426H340.443L356.147 634.476Z" fill="#263238"/>
<path opacity="0.4" d="M356.154 634.476H345.464L327.204 403.499L326.262 391.818H340.441L341.208 403.499L356.154 634.476Z" fill="white"/>
<path opacity="0.2" d="M341.208 402.92H327.204L326.262 391.818H340.441L341.208 402.92Z" fill="black"/>
<path d="M434.556 634.476H423.872L422.128 391.426H436.302L434.556 634.476Z" fill="#263238"/>
<path opacity="0.5" d="M436.309 391.818L436.03 431.032L434.565 634.476H423.874L422.409 431.032L422.13 391.818H436.309Z" fill="white"/>
<path opacity="0.2" d="M436.309 391.818L436.03 431.468H422.409L422.13 391.818H436.309Z" fill="black"/>
<path d="M547.987 634.476H537.304L518.107 391.426H532.283L547.987 634.476Z" fill="#263238"/>
<path opacity="0.5" d="M547.994 634.476H537.304L519.044 403.499L518.102 391.818H532.281L533.048 403.499L547.994 634.476Z" fill="white"/>
<path opacity="0.2" d="M533.048 402.92H519.044L518.102 391.818H532.281L533.048 402.92Z" fill="black"/>
<path d="M233.926 634.476H223.241L238.947 391.426H253.121L233.926 634.476Z" fill="#263238"/>
<path opacity="0.5" d="M253.119 391.818L252.177 403.499L233.917 634.476H223.244L238.173 403.499L238.94 391.818H253.119Z" fill="white"/>
<path opacity="0.2" d="M238.94 391.818H253.119L252.177 402.92H238.173L238.94 391.818Z" fill="black"/>
<path d="M539.747 397.514H231.483C229.401 397.514 227.712 395.978 227.712 394.085V385.339H543.518V394.083C543.518 395.978 541.829 397.514 539.747 397.514Z" fill="#407BFF"/>
<path opacity="0.6" d="M539.747 397.514H231.483C229.401 397.514 227.712 395.978 227.712 394.085V385.339H543.518V394.083C543.518 395.978 541.829 397.514 539.747 397.514Z" fill="white"/>
<path opacity="0.2" d="M543.518 385.339H227.712V391.426H543.518V385.339Z" fill="black"/>
<path d="M550.14 386.927H221.09C219.008 386.927 217.32 385.392 217.32 383.498C217.32 381.604 219.008 380.069 221.09 380.069H550.141C552.224 380.069 553.912 381.604 553.912 383.498C553.91 385.392 552.222 386.927 550.14 386.927Z" fill="#407BFF"/>
<path opacity="0.6" d="M550.14 386.927H221.09C219.008 386.927 217.32 385.392 217.32 383.498C217.32 381.604 219.008 380.069 221.09 380.069H550.141C552.224 380.069 553.912 381.604 553.912 383.498C553.91 385.392 552.222 386.927 550.14 386.927Z" fill="white"/>
<path d="M472.286 369.505L476.339 363.987C477.146 362.886 478.505 362.227 479.961 362.227H485.094C485.521 362.227 485.948 362.284 486.356 362.396L504.647 367.438C505.687 367.725 506.573 368.355 507.127 369.203L509.752 373.216L472.286 369.505Z" fill="#407BFF"/>
<path opacity="0.2" d="M509.752 373.218L483.121 370.585L472.291 369.506L476.337 363.987C477.139 362.893 478.5 362.227 479.965 362.227H485.092C485.528 362.227 485.946 362.29 486.365 362.401L486.766 362.512L504.642 367.445C505.689 367.73 506.578 368.349 507.136 369.205L509.752 373.218Z" fill="black"/>
<path opacity="0.2" d="M509.752 373.218L483.121 370.585L486.766 362.512L504.642 367.445C505.689 367.73 506.578 368.349 507.136 369.205L509.752 373.218Z" fill="black"/>
<path d="M522.412 379.544V380.068H499.199H465.871L467.964 372.629C468.784 369.838 471.574 367.887 474.748 367.887H499.827C500.664 367.887 501.484 368.014 502.268 368.284L505.408 369.346L517.86 373.565C520.6 374.502 522.412 376.881 522.412 379.544Z" fill="#407BFF"/>
<path opacity="0.2" d="M522.412 379.544V380.068H499.199L500.437 372.026C500.769 369.901 503.193 368.601 505.408 369.346L517.86 373.565C520.6 374.502 522.412 376.881 522.412 379.544Z" fill="black"/>
<path d="M502.814 374.602L510.199 354.447C510.518 353.577 511.615 353.172 512.511 353.592C513.195 353.913 513.542 354.623 513.346 355.299L507.127 376.816C507.127 376.816 502.987 378.339 502.814 374.602Z" fill="#263238"/>
<path opacity="0.2" d="M472.286 378.394H469.009L469.64 375.467H472.917L472.286 378.394Z" fill="black"/>
<path opacity="0.2" d="M477.172 378.28H473.895L474.527 375.352H477.805L477.172 378.28Z" fill="black"/>
</g>
</svg>
