<svg version="1.2" xmlns="http://www.w3.org/2000/svg" viewBox="0 0 1114 252" width="221" height="50">
	<title>96550_BorrowBe_FLAT_DT_KC_10-svg</title>
	<style>
		.s0 { fill: #23d1fb } 
		.s1 { fill: #333541 } 
	</style>
	<g id="Layer">
		<g id="Layer">
			<path id="Layer" class="s0" d="m1050.9 0.8h-316.9v25 2.9 109.8h0.1q1.4 23.9 19 40.6c10.8 10.1 25.1 16.1 40 16.5q26.1 0.6 44.4-17.8 17.8-17.7 17.8-43 0-25-17.8-42.7-17.7-17.8-42.8-17.8v28.5q13.2 0 22.7 9.4 9.4 9.5 9.4 22.6 0 13.3-9.4 22.9-9.5 9.3-22.7 9.3-13.3 0-22.8-9.3-9.3-9.6-9.3-22.9v-106.1h271.1l48.9 97.4-48.9 97.4h-299.7v27.8h316.9l3.9-7.7 58.9-117.5z"/>
			<path id="Layer" fill-rule="evenodd" class="s0" d="m991.8 149.2h-89.5q8.9 17.8 28.9 17.8h32v28.6h-35.6v-0.2q-24-1.3-40.6-19c-10.2-10.7-16.2-25.1-16.5-39.9q-0.6-26.1 17.8-44.4 17.7-17.8 42.9-17.8 25.1 0 42.8 17.8 17.8 17.7 17.8 42.7zm-31.9-28.5q-8.9-17.8-28.7-17.8-19.9 0-28.9 17.8z"/>
		</g>
		<path id="Layer" class="s0" d="m1056.5 121.4c3.4 14.9-9.7 27.9-24.6 24.6-7.5-1.6-13.6-7.7-15.3-15.3-3.3-14.9 9.7-27.9 24.7-24.6 7.5 1.7 13.6 7.7 15.2 15.3z"/>
		<g id="Layer">
			<path id="Layer" fill-rule="evenodd" class="s1" d="m250.6 113.5q4.3 10.2 4.3 21.4 0 23.5-17.4 40-18.2 17.2-42.8 17.2-25 0-42.7-17.2-8.9-8.3-13.2-18.6-4.3-10.3-4.3-21.4 0-11.2 4.3-21.4 4.3-10.1 13.2-18.6 17.5-17.1 42.7-17.1 24.7 0 42.8 17 8.8 8.5 13.1 18.7zm-25.1 21.4q0-7.4-3.7-14.5-3.7-7-10.7-11.6-7-4.5-16.4-4.5-9.4 0-16.4 4.5-7 4.4-10.7 11.5-3.7 7.1-3.7 14.6 0 7.6 3.7 14.7 3.7 7 10.7 11.5 7 4.5 16.4 4.5 9.4 0 16.4-4.5 7-4.5 10.7-11.6 3.7-7.1 3.7-14.6z"/>
			<path id="Layer" class="s1" d="m704.4 74.2l-62.9 121.4-1.1-2-39.4-75.6 12.9-24.9 3.3-6.4 23.2 44.4 1.1 2 28.3-54.5 2.3-4.4z"/>
			<path id="Layer" class="s1" d="m584.8 106.5c-2.9-5.5-6.6-10.8-11.1-15.1q-0.1-0.1-0.1-0.1c-10.8-10.3-23.5-15.9-37.9-16.9q-2.4-0.1-4.9-0.2-2.4 0.1-4.8 0.2c-14.8 1-27.4 6.7-37.9 17q-8.9 8.5-13.2 18.6-4.2 10.2-4.2 21.4c0 7.4 1.4 14.5 4.2 21.4 2.9 6.8 7.3 13 13.2 18.6 11.8 11.4 26.1 17.1 42.7 17.1q25.9 0 44.7-19 0 0 0 0l-3.8-7.2-11.5-22.1c-0.6 2-1.3 3.9-2.3 5.8-2.5 4.7-6.1 8.6-10.8 11.6q-6.9 4.4-16.3 4.4-9.5 0-16.4-4.4c-4.7-3-8.2-6.9-10.7-11.6q-3.7-7-3.6-14.6-0.1-7.6 3.6-14.6c2.5-4.8 6-8.6 10.7-11.6q6.9-4.5 16.4-4.5 5.2 0 9.6 1.5c1.4 0.4 2.6 0.9 3.9 1.5q1.5 0.7 2.8 1.6c4.1 2.6 7.3 5.9 9.7 9.8l0.1 0.1 2.1 4 22.4 43.1 16.3 31.3 1.1 2 16.1-31.3-27.8-53.4z"/>
			<path id="Layer" class="s1" d="m120.4 134.9q0 23.5-17.4 40-18.1 17.2-42.7 17.2-25 0-42.8-17.2c-5.9-5.5-10.3-11.8-13.1-18.6q-4.3-10.3-4.3-21.4v-134.1h29.3v85l0.1 48.8v0.3q0 7.6 3.6 14.7c2.5 4.7 6 8.5 10.7 11.5q7 4.5 16.5 4.5 9.3 0 16.3-4.5c4.7-3 8.2-6.9 10.7-11.6q3.8-7.1 3.7-14.6 0.1-7.4-3.7-14.5-3.7-7.1-10.7-11.6-6.5-4.2-15-4.5v-26.5q23.9 0.5 41.4 17c5.9 5.6 10.3 11.9 13.2 18.7 2.8 6.8 4.2 13.9 4.2 21.4z"/>
			<path id="Layer" class="s1" d="m303.2 192.1h-31.3v-114.3h7.6l10.3 13.5q7.6-6.4 17.2-9.8 9.6-3.5 20-3.5h27.6v29h-27.6q-5 0-9.3 1.7-4.4 1.7-7.6 4.7-3.2 3-5 7.1-1.9 4-1.9 8.6z"/>
			<path id="Layer" class="s1" d="m409.1 192.1h-31.3v-114.3h7.6l10.3 13.5q7.6-6.4 17.2-9.8 9.7-3.5 20-3.5h27.6v29h-27.6q-5 0-9.3 1.7-4.4 1.7-7.6 4.7-3.2 3-5 7.1-1.9 4-1.9 8.6c0 0 0 63 0 63z"/>
		</g>
	</g>
</svg>