<svg version="1.2" xmlns="http://www.w3.org/2000/svg" viewBox="0 0 1500 366" width="1500" height="366">
	<title>100952_Modification_DT_AC_01-svg</title>
	<style>
		.s0 { fill: #23d1fb } 
		.s1 { fill: #070707 } 
	</style>
	<g id="Layer">
		<g id="Layer">
			<g id="Layer">
				<g id="Layer_25_">
					<g id="Layer_34_">
						<path id="Layer" class="s0" d="m1414.6 0.2h-426.6v34 3.7 147.4c1.4 21.4 9.7 39.6 25.6 54.4 14.4 13.5 34 21.9 54 22.4 23.3 0.4 43.3-7.5 59.6-23.8 15.9-15.8 23.8-35.3 23.8-57.6q0-33.5-23.8-57.2c-15.8-15.8-34.9-23.7-57.7-23.7v38.1q17.4 0 30.7 12.5c8.4 8.4 12.6 18.6 12.6 30.3q0 18.1-12.6 30.7-12.6 12.5-30.7 12.5-18.2 0-30.8-12.5-12.5-13.3-12.5-30.7v-142.8h365.1l66.1 131.1-65.6 131.2h-403.8v37.2h426.6l5.6-10.2 79.2-158.2z"/>
						<path id="Layer_35_" fill-rule="evenodd" class="s0" d="m1335.4 200.2h-120.6q11.9 23.7 39.1 23.7h43.3v38.6h-47.9v-0.4c-21.5-1.4-39.6-9.8-54.5-25.6-13.5-14.4-21.9-34-22.4-53.5-0.5-23.3 7.5-43.2 23.8-59.5 15.8-15.8 34.9-23.7 57.7-23.7 22.4 0 41.9 7.9 57.8 23.7q23.7 23.7 23.7 57.2zm-43.3-38.6c-7.9-15.8-21-23.7-38.7-23.7q-26.5 0-39.1 23.7z"/>
					</g>
					<path id="Layer_33_" class="s0" d="m1422.5 162.5c4.7 20-13 37.7-33.1 33.1-10.2-2.4-18.1-10.3-20.4-20.5-4.7-20 13-37.7 33-33 9.8 2.3 18.2 10.2 20.5 20.4z"/>
					<g id="Layer_26_">
						<path id="Layer_32_" fill-rule="evenodd" class="s1" d="m336.8 151.8c3.8 9.3 5.6 18.6 5.6 28.9 0 20.9-7.9 39-23.3 53.9-16.3 15.4-35.4 23.3-57.7 23.3-22.4 0-41.5-7.9-57.3-23.3-7.9-7.4-14-15.8-17.7-25.1-3.7-9.3-5.6-18.6-5.6-28.8 0-10.3 1.9-19.6 5.6-28.9 3.7-8.8 9.8-17.2 17.7-25.1 15.8-15.3 34.9-22.8 57.3-22.8 22.3 0 41.4 7.5 57.7 22.8 8 7.9 14 16.3 17.7 25.1zm-33.5 28.9c0-6.5-1.9-13-5.1-19.6-3.3-6-7.9-11.1-14.5-15.3-6-4.2-13.5-6-21.9-6-8.3 0-15.8 1.8-21.8 6-6.1 3.7-11.2 9.3-14.5 15.3-3.2 6.6-5.1 13.1-5.1 19.6 0 7 1.9 13.5 5.1 20 3.3 6 7.9 11.6 14.5 15.3 6 4.2 13.5 6.1 21.8 6.1 8.4 0 15.9-1.9 21.9-6.1 6.1-4.2 11.2-9.3 14.5-15.8 3.2-6 5.1-12.5 5.1-19.5z"/>
						<path id="Layer_31_" class="s1" d="m947.9 99.3l-84.8 163.2-1.4-2.8-53.1-101.8 17.3-33.5 4.6-8.8 31.2 59.5 1.4 2.8 38.2-73.5 3.3-6h43.3z"/>
						<path id="Layer_30_" class="s1" d="m787.2 142.5c-3.7-7.4-8.8-14.4-14.9-20.4-14.4-14-31.7-21.4-51.2-22.8-2.3 0-4.2 0-6.5-0.5-2.4 0-4.2 0-6.6 0.5-20 1.4-36.8 8.8-51.2 22.8-7.9 7.4-14 15.8-17.7 25.1-3.7 9.3-5.6 18.6-5.6 28.8 0 9.8 1.9 19.6 5.6 28.9 3.7 9.3 9.8 17.6 17.7 25.1 15.8 15.3 34.9 22.8 57.3 22.8 23.3 0 43.3-8.4 60.1-25.6l-5.1-9.8-15.4-29.7c-0.9 2.7-1.9 5.1-3.3 7.9-3.2 6.5-8.4 11.6-14.4 15.8-6.1 3.7-13.5 6-21.9 6-8.4 0-15.8-1.8-21.9-6-6.5-4.2-11.2-9.3-14.4-15.8-3.3-6.1-5.2-13.1-4.7-19.6 0-7 1.4-13.5 4.7-19.5 3.2-6.5 7.9-11.6 14.4-15.8 6.1-4.2 13.5-6.1 21.9-6.1 4.7 0 8.8 0.5 13 1.9 1.9 0.5 3.8 1.4 5.2 1.9 1.4 0.4 2.8 1.4 3.7 2.3 5.6 3.7 9.8 7.9 13 13l2.8 5.6 30.3 58.1 21.9 42.3 1.4 2.8 21.9-42.3-37.3-71.6z"/>
						<path id="Layer_29_" class="s1" d="m161.7 180.7c0 20.9-7.9 39-23.3 53.9-16.3 15.4-35.4 23.3-57.3 23.3-22.3 0-41.4-7.9-57.7-23.3-7.9-7.4-14-15.8-17.7-25.1-3.7-9.3-5.6-18.6-5.6-28.8v-180.5h39.6v114.4 65.6 0.5c0 7 1.4 13.5 4.6 20 3.3 6.5 8 11.6 14.5 15.3 6 4.2 13.5 6.1 22.3 6.1 8.4 0 15.9-1.9 21.9-6.1 6.5-4.2 11.2-9.3 14.5-15.8 3.2-6.5 5.1-13 5.1-19.5 0-6.5-1.4-13-5.1-19.6-3.3-6.5-8-11.6-14.5-15.8-6-3.7-12.5-5.5-20-6v-35.4c21.4 0.5 40.1 7.9 55.9 22.8 7.9 7.5 14 15.8 17.7 25.1 3.2 9.3 5.1 19.1 5.1 28.9z"/>
						<path id="Layer_28_" class="s1" d="m407.6 257.9h-42.4v-154h10.3l14 18.2c7-5.6 14.4-10.3 23.3-13 8.8-3.3 17.7-4.7 27-4.7h37.2v39.1h-37.2c-4.7 0-8.9 0.9-12.6 2.3-3.7 1.4-7.5 3.7-10.3 6.5-2.7 2.8-5.1 6.1-6.5 9.8-1.8 3.7-2.3 7.4-2.3 11.6v84.2z"/>
						<path id="Layer_27_" class="s1" d="m550.6 257.9h-42.4v-154h10.3l14 18.2c6.9-5.6 14.4-10.3 23.2-13 8.9-3.3 17.7-4.7 27.1-4.7h37.2v39.1h-37.2c-4.7 0-8.9 0.9-12.6 2.3-3.7 1.4-7.5 3.7-10.3 6.5-2.8 2.8-5.1 6.1-6.5 9.8-1.8 3.7-2.3 7.4-2.3 11.6v84.2z"/>
					</g>
				</g>
				<g id="Layer">
					<path id="Layer" class="s1" d="m70.9 344.8v-50.7c0-2.7-0.5-5.5-1.4-7.9-0.9-2.3-2.3-4.6-4.2-6.5-1.9-1.8-4.2-3.2-6.5-4.2-2.4-0.9-5.1-1.4-7.9-1.4-2.4 0-5.2 0.5-7.5 1.4-2.3 1-4.6 2.4-6.5 3.8l-0.9 0.9-1-0.9c-1.8-1.9-4.2-2.8-6.5-3.8-2.3-0.9-4.7-1.4-7.4-1.4-2.8 0-5.6 0.5-8 1.4-2.3 1-4.6 2.4-6.5 4.2-1.8 1.9-3.2 4.2-4.2 6.5-0.9 2.4-1.4 5.2-1.4 7.9v50.7h12.1v-50.7c0-1.4 0-2.3 0.5-3.2 0.5-0.9 0.9-1.9 1.9-2.8 0.9-0.9 1.8-1.4 2.8-1.9 0.9-0.4 2.3-0.4 3.2-0.4 1.4 0 2.3 0 3.3 0.4 0.9 0.5 1.8 1 2.8 1.9 0.9 0.9 1.4 1.9 1.8 2.8 0.5 0.9 0.5 2.3 0.5 3.2v50.7h12.1v-50.7c0-1.4 0-2.3 0.5-3.2 0.4-0.9 0.9-1.9 1.8-2.8 1-0.9 1.9-1.4 2.8-1.9 1-0.4 2.4-0.4 3.3-0.4 1.4 0 2.3 0 3.3 0.4 0.9 0.5 1.8 1 2.7 1.9 1 0.9 1.4 1.9 1.9 2.8 0.5 0.9 0.5 2.3 0.5 3.2v50.7z"/>
					<path id="Layer" fill-rule="evenodd" class="s1" d="m161.2 300.2l6.1-7h1.4v50.7h-1.4l-5.6-7.9-0.9 0.9c-1.4 1.4-2.8 2.4-4.2 3.3-1.4 1.4-3.3 1.8-4.7 2.8-1.4 0.9-3.2 1.4-4.6 1.8-1.4 0.5-2.8 0.5-4.7 0.5-3.7 0-7-0.5-10.2-1.9-3.3-0.9-6.1-2.8-8.4-5.1q-3.5-3.5-5.6-8.3c-0.9-3.3-1.9-7.5-1.9-11.7 0-4.2 0.5-7.9 1.9-11.1 1.4-3.8 3.3-6.5 5.6-8.9q3.5-3.5 8.4-5.6c3.2-1.3 6.5-1.8 10.2-1.8 1.9 0 3.7 0 5.1 0.5 1.4 0.4 3.3 0.9 4.7 1.8 1.9 0.9 3.3 1.9 4.7 2.8 1.4 0.9 2.7 1.9 4.1 3.3zm-2.7 18.1c0-2.3-0.5-4.2-1.4-6-1-1.9-1.9-3.8-3.3-5.2-1.4-1.8-2.8-2.8-4.7-3.7-1.8-0.9-4.2-1.4-6-1.4-1.9 0-3.7 0-5.6 1-1.9 0.9-3.3 1.8-4.7 3.2-1.4 1.4-2.3 3.3-3.2 5.1-0.5 2.3-1 4.2-1 7 0 2.8 0 5.1 1 7 0.9 1.8 1.8 3.7 3.2 5.1 1.4 1.4 2.8 2.3 4.7 3.2 1.4 0.5 3.7 1 5.6 1 2.3 0 4.2-0.5 6-1.4 1.9-1 3.3-2.3 4.7-3.7 1.4-1.4 2.3-3.3 3.3-5.2 0.9-1.8 1.4-3.7 1.4-6z"/>
					<path id="Layer" class="s1" d="m233 295.1c-2.8 0.9-5.2 2.3-7 4.6l-0.9 1-5.2-7h-1.4v51.6h11.2v-28.4c0-1.4 0.5-3.2 0.9-4.6 0.5-1.4 1.4-2.8 2.4-3.7 0.9-1 2.3-1.9 3.7-2.4 1.4-0.4 2.8-0.9 4.7-0.9h11.1v-11.2h-11.1c-3.3-0.9-6.1-0.4-8.4 1z"/>
					<path id="Layer" class="s1" d="m342.9 293.2h-12.6l-22.3 28.8v-50.2h-11.7v73h11.7v-6l10.7-14.4 11.6 20.4h13.1l-17.3-30.2z"/>
					<path id="Layer" fill-rule="evenodd" class="s1" d="m406.2 333.2c0.5 0.5 1.4 0.5 1.9 0.5 0.9 0 1.4 0 1.9 0 1.4 0 2.8 0 4.2-0.5 1.3-0.5 2.3-0.9 3.7-1.9 1.4-0.9 2.3-1.8 3.2-2.7 0.5-0.5 1-1 1.4-1.9l8 8.4c-1.4 1.4-2.4 2.8-3.8 3.7-1.4 1.4-3.2 2.8-5.1 3.7-1.9 0.9-4.2 1.9-6.1 2.3-2.3 0.5-4.1 1-6.5 1-3.7 0-7-0.5-10.2-1.9q-4.9-2.1-8.4-5.6c-2.3-2.8-4.2-5.6-5.6-8.8-0.9-3.3-1.9-7-1.9-11.2 0-4.2 0.5-7.9 1.9-11.1 1.4-3.8 3.3-6.5 5.6-8.9q3.5-3.5 8.4-5.6c3.2-1.3 6.5-1.8 10.2-1.8 2.4 0 4.7 0.5 6.5 0.9 2.4 0.5 4.2 1.4 6.1 2.3 1.9 1 3.7 2.4 5.1 3.8 1.4 0.9 2.8 2.3 3.8 3.7l-26.6 32.1zm8.4-29.3l-1.4-0.5c-0.9 0-1.4-0.5-2.3-0.5-0.5 0-1 0-1.9 0-2.3 0-4.2 0-6.1 1-1.8 0.9-3.2 1.8-4.6 3.2-1.4 1.4-2.3 3.3-3.3 5.1-0.4 1.9-0.9 4.2-0.9 6.6 0 0.4 0 1.4 0 1.8 0.5 0.5 0.5 0.9 0.5 1.9 0 0.4 0.4 1.4 0.4 1.8 0.5 0.5 0.5 1.4 1 1.9l0.9 1.9z"/>
					<path id="Layer" class="s1" d="m490.1 271.8h-11.2v21.9h-6.5v11.1h6.5v17.2c0 3.3 0.5 6.1 1.9 8.9 1.4 2.8 2.7 5.1 5.1 7.4 2.3 2.3 4.6 3.7 7.4 5.1 2.8 1.4 5.6 1.9 8.9 1.9h9.3v-11.2h-9.3c-1.4 0-3.3-0.4-4.7-0.9-1.4-0.5-2.8-1.4-3.7-2.3-0.9-0.9-1.9-2.3-2.3-3.7-0.5-1.4-1-2.8-1-4.7v-17.2h21v-11.2h-21v-22.3z"/>
					<path id="Layer" fill-rule="evenodd" class="s1" d="m600.9 338.8q-3.5 3.5-8.4 5.6c-3.2 1.4-6.5 1.8-10.2 1.8-0.9 0-2.3 0-3.3-0.4-0.9 0-2.3-0.5-3.2-1-1-0.4-2.4-0.9-3.3-1.4-1.4-0.4-2.3-1.4-3.3-1.8l-1.8-1v25.2h-11.2v-72.6h1.4l6.1 7 0.9-0.9c1.4-1.4 2.8-2.4 4.2-3.3 1.8-1.4 3.2-1.9 4.6-2.8 1.4-0.9 2.8-1.4 4.7-1.8 1.9-0.5 3.3-0.5 5.1-0.5 3.7 0 7 0.5 10.3 1.8q4.9 2.1 8.4 5.6c2.3 2.8 4.1 5.6 5.5 8.9 1 3.2 1.9 6.9 1.9 11.1 0 4.2-0.5 8.4-1.9 11.7-1.4 3.7-3.2 6.5-6.5 8.8zm-2.8-20.5c0-2.3-0.4-4.6-1.4-6.5-0.9-1.8-1.8-3.7-3.2-5.1-1.4-1.4-2.8-2.3-4.7-3.3-1.9-0.4-4.2-0.9-6-0.9-1.9 0-3.8 0-5.6 0.9-1.9 1-3.3 1.9-4.7 3.3-1.4 1.4-2.3 3.3-3.3 5.1-0.9 1.9-1.3 4.2-1.3 6.5 0 2.4 0.4 4.7 1.3 6.5 1 1.9 1.9 3.8 3.3 5.2 1.4 1.3 2.8 2.3 4.7 3.2 1.8 0.9 4.2 1.4 6 1.4 2.4 0 4.2 0 6.1-0.9 1.8-1 3.2-1.9 4.6-3.3 1.4-1.4 2.4-3.2 3.3-5.1 0.5-2.3 0.9-4.2 0.9-7z"/>
					<path id="Layer" class="s1" d="m666.1 271.8v73h-11.2v-73z"/>
					<path id="Layer" fill-rule="evenodd" class="s1" d="m757.4 300.2l6.1-7h0.4v50.7h-1.4l-5.6-7.9-0.9 0.9c-1.4 1.4-2.8 2.4-4.2 3.3-1.4 1.4-3.2 1.8-4.6 2.8-1.4 0.9-3.3 1.4-4.7 1.8-1.4 0.5-2.8 0.5-4.6 0.5-3.8 0-7-0.5-10.3-1.9-3.3-0.9-6-2.8-8.4-5.1q-3.5-3.5-5.6-8.3c-0.9-3.3-1.8-7.5-1.8-11.7 0-4.2 0.4-7.9 1.8-11.1 1.4-3.8 3.3-6.5 5.6-8.9q3.5-3.5 8.4-5.6c3.3-1.3 6.5-1.8 10.3-1.8 1.8 0 3.7 0 5.1 0.5 1.4 0.4 3.2 0.9 4.6 1.8 1.9 0.9 3.3 1.9 4.7 2.8 1.4 0.9 2.8 1.9 4.2 3.3zm-3.7 18.1c0-2.3-0.5-4.2-1.4-6-1-1.9-1.9-3.8-3.3-5.2-1.4-1.8-2.8-2.8-4.7-3.7-1.8-0.9-4.1-1.4-6-1.4-1.9 0-3.7 0-5.6 1-1.9 0.9-3.3 1.8-4.7 3.2-1.4 1.4-2.3 3.3-3.2 5.1-0.5 2.3-1 4.7-1 7 0 2.8 0 5.1 1 7 0.9 1.8 1.8 3.7 3.2 5.1 1.4 1.4 2.8 2.3 4.7 3.2 1.4 0.5 3.7 1 5.6 1 2.3 0 4.2-0.5 6-1.4 1.9-1 3.3-2.3 4.7-3.7 1.4-1.4 2.3-3.3 3.3-5.2 0.9-1.8 0.9-3.7 1.4-6z"/>
					<path id="Layer" class="s1" d="m847.8 329.5c-1 0.9-1.9 1.8-3.3 2.8-1.4 0.9-2.3 1.4-3.7 1.8-1.4 0.5-2.8 0.5-4.2 0.5-1.9 0-4.2-0.5-6.1-1.4-1.8-0.9-3.2-1.9-4.6-3.2-1.4-1.4-2.3-2.8-3.3-4.7q-1.4-2.8-1.4-5.6c0-2.3 0.5-4.6 1-7 0.9-1.8 1.8-3.7 3.2-5.5 1.4-1.4 2.8-2.8 4.7-3.8 1.8-0.9 3.7-1.3 6-1.3 1.4 0 2.8 0 4.2 0.4 1.4 0.5 2.8 0.9 3.7 1.9 1.4 0.9 2.4 1.8 3.3 3.2 0.5 1 0.9 1.4 1.4 2.4l7.9-7.9c-0.9-1.4-2.3-3.3-3.7-4.2-1.4-1.4-3.3-2.8-5.1-3.8-1.9-0.9-3.8-1.8-6.1-2.3-1.8-0.4-4.2-0.9-6.5-0.9-3.7 0-7 0.9-10.3 2.3-3.2 1.4-6 3.7-8.3 6.1-2.4 2.8-4.2 5.5-5.6 8.8-1.4 3.3-1.9 7-1.9 11.2 0 3.7 0.5 6.9 1.9 10.2q2.1 4.9 5.6 8.4 3.5 3.4 8.3 5.5c3.3 1.4 6.6 1.9 10.3 1.9 2.3 0 4.2-0.5 6.5-0.9 1.9-0.5 4.2-1.4 6.1-2.4 1.8-0.9 3.7-2.3 5.1-3.7 1.4-0.9 2.3-2.3 3.7-3.7l-7.9-8.4c0.5 1.9 0 2.8-0.9 3.3z"/>
					<path id="Layer" fill-rule="evenodd" class="s1" d="m937.2 328.6c0.5-0.5 0.9-1 1.4-1.9l7.9 8.4c-1.4 1.4-2.3 2.8-3.7 3.7-1.4 1.4-3.3 2.8-5.1 3.7-1.9 0.9-4.2 1.9-6.1 2.3-2.3 0.5-4.2 1-6.5 1-3.7 0-7-0.5-10.3-1.9q-4.8-2.1-8.3-5.6c-2.4-2.8-4.2-5.6-5.6-8.8-1-3.3-1.9-7-1.9-11.2 0-4.2 0.5-7.9 1.9-11.1 1.4-3.8 3.2-6.5 5.6-8.9q3.5-3.5 8.3-5.6c3.3-1.3 6.6-1.8 10.3-1.8 2.3 0 4.6 0.5 6.5 0.9 2.3 0.5 4.2 1.4 6.1 2.3 1.8 1 3.7 2.4 5.1 3.8 1.4 0.9 2.8 2.3 3.7 3.7l-26.5 32.1 1.8 0.4c0.5 0.5 1.4 0.5 1.9 0.5 0.9 0 1.4 0 1.9 0 1.4 0 2.7 0 4.1-0.5 1.4-0.4 2.4-0.9 3.8-1.8 1.4-1 2.3-1.9 3.7-3.7zm-6.1-24.7l-1.8-0.5c-1 0-1.4-0.4-2.3-0.4-0.5 0-1 0-1.9 0-2.3 0-4.2 0-6.1 0.9-1.8 0.9-3.2 1.9-4.6 3.3-1.4 1.4-2.4 3.2-3.3 5.1-0.5 1.8-0.9 4.2-0.9 6.5 0 0.5 0 1.4 0 1.9 0.4 0.4 0.4 0.9 0.4 1.8 0 0.5 0.5 1.4 0.5 1.9 0.5 0.4 0.5 1.4 0.9 1.8l1 1.9z"/>
				</g>
			</g>
		</g>
	</g>
</svg>