<svg version="1.2" xmlns="http://www.w3.org/2000/svg" viewBox="0 0 1491 364" width="1491" height="364">
	<title>100952_Modification_DT_AC_02-svg</title>
	<style>
		.s0 { fill: #23d1fb } 
		.s1 { fill: #ffffff } 
	</style>
	<g id="Layer">
		<g id="Layer">
			<g id="Layer">
				<g id="Layer_48_">
					<g id="Layer_57_">
						<path id="Layer_59_" class="s0" d="m1407.4 1.3h-424v33.5 3.7 147c1.2 21.1 9.9 39.7 25.4 54.5 14.3 13.7 33.5 21.7 53.3 22.4 23.6 0.6 43.4-7.5 59.5-23.6 16.1-15.5 23.6-34.7 23.6-57.7 0-22.3-8.1-41.5-23.6-57-15.5-16.1-34.7-23.6-57-23.6v38.5c11.8 0 21.7 4.3 30.4 12.4 8.6 8.7 12.4 18.6 12.4 30.4 0 11.7-4.4 22.3-12.4 30.3-8.7 8.1-18.6 12.4-30.4 12.4-11.8 0-22.3-4.3-30.4-12.4-8-8.6-12.4-18.6-12.4-30.3v-143.3h362.6l65.7 130.2-65.7 130.2h-401v37.2h424l4.9-10.5 78.7-157.5z"/>
						<path id="Layer_58_" fill-rule="evenodd" class="s0" d="m1208.4 199.7c8.1 16.2 21.1 23.6 38.4 23.6h42.8v38.4h-47.7c-21.7-1.2-39.7-9.9-54.6-25.4-13.6-14.2-21.7-33.5-22.3-53.3-0.6-23.6 7.4-43.4 23.6-59.5 15.5-16.1 34.7-23.6 57.6-23.6 22.3 0 41.5 8.1 57 23.6 16.1 15.5 23.6 34.7 23.6 57v19.2zm76.8-37.8c-8-16.1-20.4-23.5-38.4-23.5-18 0-30.4 8-38.4 23.5z"/>
					</g>
					<path id="Layer_56_" class="s0" d="m1414.8 162.5c4.3 19.9-13 37.2-32.8 32.9-10-1.9-18-10.5-20.5-20.5-4.3-19.8 13-37.2 32.8-32.8 10 2.5 18 10.5 20.5 20.4z"/>
					<g id="Layer_49_">
						<path id="Layer_55_" fill-rule="evenodd" class="s1" d="m336.3 152c3.7 9.3 5.6 18.6 5.6 28.5 0 21.1-8.1 39.1-23.6 53.3-16.1 15.5-35.3 23-57 23-22.3 0-41.5-7.5-57-23-8.1-7.4-13.7-15.5-18-24.8-3.7-9.3-5.6-18.6-5.6-28.5 0-9.9 1.9-19.8 5.6-28.5 3.7-9.3 9.9-17.4 18-24.8 15.5-15.5 34.7-22.9 57-22.9 22.3 0 40.9 7.4 57 22.9 8.1 7.4 13.7 16.1 18 24.8zm-34.1 28.5c0-6.8-1.9-13-5-19.2-3.1-6.2-8-11.2-14.2-15.5-6.2-3.7-13.7-6.2-21.7-6.2-8.7 0-15.5 1.9-21.7 6.2-6.2 3.7-11.2 9.3-14.3 15.5-3.1 6.2-4.9 13-4.9 19.8 0 6.9 1.8 13.7 4.9 19.9 3.1 6.2 8.1 11.1 14.3 15.5 6.2 3.7 13.6 6.2 21.7 6.2 8.7 0 15.5-1.9 21.7-6.2 6.2-3.7 11.1-9.3 14.2-15.5 3.8-6.8 5-13.7 5-20.5z"/>
						<path id="Layer_54_" class="s1" d="m943.7 99.3l-84.3 162.4-1.2-2.4-53.3-101.1 17.3-33.5 4.4-8.7 31 59.6 1.2 2.4 37.8-73.1 3.1-5.6z"/>
						<path id="Layer_53_" class="s1" d="m783.2 142.7q-5.6-11.2-14.9-20.5c-14.2-13.6-31.6-21-50.8-22.3-1.9 0-4.4 0-6.8 0-1.9 0-4.4 0-6.2 0-19.9 1.3-36.6 8.7-50.9 23-8 7.4-13.6 16.1-17.9 24.8-3.7 9.3-5.6 18.6-5.6 28.5 0 9.9 1.9 19.2 5.6 28.5 3.7 9.3 9.9 17.4 17.9 24.8 15.5 15.5 34.8 22.9 57.1 22.9 22.9 0 42.7-8.6 60.1-25.4l-5-9.9-15.5-29.8c-0.6 2.5-1.8 5-3.1 8.1-3.1 6.2-8 11.8-14.2 15.5-6.2 3.7-13.7 6.2-21.7 6.2-8.7 0-15.5-1.9-21.7-6.2-6.2-3.7-11.2-9.3-14.3-15.5-3.1-6.2-4.9-13-4.9-19.8 0-6.9 1.2-13.1 4.9-19.9 3.1-6.2 8.1-11.8 14.3-15.5 6.2-3.7 13.6-6.2 21.7-6.2q6.5 0 13 1.9c1.9 0.6 3.7 1.2 5 1.8q1.8 1 3.7 1.9 8.4 5.6 13 13l3.1 5.6 29.8 57.7 21.6 42.1 1.3 2.5 21.7-42.2-37.2-71.3z"/>
						<path id="Layer_52_" class="s1" d="m161.5 180.5c0 21.1-8.1 39.1-23.6 53.3-16.1 15.5-35.3 23-57 23-22.3 0-41.5-7.5-57-23-8.1-7.4-13.6-15.5-17.4-24.8-3.7-9.3-5.5-18.6-5.5-28.5v-179.8h39v114.1 65.1 0.6c0 6.8 1.9 13.7 5 19.9 3.1 6.2 8 11.1 14.2 15.5 6.2 3.7 13.7 6.2 22.3 6.2 8.1 0 15.5-1.9 21.7-6.2 6.2-3.8 11.2-9.3 14.3-15.5 3.1-6.2 4.9-13.1 4.9-19.9 0-6.8-1.8-13-4.9-19.2-3.1-6.2-8.1-11.8-14.3-15.5-5.5-3.7-12.4-5.6-19.8-6.2v-35.3c21.1 0.6 39.7 8 55.2 22.9 8 7.4 13.6 16.1 17.9 24.8 3.1 9.3 5 18.6 5 28.5z"/>
						<path id="Layer_51_" class="s1" d="m406.3 257.4h-42.1v-153.1h9.9l13.6 17.9c6.9-5.5 14.3-9.9 23-13 8.6-3.1 17.3-4.9 26.6-4.9h37.2v39h-37.2c-4.3 0-8.7 0.6-12.4 2.5-3.7 1.2-7.4 3.7-9.9 6.2-3.1 2.5-5 5.6-6.8 9.3-1.9 3.7-2.5 7.4-2.5 11.8v84.3z"/>
						<path id="Layer_50_" class="s1" d="m548.3 257.4h-42.2v-153.1h10.6l13.6 17.9c6.8-5.5 14.3-9.9 22.9-13 8.7-3.1 17.4-4.9 26.7-4.9h37.2v39h-37.2c-4.4 0-8.7 0.6-12.4 2.5-3.7 1.2-7.5 3.7-9.9 6.2-3.1 2.5-5 5.6-6.8 9.3-1.9 3.7-2.5 7.4-2.5 11.8z"/>
					</g>
				</g>
				<g id="Layer">
					<path id="Layer" class="s1" d="m71.6 344.2v-50.2c0-3.1-0.6-5.6-1.8-8.1-1.3-2.5-2.5-4.9-4.4-6.2-1.8-1.8-3.7-3.1-6.2-4.3-2.5-1.3-4.9-1.9-8-1.9-2.5 0-5 0.6-7.5 1.3-2.5 0.6-4.3 2.4-6.2 3.7l-0.6 0.6-0.6-0.6c-1.9-1.9-3.7-3.1-6.2-3.7-2.5-0.7-5-1.3-7.4-1.3-3.1 0-5.6 0.6-8.1 1.9-2.5 1.2-5 2.5-6.2 4.3-1.9 1.9-3.1 3.7-4.3 6.2-1.3 2.5-1.9 5-1.9 8.1v50.2h11.8v-50.2c0-1.3 0-2.5 0.6-3.1 0.6-1.3 1.2-1.9 1.9-2.5 0.6-0.6 1.8-1.2 2.4-1.9 1.3-0.6 1.9-0.6 3.1-0.6 1.3 0 2.5 0 3.1 0.6 1.3 0.7 1.9 1.3 2.5 1.9 0.6 0.6 1.3 1.9 1.9 2.5 0.6 1.2 0.6 1.8 0.6 3.1v50.2h11.8v-50.2c0-1.3 0-2.5 0.6-3.1 0.6-1.3 1.2-1.9 1.8-2.5 0.7-0.6 1.9-1.2 2.5-1.9 1.3-0.6 1.9-0.6 3.1-0.6 1.3 0 2.5 0 3.1 0.6 1.3 0.7 1.9 1.3 2.5 1.9 0.6 0.6 1.2 1.9 1.9 2.5 0.6 1.2 0.6 1.8 0.6 3.1v50.2z"/>
					<path id="Layer" fill-rule="evenodd" class="s1" d="m162.7 300.2l5.6-6.8h1.3v51.4l-5.6-8-1.3 1.2c-1.8 1.2-3.1 1.9-4.3 3.1-1.2 0.6-3.1 1.9-4.3 2.5-1.9 0.6-3.1 1.2-5 1.8-1.9 0.7-3.1 0.7-5 0.7-3.7 0-7.4-0.7-10.5-1.9-3.1-1.2-5.6-3.1-8.1-5.6-2.4-2.5-4.3-5.6-5.5-8.7-1.3-3.7-1.9-7.4-1.9-11.7q0-6.5 1.9-11.2c1.2-3.7 3.1-6.2 5.5-8.7 1.9-2.5 5-4.3 8.1-5.6 3.1-1.2 6.2-1.8 9.9-1.8 1.9 0 3.1 0 5 0.6 1.8 0.6 3.7 1.2 4.9 1.9 1.3 0.6 3.1 1.2 4.4 2.4 1.2 0.7 2.5 1.9 3.7 3.1zm-4.3 17.4c0-2.5-0.7-4.3-1.3-6.2-0.6-1.9-1.8-3.7-3.1-5-1.8-1.8-3.1-3.1-4.9-3.7-1.3-0.6-3.8-1.2-5.6-1.2-1.9 0-3.7 0.6-5.6 1.2-1.9 0.6-3.7 1.9-5 3.1-1.2 1.3-2.4 3.1-3.1 5-0.6 1.8-1.2 4.3-1.2 6.8 0 2.5 0.6 5 1.2 6.8 0.7 1.9 1.9 3.7 3.1 5 1.3 1.2 3.1 2.5 5 3.1 1.9 0.6 3.7 1.2 5.6 1.2 1.8 0 3.7-0.6 5.6-1.2 1.8-1.3 3.7-2.5 4.9-3.7 1.3-1.3 2.5-3.1 3.1-5 0.6-1.9 1.3-3.7 1.3-6.2z"/>
					<path id="Layer" class="s1" d="m232.8 294.6c-2.5 1.2-5 2.5-7.5 4.3l-1.2 1.3-5-7.5h-1.2v51.5h11.2v-28.5c0-1.9 0-3.1 0.6-4.4 0.6-1.2 1.2-2.4 2.5-3.7 1.2-1.2 2.4-1.8 3.7-2.5 1.2-0.6 3.1-0.6 4.3-0.6h11.2v-11.1h-11.2c-2.5-0.7-4.9 0-7.4 1.2z"/>
					<path id="Layer" class="s1" d="m341.9 292.7h-12.4l-22.3 28.6v-50.3h-11.8v73.2h11.8v-6.2l11.1-14.3 11.2 20.5h13l-17.4-30.4z"/>
					<path id="Layer" fill-rule="evenodd" class="s1" d="m405.1 333c0.6 0.7 1.2 0.7 1.9 0.7q0.9 0 1.8 0c1.9 0 3.1 0 4.3-0.7q1.9-0.9 3.8-1.8c1.2-0.6 1.8-1.3 3.1-2.5 0.6-0.6 0.6-1.2 1.2-1.9l8.1 8.1q-1.9 1.9-3.8 3.7c-1.2 1.9-3.1 2.5-4.9 3.7-1.9 1.3-3.7 1.9-5.6 2.5-1.9 0.6-4.3 0.6-6.2 0.6-3.1 0-6.8-0.6-9.9-1.8-3.1-1.3-5.6-3.1-8.1-5.6-2.4-2.5-4.3-5.6-5.5-8.7q-1.9-5.6-1.9-11.1 0-6.6 1.9-11.2c1.2-3.7 3.1-6.2 5.5-8.7 1.9-2.5 5-4.3 8.1-5.6 3.1-1.2 6.2-1.8 9.9-1.8 1.9 0 4.3 0 6.2 0.6 1.9 0.6 3.7 1.2 5.6 2.5 1.8 1.2 3.1 2.5 4.9 3.7q1.9 1.9 3.8 3.7l-26.7 31.6zm9.3-29.7l-1.9-0.6c-1.2-0.7-1.8-0.7-2.4-0.7q-1 0-1.9 0c-1.8 0-3.7 0.7-5.6 1.3-1.8 0.6-3.7 1.8-4.9 3.1-1.3 1.2-2.5 3.1-3.1 4.9-0.6 2.5-1.3 4.4-1.3 6.9q0 0.9 0 1.8 0 1 0 1.9c0 0.6 0.7 1.2 0.7 1.8 0 0.7 0 1.3 0.6 1.9l1.2 1.9z"/>
					<path id="Layer" class="s1" d="m488.1 271h-11.1v21.7h-6.8v11.2h6.8v17.4c0 3.1 0.6 6.2 1.9 8.6 1.2 2.5 3.1 5 4.9 7.5 1.9 1.8 4.3 3.7 7.4 4.9 2.5 1.3 5.6 1.9 8.7 1.9h9.3v-11.2h-9.3c-1.8 0-3.1-0.6-4.3-1.2-1.3-0.6-2.5-1.2-3.7-2.5-1.3-1.2-1.9-2.5-2.5-3.7-0.6-1.2-0.6-3.1-0.6-4.3v-17.4h21v-11.2h-21v-21.7z"/>
					<path id="Layer" fill-rule="evenodd" class="s1" d="m597.9 337.4c-1.9 2.5-5 4.3-8.1 5.6-3.7 1.2-6.8 1.8-10.5 1.8-0.7 0-1.9-0.6-3.1-0.6-0.7-0.6-1.9-0.6-3.1-1.2-0.7 0-1.9-0.7-3.1-1.3-1.3-0.6-1.9-1.2-3.1-1.8l-1.9-1.3v25.4h-11.1v-71.9h1.2l6.2 6.8 1.2-0.6c1.3-1.2 2.5-1.8 3.7-3.1 1.3-0.6 3.1-1.8 4.4-2.5 1.8-0.6 3.1-1.2 4.9-1.8 1.9-0.6 3.1-0.6 5-0.6 3.7 0 7.4 0.6 10.5 1.8 3.1 1.3 5.6 3.1 8.1 5.6 2.5 2.5 4.3 5.6 5.6 8.7q1.8 4.6 1.8 11.1c0 4.4-0.6 8.7-1.8 11.8-1.3 3.7-3.1 6.2-6.8 8.1zm-2.5-19.2c0-2.5-0.6-5-1.3-6.9-0.6-1.8-1.8-3.7-3.1-4.9-1.2-1.3-3.1-2.5-4.9-3.1-1.9-0.6-3.7-1.3-5.6-1.3-1.9 0-3.7 0.7-5.6 1.3-1.8 0.6-3.7 1.8-4.9 3.1-1.3 1.2-2.5 3.1-3.1 4.9-0.7 2.5-1.3 4.4-1.3 6.9 0 1.8 0.6 4.3 1.3 6.2 0.6 1.8 1.8 3.7 3.1 4.9 1.2 1.3 3.1 2.5 4.9 3.1 1.9 0.6 3.7 1.3 5.6 1.3 1.9 0 3.7-0.7 5.6-1.3 1.8-0.6 3.7-1.8 4.9-3.1 1.3-1.2 2.5-3.1 3.1-4.9 1.3-1.9 1.3-4.4 1.3-6.2z"/>
					<path id="Layer" class="s1" d="m663.6 271v73.2h-11.2v-73.2z"/>
					<path id="Layer" fill-rule="evenodd" class="s1" d="m755.3 300.2l5.6-6.8h1.2v51.4h-1.2l-5.6-8-1.2 1.2c-1.9 1.2-3.1 1.9-4.4 3.1-1.2 0.6-3.1 1.9-4.3 2.5-1.9 0.6-3.1 1.2-5 1.8-1.8 0.7-3.1 0.7-4.9 0.7-3.8 0-7.5-0.7-10.6-1.9-3.1-1.2-5.6-3.1-8-5.6-2.5-2.5-4.4-5.6-5.6-8.7-1.3-3.7-1.9-7.4-1.9-11.7q0-6.5 1.9-11.2c1.2-3.7 3.1-6.2 5.6-8.7 1.8-2.5 4.9-4.3 8-5.6 3.1-1.2 6.2-1.8 9.9-1.8 1.9 0 3.1 0 5 0.6 1.9 0.6 3.7 1.2 5 1.9 1.2 0.6 3.1 1.2 4.3 2.4 1.2 0.7 2.5 1.9 3.7 3.1zm-5.6 17.4c0-2.5-0.6-4.3-1.2-6.2-0.6-1.9-1.9-3.7-3.1-5-1.9-1.8-3.1-3.1-5-3.7-1.2-0.6-3.7-1.2-5.5-1.2-1.9 0-3.8 0.6-5.6 1.2-1.9 0.6-3.7 1.9-5 3.1-1.2 1.3-2.5 3.1-3.1 5-0.6 1.8-1.2 4.3-1.2 6.8 0 2.5 0.6 5 1.2 6.8 0.6 1.9 1.9 3.7 3.1 5 1.3 1.2 3.1 2.5 5 3.1 1.8 0.6 3.7 1.2 5.6 1.2 1.8 0 3.7-0.6 5.5-1.2 1.9-1.3 3.8-2.5 5-3.7 1.2-1.3 2.5-3.1 3.1-5 1.2-1.9 1.2-3.7 1.2-6.2z"/>
					<path id="Layer" class="s1" d="m843.9 328.7c-1.2 1.2-1.8 1.9-3.1 2.5q-1.8 0.9-3.7 1.8c-1.2 0.7-2.5 0.7-4.3 0.7-1.9 0-3.7-0.7-5.6-1.3-1.9-0.6-3.1-1.8-5-3.1-1.2-1.2-2.4-3.1-3.1-4.9-0.6-1.9-1.2-3.8-1.2-5.6 0-2.5 0.6-5 1.2-6.8 0.7-1.9 1.9-3.8 3.1-5.6 1.3-1.3 3.1-2.5 5-3.7 1.9-0.7 3.7-1.3 5.6-1.3 1.2 0 3.1 0 4.3 0.6q1.9 1 3.7 1.9c1.3 0.6 2.5 1.9 3.1 3.1 0.7 0.6 1.3 1.2 1.3 2.5l8-8.1c-1.2-1.8-2.4-3.1-3.7-4.3-1.8-1.3-3.1-2.5-4.9-3.7-1.9-1.3-3.8-1.9-6.2-2.5-1.9-0.6-4.4-0.6-6.2-0.6-3.8 0-6.9 0.6-10 2.4-3.1 1.3-6.2 3.8-8.6 6.2q-3.8 3.8-5.6 9.3-1.9 5.6-1.9 11.2c0 3.7 0.6 6.8 1.9 9.9 1.2 3.1 3.1 6.2 5.6 8.1 2.4 2.5 4.9 4.3 8.6 5.6 3.1 1.2 6.9 1.8 10 1.8 1.8 0 4.3 0 6.2-0.6 1.8-0.6 3.7-1.2 5.5-2.5 1.9-1.2 3.8-1.8 5-3.7q1.9-1.9 3.7-3.7l-8-8.1c0.6 1.3 0 1.9-0.7 2.5z"/>
					<path id="Layer" fill-rule="evenodd" class="s1" d="m932.6 328.7c0.6-0.6 0.6-1.2 1.2-1.9l8.1 8.1q-1.9 1.9-3.8 3.7c-1.2 1.9-3.1 2.5-4.9 3.7-1.9 1.3-3.7 1.9-5.6 2.5-1.8 0.6-4.3 0.6-6.2 0.6-3.1 0-6.8-0.6-9.9-1.8-3.1-1.3-5.6-3.1-8.1-5.6-2.4-2.5-4.3-5.6-5.5-8.7q-1.9-5.6-1.9-11.1 0-6.6 1.9-11.2c1.2-3.7 3.1-6.2 5.5-8.7 1.9-2.5 5-4.3 8.1-5.6 3.1-1.2 6.2-1.8 9.9-1.8 1.9 0 4.4 0 6.2 0.6 1.9 0.6 3.7 1.2 5.6 2.5 1.8 1.2 3.1 2.5 4.9 3.7q1.9 1.9 3.8 3.7l-26.7 31.6 1.9 0.7c0.6 0.6 1.2 0.6 1.8 0.6q1 0 1.9 0c1.9 0 3.1 0 4.3-0.6q1.9-1 3.8-1.9c1.2-1.2 2.4-1.9 3.7-3.1zm-5.6-25.4l-1.9-0.6c-1.2-0.7-1.8-0.7-2.4-0.7q-1 0-1.9 0c-1.9 0-3.7 0.7-5.6 1.3-1.8 0.6-3.7 1.8-4.9 3.1-1.3 1.2-2.5 3.1-3.1 4.9-0.7 2.5-1.3 4.4-1.3 6.9q0 0.9 0 1.8 0 1 0 1.9c0 0.6 0.6 1.2 0.6 1.8 0 0.7 0 1.3 0.7 1.9l1.2 1.9z"/>
				</g>
			</g>
		</g>
	</g>
</svg>