<svg width="307" height="520" viewBox="0 0 307 520" fill="none" xmlns="http://www.w3.org/2000/svg">
<g opacity="0.2" filter="url(#filter0_f_319_1256)">
<path d="M108.243 23.182C145.823 47.2253 125.735 115.364 158.981 145.099C186.708 169.9 240.31 139.941 267.348 165.489C292.117 188.893 296.032 232.299 285.567 264.706C274.803 298.035 226.424 305.894 211.737 337.695C197.92 367.614 221.288 405.555 206.837 435.175C191.701 466.2 165.069 499.249 130.786 503.623C95.0688 508.181 68.3874 470.131 34.8184 457.124C8.27245 446.838 -19.011 442.146 -46.548 434.91C-86.4659 424.42 -142.836 439.383 -165.003 404.614C-186.501 370.893 -143.591 328.718 -139.608 288.942C-136.314 256.05 -148.286 223.826 -143.621 191.099C-138.172 152.873 -136.527 109.891 -110.07 81.7309C-83.6487 53.6096 -40.3155 51.455 -3.021 41.4531C33.7394 31.5943 76.1935 2.67748 108.243 23.182Z" fill="#2196F3"/>
</g>
<defs>
<filter id="filter0_f_319_1256" x="-187" y="0" width="494" height="520" filterUnits="userSpaceOnUse" color-interpolation-filters="sRGB">
<feFlood flood-opacity="0" result="BackgroundImageFix"/>
<feBlend mode="normal" in="SourceGraphic" in2="BackgroundImageFix" result="shape"/>
<feGaussianBlur stdDeviation="8" result="effect1_foregroundBlur_319_1256"/>
</filter>
</defs>
</svg>
