<?xml version="1.0" encoding="utf-8"?>
<!-- Generator: Adobe Illustrator 17.0.0, SVG Export Plug-In . SVG Version: 6.00 Build 0)  -->
<!DOCTYPE svg PUBLIC "-//W3C//DTD SVG 1.1//EN" "http://www.w3.org/Graphics/SVG/1.1/DTD/svg11.dtd">
<svg version="1.1" id="Layer_1" xmlns="http://www.w3.org/2000/svg" xmlns:xlink="http://www.w3.org/1999/xlink" x="0px" y="0px"
	  viewBox="0 0 2000 2000" enable-background="new 0 0 2000 2000" xml:space="preserve">
<g>
	<g>
		<path fill="#23D1FB" d="M1493.913,874.838h-316.917v24.931v2.896v109.809h0.152c0.911,15.966,7.238,29.496,18.993,40.596
			c10.778,10.178,25.102,16.156,39.922,16.504c17.45,0.41,32.268-5.526,44.446-17.811c11.888-11.786,17.833-26.09,17.833-42.915
			c0-16.722-5.945-30.978-17.833-42.765c-11.785-11.886-26.042-17.832-42.764-17.832v28.561c8.766,0,16.32,3.124,22.667,9.369
			c6.245,6.347,9.369,13.901,9.369,22.667c0,8.865-3.125,16.471-9.369,22.817c-6.347,6.247-13.901,9.368-22.667,9.368
			c-8.865,0-16.471-3.121-22.818-9.368c-6.248-6.347-9.369-13.953-9.369-22.817V902.665h271.182l48.859,97.395l-48.859,97.394
			h-299.744v27.827h316.916l3.852-7.675l58.967-117.547L1493.913,874.838z"/>
		<path fill="#23D1FB" d="M1434.795,1008.848c0-16.722-5.946-30.978-17.833-42.765c-11.785-11.886-26.043-17.832-42.764-17.832
			c-16.824,0-31.13,5.945-42.915,17.832c-12.282,12.179-18.221,26.993-17.814,44.439c0.347,14.819,6.323,29.142,16.498,39.922
			c11.101,11.759,24.636,18.089,40.604,19v0.151h35.662v-28.561h-32.035c-13.298,0-22.921-5.942-28.862-17.831h89.459V1008.848z
			 M1345.336,994.643c5.941-11.886,15.565-17.831,28.862-17.831c13.194,0,22.766,5.946,28.711,17.831H1345.336z"/>
	</g>
	<path fill="#23D1FB" d="M1499.546,995.372c3.312,14.948-9.711,27.971-24.659,24.658c-7.533-1.67-13.611-7.748-15.281-15.281
		c-3.314-14.949,9.712-27.973,24.66-24.659C1491.799,981.76,1497.876,987.839,1499.546,995.372z"/>
	<g>
		<path fill="#333541" d="M680.477,968.814c-12.025-11.354-26.279-17.029-42.76-17.029c-16.818,0-31.072,5.72-42.76,17.153
			c-5.886,5.637-10.26,11.837-13.118,18.607c-2.86,6.769-4.289,13.898-4.289,21.381c0,7.398,1.429,14.526,4.289,21.379
			c2.859,6.855,7.232,13.055,13.118,18.607c11.858,11.436,26.111,17.153,42.76,17.153c16.399,0,30.652-5.716,42.76-17.153
			c11.606-11.016,17.407-24.348,17.407-39.985c0-7.484-1.431-14.633-4.287-21.444C690.737,980.672,686.363,974.448,680.477,968.814z
			 M664.774,1023.495c-2.482,4.75-6.055,8.62-10.722,11.602c-4.667,2.986-10.113,4.48-16.335,4.48
			c-6.307,0-11.794-1.495-16.461-4.48c-4.666-2.982-8.219-6.828-10.659-11.54c-2.439-4.709-3.657-9.586-3.657-14.63
			c0-5.047,1.218-9.924,3.657-14.633c2.439-4.708,5.993-8.558,10.659-11.54c4.667-2.986,10.154-4.48,16.461-4.48
			c6.222,0,11.668,1.516,16.335,4.543c4.667,3.027,8.24,6.894,10.722,11.603c2.478,4.712,3.721,9.545,3.721,14.508
			C668.495,1013.887,667.252,1018.744,664.774,1023.495z"/>
		<polygon fill="#333541" points="1147.399,948.245 1084.466,1069.605 1083.413,1067.606 1044.025,992.029 1056.924,967.067 
			1060.194,960.744 1083.413,1005.146 1084.466,1007.145 1112.808,952.569 1115.061,948.245 		"/>
		<path fill="#333541" d="M1027.767,980.523c-2.913-5.572-6.534-10.785-11.068-15.141c-0.033-0.032-0.067-0.064-0.1-0.096
			c-10.828-10.246-23.473-15.841-37.934-16.859c-1.599-0.109-3.198-0.182-4.833-0.182c-1.635,0-3.27,0.073-4.869,0.182
			c-14.716,0.981-27.324,6.686-37.897,16.969c-5.886,5.632-10.247,11.845-13.117,18.604c-2.87,6.795-4.288,13.916-4.288,21.401
			c0,7.376,1.417,14.534,4.288,21.365c2.87,6.867,7.231,13.044,13.117,18.604c11.845,11.446,26.125,17.15,42.766,17.15
			c17.242,0,32.11-6.315,44.648-18.988c0.003-0.019,0.005-0.033,0.008-0.052l-3.743-7.158l-11.518-22.092
			c-0.581,1.926-1.344,3.852-2.362,5.741c-2.471,4.724-6.032,8.611-10.719,11.591c-4.651,2.98-10.101,4.469-16.314,4.469
			c-6.322,0-11.809-1.489-16.46-4.469c-4.687-2.979-8.212-6.831-10.683-11.554c-2.434-4.687-3.633-9.556-3.633-14.607
			c0-5.051,1.199-9.92,3.633-14.643c2.471-4.723,5.995-8.538,10.683-11.554c4.651-2.98,10.138-4.469,16.46-4.469
			c3.415,0,6.613,0.472,9.556,1.417c1.381,0.4,2.652,0.908,3.924,1.526c0.981,0.472,1.926,1.017,2.834,1.599
			c4.07,2.616,7.267,5.886,9.665,9.774l0.073,0.109l2.071,4.033l22.491,43.13l16.278,31.285l1.054,1.999l16.169-31.285
			l-27.869-53.376L1027.767,980.523z"/>
		<path fill="#333541" d="M563.442,1008.915c0,15.66-5.814,28.995-17.441,40.005c-12.1,11.446-26.343,17.15-42.73,17.15
			c-16.678,0-30.921-5.704-42.767-17.15c-5.886-5.56-10.283-11.773-13.117-18.604c-2.87-6.868-4.288-13.989-4.288-21.402V874.838
			h29.323v84.952l0.073,48.799v0.327c0,5.051,1.199,9.919,3.634,14.643c2.434,4.723,5.995,8.539,10.682,11.555
			c4.651,2.979,10.138,4.469,16.46,4.469c6.213,0,11.663-1.49,16.314-4.469c4.687-3.016,8.248-6.868,10.719-11.627
			c2.508-4.724,3.743-9.593,3.743-14.571c0-4.941-1.235-9.774-3.743-14.497c-2.47-4.724-6.031-8.575-10.719-11.591
			c-4.324-2.834-9.302-4.324-14.97-4.506v-26.488c15.915,0.29,29.722,5.959,41.386,16.969c5.886,5.632,10.283,11.881,13.153,18.676
			C561.988,994.308,563.442,1001.43,563.442,1008.915z"/>
		<path fill="#333541" d="M746.229,1066.052h-31.311V951.798h7.569l10.322,13.549c5.046-4.268,10.78-7.557,17.203-9.869
			c6.423-2.311,13.076-3.466,19.956-3.466h27.642v29.017h-27.642c-3.286,0-6.384,0.569-9.29,1.706
			c-2.906,1.139-5.429,2.703-7.569,4.693c-2.143,1.992-3.825,4.34-5.045,7.042c-1.224,2.703-1.835,5.585-1.835,8.641V1066.052z"/>
		<path fill="#333541" d="M852.136,1066.052h-31.311V951.798h7.569l10.322,13.549c5.046-4.268,10.78-7.557,17.203-9.869
			c6.423-2.311,13.076-3.466,19.956-3.466h27.642v29.017h-27.642c-3.286,0-6.384,0.569-9.29,1.706
			c-2.906,1.139-5.429,2.703-7.569,4.693c-2.143,1.992-3.825,4.34-5.046,7.042c-1.224,2.703-1.835,5.585-1.835,8.641V1066.052z"/>
	</g>
</g>
</svg>
