<svg width="1279" height="1577" viewBox="0 0 1279 1577" fill="none" xmlns="http://www.w3.org/2000/svg">
<path d="M877.082 208.596C1032.27 213.125 1166.01 -55.5132 1301.56 22.987C1423.95 93.8669 1253.9 317.562 1301.4 454.332C1340.04 565.615 1493.4 596.196 1538.38 704.891C1585.23 818.091 1587.32 951.072 1556.16 1069.94C1524.39 1191.11 1447.27 1294.76 1360.72 1382.58C1275.09 1469.48 1176.68 1591.4 1057.85 1575.61C914.558 1556.56 867.644 1299.7 723.192 1297.83C573.026 1295.89 510.067 1550.39 360.705 1566.6C234.751 1580.28 57.2957 1501.81 34.8263 1372.57C5.12498 1201.72 254.073 1079.68 245.908 906.286C240.183 784.711 -15.9599 770.188 0.78659 649.713C17.5396 529.191 207.726 542.047 305.838 475.147C365.384 434.544 426.135 393.365 466.282 332.305C532.959 230.892 502.61 37.2184 616.276 2.98935C722.306 -28.9407 766.715 205.376 877.082 208.596Z" fill="url(#paint0_linear_148_1168)"/>
<defs>
<linearGradient id="paint0_linear_148_1168" x1="0" y1="0" x2="1439.99" y2="1691.81" gradientUnits="userSpaceOnUse">
<stop stop-color="#2196F3"/>
<stop offset="1" stop-color="#0D47A1"/>
</linearGradient>
</defs>
</svg>
