<svg width="24" height="23" viewBox="0 0 24 23" fill="none" xmlns="http://www.w3.org/2000/svg">
<path id="Star 1" d="M9.90005 2.76718C10.8148 0.922394 11.2721 0 12 0C12.7279 0 13.1852 0.922393 14.0999 2.76718L15.5845 5.76117C15.8514 6.29944 15.9849 6.56857 16.2187 6.73767C16.4525 6.90676 16.7509 6.94992 17.3477 7.03623L20.6673 7.51634C22.7127 7.81217 23.7354 7.96008 23.9603 8.64907C24.1852 9.33807 23.4452 10.0561 21.9651 11.492L19.5631 13.8225C19.1312 14.2415 18.9153 14.451 18.826 14.7246C18.7367 14.9982 18.7876 15.294 18.8896 15.8856L19.4566 19.1763C19.806 21.2039 19.9807 22.2177 19.3919 22.6436C18.803 23.0694 17.8883 22.5907 16.0588 21.6334L13.0897 20.0798C12.5559 19.8004 12.289 19.6608 12 19.6608C11.711 19.6608 11.4441 19.8004 10.9103 20.0798L7.94116 21.6334C6.11169 22.5907 5.19696 23.0694 4.60812 22.6436C4.01927 22.2177 4.19397 21.2039 4.54337 19.1763L5.11042 15.8856C5.21237 15.294 5.26334 14.9982 5.17402 14.7246C5.08471 14.451 4.86878 14.2415 4.43693 13.8225L2.03486 11.492C0.554798 10.0561 -0.185236 9.33807 0.0396828 8.64907C0.264601 7.96008 1.2873 7.81217 3.3327 7.51634L6.65228 7.03623C7.24908 6.94992 7.54748 6.90676 7.78131 6.73767C8.01514 6.56857 8.14859 6.29944 8.41549 5.76117L9.90005 2.76718Z" fill="#2196F3"/>
</svg>
