<svg width="24" height="23" viewBox="0 0 24 23" fill="none" xmlns="http://www.w3.org/2000/svg">
<path id="Star 4" d="M10.796 3.21142C11.2685 2.2585 11.5742 1.64776 11.842 1.26146C11.9086 1.1654 11.961 1.10068 12 1.05773C12.039 1.10068 12.0914 1.1654 12.158 1.26146C12.4258 1.64775 12.7315 2.25849 13.204 3.21141L14.6886 6.20541L14.7039 6.23634C14.8241 6.4787 14.9421 6.71688 15.0627 6.9125C15.1991 7.13393 15.373 7.36021 15.6327 7.54799L16.1635 6.814L15.6327 7.54799C15.8922 7.73562 16.1615 7.82999 16.4143 7.89051C16.638 7.94407 16.9016 7.98215 17.1705 8.02101L17.2046 8.02594L20.5242 8.50604C21.5804 8.65881 22.2593 8.75963 22.712 8.89395C22.82 8.92601 22.8965 8.95466 22.9495 8.97789C22.9205 9.02711 22.8762 9.09389 22.809 9.18127C22.5226 9.55423 22.0333 10.0326 21.2688 10.7743L18.8667 13.1048L18.8419 13.1288C18.6474 13.3175 18.4565 13.5027 18.3069 13.6772C18.1377 13.8745 17.9749 14.1093 17.8753 14.4143C17.7757 14.7194 17.7688 15.0051 17.7891 15.2642C17.8071 15.4932 17.8523 15.7551 17.8982 16.0214L17.9041 16.0554L18.4712 19.3461C18.6517 20.3936 18.7649 21.0663 18.7764 21.5351C18.7792 21.6478 18.7753 21.7289 18.7695 21.7859C18.7123 21.7739 18.6316 21.7521 18.5214 21.7135C18.0759 21.5573 17.4672 21.2418 16.5225 20.7474L13.5534 19.1937L13.5228 19.1778C13.2824 19.0519 13.0465 18.9284 12.8338 18.8409C12.5933 18.7418 12.32 18.6608 12 18.6608C11.68 18.6608 11.4067 18.7418 11.1662 18.8409C10.9535 18.9284 10.7176 19.0519 10.4772 19.1777L10.4466 19.1937L7.47752 20.7474C6.53276 21.2418 5.92408 21.5573 5.47864 21.7135C5.36838 21.7521 5.2877 21.7739 5.23047 21.7859C5.22466 21.7289 5.22084 21.6478 5.2236 21.5351C5.2351 21.0663 5.34834 20.3936 5.52884 19.3461L6.0959 16.0554L6.10177 16.0213C6.1477 15.7551 6.19286 15.4932 6.21087 15.2642C6.23125 15.0051 6.22426 14.7194 6.12465 14.4143C6.0251 14.1093 5.86225 13.8745 5.6931 13.6772C5.54353 13.5027 5.35254 13.3175 5.15805 13.1288L5.13327 13.1048L2.7312 10.7743C1.96671 10.0326 1.47743 9.55423 1.19095 9.18127C1.12383 9.09389 1.0795 9.02712 1.05045 8.97789C1.10353 8.95467 1.17996 8.92601 1.28799 8.89395C1.74065 8.75963 2.4196 8.65881 3.47584 8.50604L6.79542 8.02594C6.80679 8.02429 6.81815 8.02265 6.8295 8.02101C7.0984 7.98216 7.36202 7.94407 7.58573 7.89051C7.83854 7.82999 8.10784 7.73562 8.3673 7.54799C8.62697 7.36021 8.80087 7.13393 8.93733 6.9125C9.05788 6.71688 9.17593 6.4787 9.29607 6.23634L9.3114 6.20541L10.796 3.21142L9.90005 2.76718L10.796 3.21142ZM12.0876 0.979021C12.0876 0.979667 12.0833 0.982774 12.075 0.986407C12.0835 0.980193 12.0877 0.978376 12.0876 0.979021ZM11.925 0.986407C11.9167 0.982773 11.9124 0.979667 11.9124 0.979021C11.9123 0.978376 11.9165 0.980193 11.925 0.986407ZM23.0588 9.03941C23.0582 9.03955 23.0541 9.0366 23.0482 9.03012C23.0564 9.03603 23.0594 9.03927 23.0588 9.03941ZM22.9991 8.87777C23.0001 8.8689 23.0017 8.86399 23.0023 8.86376C23.0029 8.86352 23.0024 8.86796 22.9991 8.87777ZM18.7452 21.9044C18.7448 21.9039 18.7464 21.8988 18.751 21.8909C18.7478 21.901 18.7455 21.905 18.7452 21.9044ZM18.8751 21.8001C18.8838 21.7982 18.8889 21.7982 18.8893 21.7987C18.8897 21.7991 18.8854 21.8001 18.8751 21.8001ZM5.11069 21.7987C5.11109 21.7982 5.11622 21.7982 5.12487 21.8001C5.11461 21.8001 5.11028 21.7991 5.11069 21.7987ZM5.24902 21.8909C5.25358 21.8988 5.25518 21.9039 5.25484 21.9044C5.2545 21.905 5.25222 21.901 5.24902 21.8909ZM0.997719 8.86375C0.998292 8.86399 0.999939 8.86889 1.00094 8.87777C0.997647 8.86796 0.997145 8.86352 0.997719 8.86375ZM0.951799 9.0301C0.945902 9.0366 0.941785 9.03955 0.9412 9.03941C0.940615 9.03927 0.943564 9.03602 0.951799 9.0301Z" fill="white" stroke="#2196F3" stroke-width="2"/>
</svg>
