<svg width="14" height="15" viewBox="0 0 14 15" fill="none" xmlns="http://www.w3.org/2000/svg">
<g id="ep:arrow-up-bold">
<path id="Vector" d="M1.43197 5.13139C1.59606 4.96736 1.81858 4.87521 2.05059 4.87521C2.28261 4.87521 2.50513 4.96736 2.66922 5.13139L7.00047 9.46264L11.3317 5.13139C11.4967 4.97201 11.7178 4.88381 11.9472 4.8858C12.1766 4.8878 12.3961 4.97982 12.5583 5.14205C12.7205 5.30428 12.8126 5.52375 12.8146 5.75317C12.8166 5.98259 12.7284 6.20362 12.569 6.36864L7.61909 11.3185C7.45501 11.4826 7.23249 11.5747 7.00047 11.5747C6.76845 11.5747 6.54593 11.4826 6.38184 11.3185L1.43197 6.36864C1.26793 6.20456 1.17578 5.98204 1.17578 5.75002C1.17578 5.518 1.26793 5.29548 1.43197 5.13139Z" fill="#333333"/>
</g>
</svg>
