<svg version="1.1" id="Layer_1" xmlns="http://www.w3.org/2000/svg" xmlns:xlink="http://www.w3.org/1999/xlink" x="0px" y="0px"
	 width="100%" viewBox="0 0 334 201" enable-background="new 0 0 334 201" xml:space="preserve">
<path fill="#434172" opacity="1.000000" stroke="none" 
	d="
M1.000000,92.000000 
	C1.000000,79.979103 1.000000,67.958214 1.300310,55.178154 
	C1.705759,48.603611 1.810899,42.788231 1.941799,36.508102 
	C1.956180,30.368742 1.944800,24.694124 1.954780,18.550053 
	C1.984093,12.387066 1.992047,6.693533 2.000000,1.000000 
	C60.354229,1.000000 118.708458,1.000000 177.621704,1.208009 
	C178.349197,1.686889 178.588806,1.858272 178.981369,1.924753 
	C179.063202,1.919337 179.224075,1.887270 179.154694,2.356062 
	C179.070541,8.039381 179.055756,13.253908 178.789825,18.847845 
	C178.721848,25.425104 178.905014,31.622952 179.060043,38.298744 
	C179.048004,43.906597 179.064102,49.036510 178.883347,54.520100 
	C178.802689,61.088753 178.918884,67.303726 179.028992,73.954010 
	C179.025253,80.085197 179.027603,85.781082 178.780060,91.856827 
	C178.714478,98.422241 178.898788,104.607788 179.058350,111.272568 
	C179.008331,116.835602 178.983047,121.919411 178.495026,127.052414 
	C120.792473,127.128227 63.552647,127.154839 6.312821,127.181381 
	C6.146424,127.181458 5.977936,127.163383 5.813940,127.183083 
	C2.806319,127.544189 1.694090,126.271751 1.751653,123.210258 
	C1.914289,114.560463 1.882264,105.905762 1.812779,97.253906 
	C1.798697,95.500542 1.283939,93.751198 1.000000,92.000000 
M159.191162,37.037632 
	C158.021957,37.304039 156.852737,37.570442 156.055542,37.752087 
	C157.060059,40.258797 157.920929,42.407070 158.719528,44.399929 
	C160.736511,44.505173 163.016235,44.624126 165.163620,44.736176 
	C165.829239,42.633793 166.576706,40.272911 167.194916,38.320255 
	C165.325745,36.893875 163.458771,35.469166 161.490433,33.967106 
	C161.000992,34.736317 160.393066,35.691757 159.191162,37.037632 
M161.324402,84.434502 
	C159.955399,85.709679 158.586411,86.984863 157.104019,88.365677 
	C157.652817,90.053032 158.414673,92.395432 159.040329,94.319092 
	C161.630737,94.319092 164.036789,94.319092 165.729141,94.319092 
	C166.548996,91.973175 167.284515,89.868584 167.940079,87.992722 
	C165.938690,86.679626 163.815918,85.286888 161.324402,84.434502 
M10.734099,39.929207 
	C11.111637,41.672703 11.489174,43.416195 11.749260,44.617290 
	C14.184102,44.617290 16.590422,44.617290 18.585930,44.617290 
	C19.415487,42.397156 20.259897,40.137268 21.005264,38.142448 
	C19.123850,36.960545 17.137440,35.712677 15.594527,34.743420 
	C13.800934,35.666153 12.117315,36.400311 10.607832,37.397945 
	C10.210404,37.660606 10.351450,38.738014 10.734099,39.929207 
M108.889282,38.993114 
	C106.963882,37.410885 105.038483,35.828659 103.445908,34.519936 
	C101.350693,35.835831 99.426102,37.044567 97.911888,37.995567 
	C98.618423,40.478065 99.280418,42.804081 99.837906,44.762886 
	C102.177933,44.627926 104.451935,44.496777 106.264893,44.392220 
	C107.038879,42.636066 107.729729,41.068558 108.889282,38.993114 
M123.513359,50.276623 
	C121.546791,49.207481 119.580231,48.138336 118.084404,47.325115 
	C116.188301,48.664333 114.377396,49.943378 112.909035,50.980484 
	C113.636024,53.236435 114.332497,55.397675 114.868340,57.060463 
	C117.312729,57.060463 119.595650,57.060463 121.339531,57.060463 
	C122.235001,54.941414 123.140747,52.798027 123.513359,50.276623 
M55.158783,50.125542 
	C54.791092,50.646114 54.001457,51.319855 54.125614,51.661892 
	C54.822655,53.582108 55.739906,55.422390 56.483257,57.070953 
	C58.489727,57.070953 60.886871,57.070953 62.921734,57.070953 
	C63.649315,55.018738 64.407150,52.881176 65.060776,51.037567 
	C63.303577,49.759769 61.380863,48.361607 59.669640,47.117241 
	C58.442608,48.062305 57.139477,49.065983 55.158783,50.125542 
M19.656742,15.360244 
	C20.285727,14.679478 20.914711,13.998713 21.439756,13.430442 
	C19.215382,12.010146 17.223072,10.738029 15.567822,9.681128 
	C13.601374,10.879221 11.670039,12.055923 10.016668,13.063269 
	C10.696242,15.327214 11.416539,17.726822 11.957648,19.529484 
	C14.249203,19.529484 16.630865,19.529484 19.213961,19.529484 
	C19.213961,18.398649 19.213961,17.150593 19.656742,15.360244 
M27.200174,57.594700 
	C29.454275,57.386871 31.708376,57.179043 33.563847,57.007965 
	C34.338108,54.933640 35.159912,52.731945 35.742043,51.172359 
	C33.695721,49.586639 31.809559,48.125034 30.508179,47.116581 
	C28.424646,48.589363 26.500437,49.949524 25.308090,50.792355 
	C25.797224,53.109005 26.229591,55.156796 27.200174,57.594700 
M50.597065,87.226921 
	C48.836117,86.409546 47.075165,85.592171 45.023136,84.639687 
	C43.706795,85.519638 41.774323,86.811462 39.995193,88.000771 
	C40.681816,90.148613 41.420887,92.460510 42.010250,94.304100 
	C44.466415,94.304100 46.767582,94.304100 48.535553,94.304100 
	C49.440300,91.997528 50.312725,89.773354 50.597065,87.226921 
M132.437576,34.242374 
	C130.532547,35.638817 128.627518,37.035259 127.078133,38.171001 
	C127.796806,40.370129 128.549576,42.673569 129.109634,44.387348 
	C131.669662,44.557858 134.054443,44.716690 135.702408,44.826450 
	C136.532639,42.442642 137.314804,40.196865 138.005096,38.214848 
	C136.466522,37.070095 134.778900,35.814442 132.437576,34.242374 
M11.995605,117.769096 
	C12.373938,118.418419 12.758142,119.627373 13.129619,119.623474 
	C15.095962,119.602844 17.059103,119.277199 19.145674,119.043579 
	C19.713615,117.320236 20.443413,115.105751 21.055817,113.247482 
	C19.222237,111.759056 17.377756,110.261772 15.853859,109.024734 
	C13.998557,110.450798 12.155699,111.867302 10.334591,113.267082 
	C10.933507,114.531013 11.536393,115.803322 11.995605,117.769096 
M135.756409,111.967407 
	C134.857559,110.906670 133.958710,109.845940 133.131805,108.870110 
	C131.180161,110.358139 129.256577,111.824768 127.746574,112.976067 
	C128.321671,115.346184 128.850967,117.527588 129.281235,119.300858 
	C131.745132,119.300858 134.152557,119.300858 136.231583,119.300858 
	C136.801315,117.619873 137.545609,116.048325 137.791046,114.402382 
	C137.893875,113.712791 136.939102,112.865494 135.756409,111.967407 
M131.053574,10.725717 
	C129.611526,11.538898 128.169464,12.352078 126.957626,13.035440 
	C127.713409,15.184673 128.508179,17.444757 129.192642,19.391203 
	C131.442825,19.493870 133.827026,19.602652 135.909378,19.697662 
	C136.541397,17.599663 137.260925,15.211231 138.008682,12.729056 
	C135.954010,11.902107 133.618668,10.962197 131.053574,10.725717 
M112.852364,100.103645 
	C113.527039,102.499207 114.201714,104.894775 114.697815,106.656296 
	C117.275314,106.771629 119.635384,106.877228 121.521385,106.961624 
	C122.177132,104.845749 122.881935,102.571617 123.472610,100.665726 
	C121.609596,99.314636 119.763733,97.975990 118.327400,96.934341 
	C116.625313,97.967125 115.083267,98.902794 112.852364,100.103645 
M107.314911,67.955208 
	C107.955147,66.257965 108.595383,64.560722 109.080986,63.273403 
	C107.076004,61.888706 105.174950,60.575787 103.730225,59.578026 
	C101.760452,60.862049 99.889107,62.081909 98.109512,63.241962 
	C98.902000,65.319931 99.774246,67.607018 100.412643,69.280945 
	C102.533829,69.561226 104.312737,69.908455 106.099724,69.956734 
	C106.570358,69.969452 107.065956,69.057983 107.314911,67.955208 
M70.566696,68.544571 
	C71.049660,69.034019 71.546463,69.952950 72.013191,69.937920 
	C73.945038,69.875717 75.867790,69.531013 77.442375,69.334045 
	C78.323845,67.114197 79.175400,64.969711 79.817543,63.352596 
	C77.875473,61.963760 76.060028,60.665482 74.548210,59.584332 
	C72.654724,60.821503 70.718430,62.086643 68.994087,63.213303 
	C69.574371,64.748573 70.173965,66.334908 70.566696,68.544571 
M160.024353,69.979095 
	C161.828796,69.715973 163.633255,69.452858 165.384827,69.197456 
	C166.035202,67.346405 166.804688,65.156349 167.404236,63.449982 
	C165.459412,61.918613 163.651718,60.495220 162.232971,59.378075 
	C160.413254,60.728809 158.524796,62.130573 156.820786,63.395428 
	C157.679138,65.684090 158.527802,67.946938 160.024353,69.979095 
M19.515139,66.647964 
	C20.226036,65.454796 20.936934,64.261635 21.342770,63.580482 
	C19.214773,61.953014 17.423326,60.582939 15.867747,59.393250 
	C14.200121,60.654064 12.277290,62.107822 10.624846,63.357155 
	C11.364244,65.512283 12.077435,67.591019 12.787116,69.659531 
	C14.310521,69.659531 16.054115,69.880516 17.690666,69.558121 
	C18.413858,69.415657 18.920046,68.171608 19.515139,66.647964 
M160.500137,10.460262 
	C159.092209,11.395510 157.684296,12.330757 156.345825,13.219864 
	C157.115707,15.230405 157.945450,17.397270 158.693039,19.349617 
	C160.733932,19.349617 162.922089,19.349617 165.054611,19.349617 
	C165.747543,17.406078 166.527328,15.218919 167.106674,13.593929 
	C165.479691,11.983336 163.930328,10.400167 162.283752,8.925537 
	C162.168198,8.822051 161.333939,9.521099 160.500137,10.460262 
M64.633675,25.705147 
	C62.710468,24.412066 60.787258,23.118982 59.166664,22.029364 
	C57.528275,23.336845 55.777332,24.734148 54.141918,26.039255 
	C54.711960,27.989843 55.356827,30.196482 55.877747,31.978977 
	C58.270729,31.978977 60.555271,31.978977 62.516518,31.978977 
	C63.190971,30.293537 63.967865,28.352108 64.633675,25.705147 
M146.627304,47.454670 
	C145.132416,48.706512 143.637512,49.958355 142.322189,51.059826 
	C142.915710,53.003532 143.605728,55.263268 144.153259,57.056389 
	C146.343353,57.056389 148.625717,57.056389 150.622925,57.056389 
	C151.420715,55.028736 152.289230,52.821331 152.961090,51.113735 
	C150.934921,49.672153 148.978867,48.280468 146.627304,47.454670 
M49.337936,39.946285 
	C49.418224,39.079250 49.870735,37.688358 49.514702,37.435375 
	C47.928226,36.308094 46.110588,35.506134 44.522247,34.663902 
	C42.861759,35.712593 40.849789,36.983265 39.087521,38.096233 
	C39.940022,40.188591 40.822666,42.354927 41.613094,44.294930 
	C43.732529,44.456001 45.999149,44.628258 48.267365,44.800636 
	C48.436905,43.478958 48.633369,41.947372 49.337936,39.946285 
M143.702805,103.052567 
	C143.702805,104.445938 143.702805,105.839317 143.702805,106.774582 
	C146.331436,106.774582 148.770752,106.774582 150.626938,106.774582 
	C151.433792,104.604446 152.225006,102.476402 152.911224,100.630783 
	C151.225754,99.391640 149.286804,97.966141 147.740463,96.829277 
	C145.747101,98.157784 143.726013,99.504761 141.494080,100.992256 
	C142.054138,101.490593 142.639648,102.011597 143.702805,103.052567 
M39.302334,12.706068 
	C39.989754,15.142529 40.677170,17.578989 41.255035,19.627153 
	C43.506565,19.523880 45.933056,19.412580 47.733334,19.330006 
	C48.655987,17.056555 49.500702,14.975139 50.163006,13.343195 
	C48.146317,11.902834 46.196793,10.510443 44.777058,9.496436 
	C43.068649,10.526295 41.531315,11.453027 39.302334,12.706068 
M74.858154,19.072548 
	C75.693665,19.496689 76.529167,19.920830 77.161240,20.241693 
	C77.916542,17.656641 78.601425,15.312588 79.225563,13.176452 
	C77.472549,12.001510 75.562477,10.721296 73.985374,9.664253 
	C72.054642,10.934967 70.264091,12.113417 68.678062,13.157260 
	C69.353340,15.203218 70.077011,17.395767 70.886002,19.846827 
	C71.721733,19.584501 72.929466,19.205410 74.858154,19.072548 
M104.746155,110.050056 
	C104.357513,109.538200 103.968872,109.026344 103.712570,108.688789 
	C101.776382,110.355080 99.975235,111.905159 98.502472,113.172623 
	C99.149925,115.404678 99.746712,117.462059 100.261375,119.236336 
	C102.532043,119.236336 104.940674,119.236336 106.745224,119.236336 
	C107.570488,116.979431 108.336937,114.883369 109.085350,112.836632 
	C107.815781,112.147018 106.452423,111.406464 104.746155,110.050056 
M165.899628,118.194168 
	C166.454941,116.433441 167.010239,114.672714 167.465149,113.230301 
	C165.493164,111.678055 163.557892,110.154686 162.143600,109.041428 
	C160.195023,110.521736 158.404739,111.881775 156.809875,113.093361 
	C157.562805,115.319901 158.304321,117.512726 158.966217,119.470047 
	C161.362152,119.291794 163.599258,119.125351 165.899628,118.194168 
M74.597031,83.516624 
	C73.733765,85.889252 72.870491,88.261879 72.007217,90.634506 
	C71.147217,89.730080 70.287224,88.825653 69.427223,87.921227 
	C70.148079,90.146187 70.868935,92.371140 71.467484,94.218597 
	C73.715576,94.218597 75.875427,94.218597 77.783531,94.218597 
	C78.529808,92.142326 79.350845,89.858055 79.836861,88.505890 
	C78.114166,86.738678 76.668472,85.255623 74.597031,83.516624 
M69.999306,42.610641 
	C72.471092,43.543324 74.942871,44.476002 77.053558,45.272430 
	C77.941612,42.561665 78.696625,40.256992 79.364227,38.219124 
	C77.487686,36.989910 75.579002,35.739632 73.991791,34.699940 
	C72.066963,35.941505 70.271675,37.099514 68.286972,38.379700 
	C68.832962,39.364346 69.513168,40.591049 69.999306,42.610641 
M129.545029,87.075768 
	C129.000793,87.716286 127.890915,88.501816 128.011429,88.971909 
	C128.500656,90.880188 129.367676,92.691605 129.979980,94.245857 
	C132.246918,94.245857 134.498779,94.245857 136.363449,94.245857 
	C137.161743,92.006744 137.888733,89.967606 138.502228,88.246857 
	C136.628204,86.725685 134.787445,85.231514 132.997925,83.778938 
	C132.113342,84.814613 131.188217,85.897751 129.545029,87.075768 
M17.816412,85.975479 
	C17.199097,85.114578 16.581781,84.253685 16.328255,83.900124 
	C14.218479,85.485153 12.437679,86.823029 10.837066,88.025543 
	C11.465523,90.137558 12.135921,92.390533 12.700357,94.287399 
	C15.090348,94.287399 17.368176,94.287399 19.337343,94.287399 
	C20.112787,91.973869 20.838156,89.809746 21.593052,87.557518 
	C20.425303,87.204643 19.343573,86.877769 17.816412,85.975479 
M100.385605,12.145528 
	C99.364960,12.401614 98.344315,12.657701 97.694305,12.820792 
	C98.574951,15.373804 99.318642,17.529795 99.945358,19.346664 
	C102.146957,19.346664 104.309296,19.346664 106.292038,19.346664 
	C107.098236,17.268703 107.933601,15.115574 108.606697,13.380691 
	C106.674065,11.984385 104.839973,10.659279 102.846085,9.218720 
	C102.332077,9.958699 101.692375,10.879623 100.385605,12.145528 
M93.661812,52.570278 
	C93.791832,51.811348 94.273186,50.578056 93.994164,50.371414 
	C92.334732,49.142387 90.499435,48.150803 88.822098,47.139107 
	C87.274200,48.296650 85.342987,49.740849 83.617798,51.030972 
	C84.322540,53.122887 85.057579,55.304710 85.641930,57.039268 
	C87.934273,57.039268 90.113609,57.039268 92.422035,57.039268 
	C92.625458,55.956322 92.889595,54.550190 93.661812,52.570278 
M84.992233,28.665623 
	C84.895897,29.905088 84.799561,31.144552 84.734993,31.975266 
	C87.445244,31.975266 89.862991,31.975266 91.820084,31.975266 
	C92.526077,29.825659 93.230637,27.680416 93.766190,26.049751 
	C91.960976,24.554379 90.231316,23.121592 88.739502,21.885826 
	C86.911972,23.301771 85.078285,24.722485 83.046219,26.296900 
	C83.577065,26.874006 84.108536,27.451790 84.992233,28.665623 
M133.448853,59.368790 
	C131.432556,60.747459 129.416245,62.126129 127.717018,63.287991 
	C128.476151,65.582413 129.183884,67.721542 129.754898,69.447395 
	C132.063995,69.447395 134.228058,69.447395 136.163498,69.447395 
	C136.856476,67.405449 137.610596,65.183357 138.191742,63.470921 
	C136.682816,62.210148 135.304367,61.058403 133.448853,59.368790 
M116.404617,31.889120 
	C118.063988,31.889120 119.723358,31.889120 121.108864,31.889120 
	C121.770592,29.967890 122.515106,27.806326 123.093422,26.127270 
	C121.161530,24.546347 119.372955,23.082708 117.849968,21.836401 
	C116.170006,23.221752 114.397362,24.683535 112.423767,26.311026 
	C113.468460,28.142321 114.647118,30.208464 116.404617,31.889120 
M69.253151,114.457794 
	C69.899323,116.107315 70.545502,117.756836 71.129181,119.246826 
	C73.101891,119.246826 75.393280,119.246826 77.486282,119.246826 
	C78.181557,117.147575 78.909401,114.949982 79.512810,113.128098 
	C77.691879,111.767822 75.982361,110.490761 74.177322,109.142349 
	C72.541328,110.606201 70.689949,112.262779 69.253151,114.457794 
M27.190741,24.863476 
	C26.290443,25.115200 25.390146,25.366926 24.806705,25.530058 
	C25.543110,28.017078 26.187616,30.193726 26.674694,31.838705 
	C29.072649,31.838705 31.319818,31.838705 33.332264,31.838705 
	C33.924725,29.993420 34.588226,27.926867 35.183018,26.074322 
	C33.420547,24.636608 31.579264,23.134604 29.694715,21.597307 
	C29.064857,22.573778 28.438671,23.544554 27.190741,24.863476 
M34.324722,106.804321 
	C34.624001,104.719612 34.923279,102.634895 35.231712,100.486435 
	C33.824993,99.393738 31.909792,97.906059 30.463272,96.782448 
	C28.554592,98.184738 26.732092,99.523720 25.120773,100.707550 
	C25.742012,102.616608 26.485460,104.901222 26.960102,106.359795 
	C29.477001,106.690315 31.713678,106.984032 34.324722,106.804321 
M61.944691,107.084190 
	C62.478531,106.964211 63.424793,106.944115 63.481827,106.708649 
	C63.999527,104.571312 64.361969,102.396370 64.706017,100.571045 
	C63.066853,99.351219 61.271076,98.014839 59.812023,96.929047 
	C57.865669,98.253387 55.988205,99.530861 54.592236,100.480705 
	C55.209976,102.828964 55.787853,105.025688 56.242580,106.754272 
	C57.811787,106.754272 59.593372,106.754272 61.944691,107.084190 
M41.136837,66.103592 
	C41.098301,72.153046 46.821651,66.842033 47.999260,69.943512 
	C48.892467,67.502655 49.682480,65.343796 50.406204,63.366077 
	C48.535309,62.106346 46.627590,60.821823 45.104214,59.796085 
	C43.176903,61.059578 41.413315,62.215736 39.479408,63.483551 
	C39.887226,64.091393 40.332653,64.755280 41.136837,66.103592 
M142.485443,27.478846 
	C142.918076,29.090164 143.350708,30.701481 143.667877,31.882820 
	C145.971573,31.882820 148.346725,31.882820 150.461609,31.882820 
	C151.055573,29.872240 151.695068,27.707521 152.178635,26.070631 
	C150.303772,24.642944 148.586304,23.335119 146.582321,21.809109 
	C145.176666,23.367340 143.494064,25.232571 142.485443,27.478846 
M34.365337,81.872337 
	C34.755096,79.700851 35.144855,77.529373 35.472462,75.704170 
	C33.788437,74.411469 31.958376,73.006676 30.454992,71.852646 
	C28.648611,73.210197 26.759478,74.629944 25.300114,75.726707 
	C25.985481,77.956444 26.642878,80.095184 27.024809,81.337738 
	C29.567623,81.701363 31.777197,82.017334 34.365337,81.872337 
M88.152618,96.821892 
	C86.575020,98.221252 84.997421,99.620613 83.615028,100.846825 
	C84.356209,102.769348 85.135399,104.790497 85.802971,106.522095 
	C88.022781,106.522095 90.189072,106.522095 92.066681,106.522095 
	C92.873055,104.485374 93.674606,102.460815 94.295578,100.892372 
	C92.378052,99.333717 90.513115,97.817810 88.152618,96.821892 
M152.902267,76.741493 
	C151.143387,74.958260 149.384506,73.175026 147.831848,71.600868 
	C146.076813,73.028976 144.278381,74.492401 142.648102,75.819000 
	C143.149948,77.709229 143.737839,79.923500 144.207123,81.691071 
	C146.356827,81.691071 148.762894,81.691071 150.898911,81.691071 
	C151.333359,80.326447 151.842300,78.727867 152.902267,76.741493 
M120.040115,81.750854 
	C120.680389,81.517303 121.714073,81.448273 121.892517,81.021576 
	C122.646400,79.218933 123.145622,77.309792 123.611298,75.839493 
	C121.778366,74.499962 119.834297,73.079208 118.334763,71.983330 
	C116.327415,73.426430 114.529602,74.718903 113.268303,75.625671 
	C113.876518,78.083389 114.408882,80.234619 114.920952,82.303825 
	C116.330116,82.012115 117.850639,81.697357 120.040115,81.750854 
M107.168808,92.700272 
	C107.971375,91.026199 108.773941,89.352127 109.384941,88.077644 
	C107.343307,86.707733 105.554825,85.507690 103.892563,84.392342 
	C102.076424,85.663780 100.251328,86.941490 98.580757,88.111023 
	C99.261574,90.095711 99.922256,92.021690 100.653000,94.151909 
	C102.826309,93.920929 104.947960,93.695450 107.168808,92.700272 
M44.567280,109.124382 
	C42.981560,110.526817 41.395836,111.929260 39.932907,113.223106 
	C40.538681,115.278770 41.186176,117.476013 41.748840,119.385391 
	C43.850281,119.385391 45.853683,119.385391 47.225571,119.385391 
	C48.355480,117.074356 49.343094,115.054359 50.243263,113.213219 
	C48.650864,111.934525 46.978745,110.591820 44.567280,109.124382 
M87.173676,81.831230 
	C88.846436,81.740372 90.519196,81.649513 92.128761,81.562088 
	C92.853943,79.631783 93.645966,77.523529 94.227516,75.975548 
	C92.288918,74.402924 90.537270,72.981956 89.068451,71.790428 
	C87.320580,73.142830 85.439552,74.598259 83.689911,75.952026 
	C84.590034,77.963516 85.502373,80.002312 87.173676,81.831230 
M65.446877,76.180176 
	C63.477867,74.693802 61.508858,73.207436 59.810158,71.925117 
	C57.999107,73.277069 56.190342,74.627319 54.574841,75.833298 
	C55.273960,77.773506 56.003899,79.799217 56.615654,81.496964 
	C58.762398,81.631729 61.032280,81.774223 62.861423,81.889053 
	C63.586548,80.197021 64.328407,78.465942 65.446877,76.180176 
z"/>
<path fill="#FDFBFC" opacity="1.000000" stroke="none" 
	d="
M1.000000,146.000000 
	C1.000000,140.645065 1.000000,135.290146 1.466324,129.414474 
	C2.764424,128.866653 3.596184,128.816330 4.427977,128.815796 
	C113.137154,128.745438 221.846329,128.677170 330.555511,128.628052 
	C332.036957,128.627380 333.518494,128.870621 335.000000,129.000000 
	C335.000000,134.354935 335.000000,139.709854 334.531921,145.506531 
	C283.629425,145.943481 233.195023,145.928024 182.760605,145.936661 
	C122.173737,145.947052 61.586868,145.977966 1.000000,146.000000 
z"/>
<path fill="#FDF9FA" opacity="1.000000" stroke="none" 
	d="
M335.000000,165.000000 
	C335.000000,170.354935 335.000000,175.709854 334.532043,181.561371 
	C286.958954,182.063934 239.853836,182.082413 192.748703,182.072830 
	C128.832474,182.059799 64.916237,182.025299 1.000000,182.000000 
	C1.000000,176.645065 1.000000,171.290146 1.468517,165.452911 
	C80.667534,164.952637 159.398041,164.924698 238.128540,164.921478 
	C270.419037,164.920166 302.709503,164.972214 335.000000,165.000000 
z"/>
<path fill="#B32337" opacity="1.000000" stroke="none" 
	d="
M335.000000,184.000000 
	C335.000000,189.022095 335.000000,194.044189 334.534912,199.597992 
	C223.473083,200.129684 112.876343,200.129684 1.653342,200.129684 
	C1.653342,196.592331 1.652133,193.645782 1.653582,190.699219 
	C1.657060,183.627594 1.657563,183.623718 8.594271,183.623672 
	C115.412140,183.622833 222.230011,183.621048 329.047882,183.638794 
	C331.031952,183.639114 333.015961,183.874359 335.000000,184.000000 
z"/>
<path fill="#B22135" opacity="1.000000" stroke="none" 
	d="
M335.000000,148.000000 
	C335.000000,152.689255 335.000000,157.378510 334.536072,162.609070 
	C226.269745,163.166779 118.467369,163.196426 10.665005,163.177917 
	C0.531921,163.176178 2.008252,164.598648 1.903147,154.518311 
	C1.832707,147.762665 1.893099,147.758057 8.611922,147.758011 
	C115.581474,147.757172 222.551025,147.756241 329.520569,147.767532 
	C331.347046,147.767731 333.173523,147.919144 335.000000,148.000000 
z"/>
<path fill="#B4293C" opacity="1.000000" stroke="none" 
	d="
M179.029938,91.476959 
	C179.027603,85.781082 179.025253,80.085197 179.227325,73.906631 
	C179.431732,73.423950 179.783447,73.218971 180.263550,73.270309 
	C230.678268,73.328156 280.612885,73.337624 330.547485,73.326851 
	C332.031677,73.326530 333.515839,73.113739 335.000000,73.000000 
	C335.000000,79.021156 335.000000,85.042305 334.561157,91.348236 
	C303.797516,91.599792 273.472687,91.537865 243.147873,91.543198 
	C221.989868,91.546921 200.831879,91.642784 179.524170,91.609512 
	C179.374451,91.521538 179.029938,91.476959 179.029938,91.476959 
z"/>
<path fill="#B22034" opacity="1.000000" stroke="none" 
	d="
M179.040970,18.468435 
	C179.055756,13.253908 179.070541,8.039381 179.600281,2.371675 
	C231.743484,1.945665 283.371735,1.972833 335.000000,2.000000 
	C335.000000,7.354929 335.000000,12.709859 334.557953,18.359636 
	C313.130768,18.625322 292.145569,18.562239 271.160461,18.575052 
	C240.683395,18.593658 210.206360,18.667032 179.573273,18.610153 
	C179.417236,18.503256 179.040970,18.468435 179.040970,18.468435 
z"/>
<path fill="#FDF9FA" opacity="1.000000" stroke="none" 
	d="
M335.000000,72.532394 
	C333.515839,73.113739 332.031677,73.326530 330.547485,73.326851 
	C280.612885,73.337624 230.678268,73.328156 180.243729,72.783981 
	C179.703369,68.757217 179.996246,65.224335 179.545013,61.789188 
	C178.853195,56.522491 181.048660,55.505291 185.941681,55.523239 
	C233.980362,55.699493 282.019958,55.625889 330.059296,55.645149 
	C331.706238,55.645809 333.353088,55.876518 335.000000,56.000000 
	C335.000000,61.354931 335.000000,66.709862 335.000000,72.532394 
z"/>
<path fill="#FCF9FA" opacity="1.000000" stroke="none" 
	d="
M179.729309,18.717051 
	C210.206360,18.667032 240.683395,18.593658 271.160461,18.575052 
	C292.145569,18.562239 313.130768,18.625322 334.557953,18.827242 
	C335.000000,24.354929 335.000000,29.709860 334.544067,35.654480 
	C311.146118,36.269047 288.204163,36.305309 265.262177,36.315842 
	C238.329498,36.328205 211.396576,36.262165 184.464462,36.385094 
	C180.884842,36.401432 179.271667,35.549850 179.558182,31.677055 
	C179.876328,27.376371 179.693817,23.038647 179.729309,18.717051 
z"/>
<path fill="#FBF4F4" opacity="1.000000" stroke="none" 
	d="
M179.673859,91.697495 
	C200.831879,91.642784 221.989868,91.546921 243.147873,91.543198 
	C273.472687,91.537865 303.797516,91.599792 334.561157,91.816498 
	C335.000000,97.354927 335.000000,102.709862 334.544006,108.654266 
	C310.642151,109.268303 287.196228,109.303711 263.750336,109.314560 
	C237.310593,109.326790 210.870544,109.258240 184.431427,109.385468 
	C180.828140,109.402802 179.267181,108.511864 179.543701,104.661270 
	C179.852646,100.359085 179.652466,96.020332 179.673859,91.697495 
z"/>
<path fill="#B32437" opacity="1.000000" stroke="none" 
	d="
M178.957764,127.003212 
	C178.983047,121.919411 179.008331,116.835602 179.518112,111.302383 
	C198.942047,110.853683 217.881485,110.838242 236.820908,110.858704 
	C269.547272,110.894058 302.273651,110.951706 335.000000,111.000000 
	C335.000000,116.022095 335.000000,121.044182 334.531952,126.559952 
	C282.361847,127.036819 230.659805,127.020012 178.957764,127.003212 
z"/>
<path fill="#B4283B" opacity="1.000000" stroke="none" 
	d="
M179.080185,54.166424 
	C179.064102,49.036510 179.048004,43.906597 179.519363,38.325500 
	C185.340073,37.875420 190.673325,37.873493 196.006592,37.878094 
	C242.337723,37.918068 288.668854,37.959209 335.000000,38.000000 
	C335.000000,43.022091 335.000000,48.044186 334.532806,53.575150 
	C282.403809,54.111488 230.741989,54.138954 179.080185,54.166424 
z"/>
<path fill="#DAA1A8" opacity="1.000000" stroke="none" 
	d="
M335.000000,183.666672 
	C333.015961,183.874359 331.031952,183.639114 329.047882,183.638794 
	C222.230011,183.621048 115.412140,183.622833 8.594271,183.623672 
	C1.657563,183.623718 1.657060,183.627594 1.653582,190.699219 
	C1.652133,193.645782 1.653342,196.592331 1.653342,200.129684 
	C112.876343,200.129684 223.473083,200.129684 334.534912,200.064850 
	C334.834351,200.666672 334.805756,201.814590 334.476959,201.908218 
	C333.553070,202.171280 332.505554,202.000000 331.506775,202.000000 
	C221.808777,202.000000 112.110786,202.000000 2.412789,202.000000 
	C1.941886,202.000000 1.470983,202.000000 1.000000,202.000000 
	C1.000000,195.589127 1.000000,189.263596 1.000000,182.469040 
	C64.916237,182.025299 128.832474,182.059799 192.748703,182.072830 
	C239.853836,182.082413 286.958954,182.063934 334.532043,182.028976 
	C335.000000,182.444443 335.000000,182.888901 335.000000,183.666672 
z"/>
<path fill="#CC7882" opacity="1.000000" stroke="none" 
	d="
M335.000000,147.666656 
	C333.173523,147.919144 331.347046,147.767731 329.520569,147.767532 
	C222.551025,147.756241 115.581474,147.757172 8.611922,147.758011 
	C1.893099,147.758057 1.832707,147.762665 1.903147,154.518311 
	C2.008252,164.598648 0.531921,163.176178 10.665005,163.177917 
	C118.467369,163.196426 226.269745,163.166779 334.536072,163.075195 
	C335.000000,163.444443 335.000000,163.888901 335.000000,164.666672 
	C302.709503,164.972214 270.419037,164.920166 238.128540,164.921478 
	C159.398041,164.924698 80.667534,164.952637 1.468517,164.985306 
	C1.000000,158.978851 1.000000,152.957703 1.000000,146.468277 
	C61.586868,145.977966 122.173737,145.947052 182.760605,145.936661 
	C233.195023,145.928024 283.629425,145.943481 334.531921,145.974121 
	C335.000000,146.444443 335.000000,146.888901 335.000000,147.666656 
z"/>
<path fill="#A37B90" opacity="1.000000" stroke="none" 
	d="
M178.495026,127.052414 
	C230.659805,127.020012 282.361847,127.036819 334.531952,127.026810 
	C335.000000,127.444450 335.000000,127.888893 335.000000,128.666672 
	C333.518494,128.870621 332.036957,128.627380 330.555511,128.628052 
	C221.846329,128.677170 113.137154,128.745438 4.427977,128.815796 
	C3.596184,128.816330 2.764424,128.866653 1.466324,128.946869 
	C1.000000,116.979103 1.000000,104.958214 1.000000,92.468658 
	C1.283939,93.751198 1.798697,95.500542 1.812779,97.253906 
	C1.882264,105.905762 1.914289,114.560463 1.751653,123.210258 
	C1.694090,126.271751 2.806319,127.544189 5.813940,127.183083 
	C5.977936,127.163383 6.146424,127.181458 6.312821,127.181381 
	C63.552647,127.154839 120.792473,127.128227 178.495026,127.052414 
z"/>
<path fill="#A37B90" opacity="1.000000" stroke="none" 
	d="
M335.000000,37.666668 
	C288.668854,37.959209 242.337723,37.918068 196.006592,37.878094 
	C190.673325,37.873493 185.340073,37.875420 179.547485,37.847557 
	C178.905014,31.622952 178.721848,25.425104 178.789825,18.847845 
	C179.040970,18.468435 179.417236,18.503256 179.573273,18.610153 
	C179.693817,23.038647 179.876328,27.376371 179.558182,31.677055 
	C179.271667,35.549850 180.884842,36.401432 184.464462,36.385094 
	C211.396576,36.262165 238.329498,36.328205 265.262177,36.315842 
	C288.204163,36.305309 311.146118,36.269047 334.544067,36.122086 
	C335.000000,36.444447 335.000000,36.888889 335.000000,37.666668 
z"/>
<path fill="#A37B90" opacity="1.000000" stroke="none" 
	d="
M178.883347,54.520100 
	C230.741989,54.138954 282.403809,54.111488 334.532806,54.042011 
	C335.000000,54.444447 335.000000,54.888889 335.000000,55.666668 
	C333.353088,55.876518 331.706238,55.645809 330.059296,55.645149 
	C282.019958,55.625889 233.980362,55.699493 185.941681,55.523239 
	C181.048660,55.505291 178.853195,56.522491 179.545013,61.789188 
	C179.996246,65.224335 179.703369,68.757217 179.763626,72.732651 
	C179.783447,73.218971 179.431732,73.423950 179.233398,73.471329 
	C178.918884,67.303726 178.802689,61.088753 178.883347,54.520100 
z"/>
<path fill="#A37B90" opacity="1.000000" stroke="none" 
	d="
M335.000000,110.666672 
	C302.273651,110.951706 269.547272,110.894058 236.820908,110.858704 
	C217.881485,110.838242 198.942047,110.853683 179.542847,110.823151 
	C178.898788,104.607788 178.714478,98.422241 178.780060,91.856827 
	C179.029938,91.476959 179.374451,91.521538 179.524155,91.609512 
	C179.652466,96.020332 179.852646,100.359085 179.543701,104.661270 
	C179.267181,108.511864 180.828140,109.402802 184.431427,109.385468 
	C210.870544,109.258240 237.310593,109.326790 263.750336,109.314560 
	C287.196228,109.303711 310.642151,109.268303 334.544006,109.121872 
	C335.000000,109.444443 335.000000,109.888893 335.000000,110.666672 
z"/>
<path fill="#BF5763" opacity="1.000000" stroke="none" 
	d="
M335.000000,1.500000 
	C283.371735,1.972833 231.743484,1.945665 179.669647,1.902884 
	C179.224075,1.887270 179.063202,1.919337 179.033783,1.695546 
	C179.004379,1.471755 179.000000,1.000000 179.000000,1.000000 
	C231.000000,1.000000 283.000000,1.000000 335.000000,1.500000 
z"/>
<path fill="#6A5F7C" opacity="1.000000" stroke="none" 
	d="
M1.916038,36.972847 
	C1.810899,42.788231 1.705759,48.603611 1.300310,54.709496 
	C1.000000,49.311958 1.000000,43.623920 1.229050,37.462502 
	C1.458099,36.989120 1.916038,36.972847 1.916038,36.972847 
z"/>
<path fill="#6E6B8B" opacity="1.000000" stroke="none" 
	d="
M1.941799,36.508102 
	C1.916038,36.972847 1.458099,36.989120 1.229050,36.994560 
	C1.000000,31.311960 1.000000,25.623919 1.233396,19.470840 
	C1.466793,19.005802 1.933421,19.019505 1.933421,19.019505 
	C1.944800,24.694124 1.956180,30.368742 1.941799,36.508102 
z"/>
<path fill="#6A5F7C" opacity="1.000000" stroke="none" 
	d="
M1.954780,18.550053 
	C1.933421,19.019505 1.466793,19.005802 1.233396,19.002901 
	C1.000000,13.000000 1.000000,7.000000 1.500000,1.000000 
	C1.992047,6.693533 1.984093,12.387066 1.954780,18.550053 
z"/>
<path fill="#5B4A75" opacity="1.000000" stroke="none" 
	d="
M178.750000,1.000000 
	C179.000000,1.000000 179.004379,1.471755 178.951965,1.700962 
	C178.588806,1.858272 178.349197,1.686889 178.090363,1.208009 
	C178.000000,1.000000 178.500000,1.000000 178.750000,1.000000 
z"/>
<path fill="#D2D2DC" opacity="1.000000" stroke="none" 
	d="
M159.488159,36.842415 
	C160.393066,35.691757 161.000992,34.736317 161.490433,33.967106 
	C163.458771,35.469166 165.325745,36.893875 167.194916,38.320255 
	C166.576706,40.272911 165.829239,42.633793 165.163620,44.736176 
	C163.016235,44.624126 160.736511,44.505173 158.719528,44.399929 
	C157.920929,42.407070 157.060059,40.258797 156.055542,37.752087 
	C156.852737,37.570442 158.021957,37.304039 159.488159,36.842415 
z"/>
<path fill="#D1D1DB" opacity="1.000000" stroke="none" 
	d="
M161.508759,84.164322 
	C163.815918,85.286888 165.938690,86.679626 167.940079,87.992722 
	C167.284515,89.868584 166.548996,91.973175 165.729141,94.319092 
	C164.036789,94.319092 161.630737,94.319092 159.040329,94.319092 
	C158.414673,92.395432 157.652817,90.053032 157.104019,88.365677 
	C158.586411,86.984863 159.955399,85.709679 161.508759,84.164322 
z"/>
<path fill="#D2D2DC" opacity="1.000000" stroke="none" 
	d="
M10.489661,39.685242 
	C10.351450,38.738014 10.210404,37.660606 10.607832,37.397945 
	C12.117315,36.400311 13.800934,35.666153 15.594527,34.743420 
	C17.137440,35.712677 19.123850,36.960545 21.005264,38.142448 
	C20.259897,40.137268 19.415487,42.397156 18.585930,44.617290 
	C16.590422,44.617290 14.184102,44.617290 11.749260,44.617290 
	C11.489174,43.416195 11.111637,41.672703 10.489661,39.685242 
z"/>
<path fill="#D2D2DC" opacity="1.000000" stroke="none" 
	d="
M108.654930,39.247082 
	C107.729729,41.068558 107.038879,42.636066 106.264893,44.392220 
	C104.451935,44.496777 102.177933,44.627926 99.837906,44.762886 
	C99.280418,42.804081 98.618423,40.478065 97.911888,37.995567 
	C99.426102,37.044567 101.350693,35.835831 103.445908,34.519936 
	C105.038483,35.828659 106.963882,37.410885 108.654930,39.247082 
z"/>
<path fill="#D8D8E0" opacity="1.000000" stroke="none" 
	d="
M123.779922,50.465633 
	C123.140747,52.798027 122.235001,54.941414 121.339531,57.060463 
	C119.595650,57.060463 117.312729,57.060463 114.868340,57.060463 
	C114.332497,55.397675 113.636024,53.236435 112.909035,50.980484 
	C114.377396,49.943378 116.188301,48.664333 118.084404,47.325115 
	C119.580231,48.138336 121.546791,49.207481 123.779922,50.465633 
z"/>
<path fill="#D8D8E0" opacity="1.000000" stroke="none" 
	d="
M55.497566,50.097599 
	C57.139477,49.065983 58.442608,48.062305 59.669640,47.117241 
	C61.380863,48.361607 63.303577,49.759769 65.060776,51.037567 
	C64.407150,52.881176 63.649315,55.018738 62.921734,57.070953 
	C60.886871,57.070953 58.489727,57.070953 56.483257,57.070953 
	C55.739906,55.422390 54.822655,53.582108 54.125614,51.661892 
	C54.001457,51.319855 54.791092,50.646114 55.497566,50.097599 
z"/>
<path fill="#D4D4DD" opacity="1.000000" stroke="none" 
	d="
M19.435352,15.631392 
	C19.213961,17.150593 19.213961,18.398649 19.213961,19.529484 
	C16.630865,19.529484 14.249203,19.529484 11.957648,19.529484 
	C11.416539,17.726822 10.696242,15.327214 10.016668,13.063269 
	C11.670039,12.055923 13.601374,10.879221 15.567822,9.681128 
	C17.223072,10.738029 19.215382,12.010146 21.439756,13.430442 
	C20.914711,13.998713 20.285727,14.679478 19.435352,15.631392 
z"/>
<path fill="#D8D8E0" opacity="1.000000" stroke="none" 
	d="
M26.931067,57.399643 
	C26.229591,55.156796 25.797224,53.109005 25.308090,50.792355 
	C26.500437,49.949524 28.424646,48.589363 30.508179,47.116581 
	C31.809559,48.125034 33.695721,49.586639 35.742043,51.172359 
	C35.159912,52.731945 34.338108,54.933640 33.563847,57.007965 
	C31.708376,57.179043 29.454275,57.386871 26.931067,57.399643 
z"/>
<path fill="#D1D1DB" opacity="1.000000" stroke="none" 
	d="
M50.891109,87.388046 
	C50.312725,89.773354 49.440300,91.997528 48.535553,94.304100 
	C46.767582,94.304100 44.466415,94.304100 42.010250,94.304100 
	C41.420887,92.460510 40.681816,90.148613 39.995193,88.000771 
	C41.774323,86.811462 43.706795,85.519638 45.023136,84.639687 
	C47.075165,85.592171 48.836117,86.409546 50.891109,87.388046 
z"/>
<path fill="#D0CFDA" opacity="1.000000" stroke="none" 
	d="
M132.764435,34.400581 
	C134.778900,35.814442 136.466522,37.070095 138.005096,38.214848 
	C137.314804,40.196865 136.532639,42.442642 135.702408,44.826450 
	C134.054443,44.716690 131.669662,44.557858 129.109634,44.387348 
	C128.549576,42.673569 127.796806,40.370129 127.078133,38.171001 
	C128.627518,37.035259 130.532547,35.638817 132.764435,34.400581 
z"/>
<path fill="#D4D4DD" opacity="1.000000" stroke="none" 
	d="
M12.067442,117.422363 
	C11.536393,115.803322 10.933507,114.531013 10.334591,113.267082 
	C12.155699,111.867302 13.998557,110.450798 15.853859,109.024734 
	C17.377756,110.261772 19.222237,111.759056 21.055817,113.247482 
	C20.443413,115.105751 19.713615,117.320236 19.145674,119.043579 
	C17.059103,119.277199 15.095962,119.602844 13.129619,119.623474 
	C12.758142,119.627373 12.373938,118.418419 12.067442,117.422363 
z"/>
<path fill="#D0CFDA" opacity="1.000000" stroke="none" 
	d="
M136.110794,112.028656 
	C136.939102,112.865494 137.893875,113.712791 137.791046,114.402382 
	C137.545609,116.048325 136.801315,117.619873 136.231583,119.300858 
	C134.152557,119.300858 131.745132,119.300858 129.281235,119.300858 
	C128.850967,117.527588 128.321671,115.346184 127.746574,112.976067 
	C129.256577,111.824768 131.180161,110.358139 133.131805,108.870110 
	C133.958710,109.845940 134.857559,110.906670 136.110794,112.028656 
z"/>
<path fill="#D4D4DD" opacity="1.000000" stroke="none" 
	d="
M131.168457,10.374002 
	C133.618668,10.962197 135.954010,11.902107 138.008682,12.729056 
	C137.260925,15.211231 136.541397,17.599663 135.909378,19.697662 
	C133.827026,19.602652 131.442825,19.493870 129.192642,19.391203 
	C128.508179,17.444757 127.713409,15.184673 126.957626,13.035440 
	C128.169464,12.352078 129.611526,11.538898 131.168457,10.374002 
z"/>
<path fill="#D8D8E0" opacity="1.000000" stroke="none" 
	d="
M113.196793,99.971054 
	C115.083267,98.902794 116.625313,97.967125 118.327400,96.934341 
	C119.763733,97.975990 121.609596,99.314636 123.472610,100.665726 
	C122.881935,102.571617 122.177132,104.845749 121.521385,106.961624 
	C119.635384,106.877228 117.275314,106.771629 114.697815,106.656296 
	C114.201714,104.894775 113.527039,102.499207 113.196793,99.971054 
z"/>
<path fill="#D1D1DB" opacity="1.000000" stroke="none" 
	d="
M107.432503,68.263062 
	C107.065956,69.057983 106.570358,69.969452 106.099724,69.956734 
	C104.312737,69.908455 102.533829,69.561226 100.412643,69.280945 
	C99.774246,67.607018 98.902000,65.319931 98.109512,63.241962 
	C99.889107,62.081909 101.760452,60.862049 103.730225,59.578026 
	C105.174950,60.575787 107.076004,61.888706 109.080986,63.273403 
	C108.595383,64.560722 107.955147,66.257965 107.432503,68.263062 
z"/>
<path fill="#D7D7E0" opacity="1.000000" stroke="none" 
	d="
M70.670120,68.232903 
	C70.173965,66.334908 69.574371,64.748573 68.994087,63.213303 
	C70.718430,62.086643 72.654724,60.821503 74.548210,59.584332 
	C76.060028,60.665482 77.875473,61.963760 79.817543,63.352596 
	C79.175400,64.969711 78.323845,67.114197 77.442375,69.334045 
	C75.867790,69.531013 73.945038,69.875717 72.013191,69.937920 
	C71.546463,69.952950 71.049660,69.034019 70.670120,68.232903 
z"/>
<path fill="#D6D6DF" opacity="1.000000" stroke="none" 
	d="
M159.700409,70.094437 
	C158.527802,67.946938 157.679138,65.684090 156.820786,63.395428 
	C158.524796,62.130573 160.413254,60.728809 162.232971,59.378075 
	C163.651718,60.495220 165.459412,61.918613 167.404236,63.449982 
	C166.804688,65.156349 166.035202,67.346405 165.384827,69.197456 
	C163.633255,69.452858 161.828796,69.715973 159.700409,70.094437 
z"/>
<path fill="#D6D6DF" opacity="1.000000" stroke="none" 
	d="
M19.519943,67.037811 
	C18.920046,68.171608 18.413858,69.415657 17.690666,69.558121 
	C16.054115,69.880516 14.310521,69.659531 12.787116,69.659531 
	C12.077435,67.591019 11.364244,65.512283 10.624846,63.357155 
	C12.277290,62.107822 14.200121,60.654064 15.867747,59.393250 
	C17.423326,60.582939 19.214773,61.953014 21.342770,63.580482 
	C20.936934,64.261635 20.226036,65.454796 19.519943,67.037811 
z"/>
<path fill="#D4D4DD" opacity="1.000000" stroke="none" 
	d="
M160.667007,10.153610 
	C161.333939,9.521099 162.168198,8.822051 162.283752,8.925537 
	C163.930328,10.400167 165.479691,11.983336 167.106674,13.593929 
	C166.527328,15.218919 165.747543,17.406078 165.054611,19.349617 
	C162.922089,19.349617 160.733932,19.349617 158.693039,19.349617 
	C157.945450,17.397270 157.115707,15.230405 156.345825,13.219864 
	C157.684296,12.330757 159.092209,11.395510 160.667007,10.153610 
z"/>
<path fill="#D8D7E0" opacity="1.000000" stroke="none" 
	d="
M64.689217,26.057913 
	C63.967865,28.352108 63.190971,30.293537 62.516518,31.978977 
	C60.555271,31.978977 58.270729,31.978977 55.877747,31.978977 
	C55.356827,30.196482 54.711960,27.989843 54.141918,26.039255 
	C55.777332,24.734148 57.528275,23.336845 59.166664,22.029364 
	C60.787258,23.118982 62.710468,24.412066 64.689217,26.057913 
z"/>
<path fill="#D8D7E0" opacity="1.000000" stroke="none" 
	d="
M146.825073,47.171730 
	C148.978867,48.280468 150.934921,49.672153 152.961090,51.113735 
	C152.289230,52.821331 151.420715,55.028736 150.622925,57.056389 
	C148.625717,57.056389 146.343353,57.056389 144.153259,57.056389 
	C143.605728,55.263268 142.915710,53.003532 142.322189,51.059826 
	C143.637512,49.958355 145.132416,48.706512 146.825073,47.171730 
z"/>
<path fill="#D2D2DC" opacity="1.000000" stroke="none" 
	d="
M49.083885,40.181038 
	C48.633369,41.947372 48.436905,43.478958 48.267365,44.800636 
	C45.999149,44.628258 43.732529,44.456001 41.613094,44.294930 
	C40.822666,42.354927 39.940022,40.188591 39.087521,38.096233 
	C40.849789,36.983265 42.861759,35.712593 44.522247,34.663902 
	C46.110588,35.506134 47.928226,36.308094 49.514702,37.435375 
	C49.870735,37.688358 49.418224,39.079250 49.083885,40.181038 
z"/>
<path fill="#D8D7E0" opacity="1.000000" stroke="none" 
	d="
M143.463989,102.792580 
	C142.639648,102.011597 142.054138,101.490593 141.494080,100.992256 
	C143.726013,99.504761 145.747101,98.157784 147.740463,96.829277 
	C149.286804,97.966141 151.225754,99.391640 152.911224,100.630783 
	C152.225006,102.476402 151.433792,104.604446 150.626938,106.774582 
	C148.770752,106.774582 146.331436,106.774582 143.702805,106.774582 
	C143.702805,105.839317 143.702805,104.445938 143.463989,102.792580 
z"/>
<path fill="#D4D4DD" opacity="1.000000" stroke="none" 
	d="
M39.648155,12.542913 
	C41.531315,11.453027 43.068649,10.526295 44.777058,9.496436 
	C46.196793,10.510443 48.146317,11.902834 50.163006,13.343195 
	C49.500702,14.975139 48.655987,17.056555 47.733334,19.330006 
	C45.933056,19.412580 43.506565,19.523880 41.255035,19.627153 
	C40.677170,17.578989 39.989754,15.142529 39.648155,12.542913 
z"/>
<path fill="#D6D6DE" opacity="1.000000" stroke="none" 
	d="
M74.497681,18.949434 
	C72.929466,19.205410 71.721733,19.584501 70.886002,19.846827 
	C70.077011,17.395767 69.353340,15.203218 68.678062,13.157260 
	C70.264091,12.113417 72.054642,10.934967 73.985374,9.664253 
	C75.562477,10.721296 77.472549,12.001510 79.225563,13.176452 
	C78.601425,15.312588 77.916542,17.656641 77.161240,20.241693 
	C76.529167,19.920830 75.693665,19.496689 74.497681,18.949434 
z"/>
<path fill="#D3D3DD" opacity="1.000000" stroke="none" 
	d="
M104.917603,110.357979 
	C106.452423,111.406464 107.815781,112.147018 109.085350,112.836632 
	C108.336937,114.883369 107.570488,116.979431 106.745224,119.236336 
	C104.940674,119.236336 102.532043,119.236336 100.261375,119.236336 
	C99.746712,117.462059 99.149925,115.404678 98.502472,113.172623 
	C99.975235,111.905159 101.776382,110.355080 103.712570,108.688789 
	C103.968872,109.026344 104.357513,109.538200 104.917603,110.357979 
z"/>
<path fill="#CFCFD9" opacity="1.000000" stroke="none" 
	d="
M165.867981,118.576538 
	C163.599258,119.125351 161.362152,119.291794 158.966217,119.470047 
	C158.304321,117.512726 157.562805,115.319901 156.809875,113.093361 
	C158.404739,111.881775 160.195023,110.521736 162.143600,109.041428 
	C163.557892,110.154686 165.493164,111.678055 167.465149,113.230301 
	C167.010239,114.672714 166.454941,116.433441 165.867981,118.576538 
z"/>
<path fill="#D4D4DD" opacity="1.000000" stroke="none" 
	d="
M74.909904,83.644600 
	C76.668472,85.255623 78.114166,86.738678 79.836861,88.505890 
	C79.350845,89.858055 78.529808,92.142326 77.783531,94.218597 
	C75.875427,94.218597 73.715576,94.218597 71.467484,94.218597 
	C70.868935,92.371140 70.148079,90.146187 69.427223,87.921227 
	C70.287224,88.825653 71.147217,89.730080 72.007217,90.634506 
	C72.870491,88.261879 73.733765,85.889252 74.909904,83.644600 
z"/>
<path fill="#D6D6DE" opacity="1.000000" stroke="none" 
	d="
M70.096344,42.214199 
	C69.513168,40.591049 68.832962,39.364346 68.286972,38.379700 
	C70.271675,37.099514 72.066963,35.941505 73.991791,34.699940 
	C75.579002,35.739632 77.487686,36.989910 79.364227,38.219124 
	C78.696625,40.256992 77.941612,42.561665 77.053558,45.272430 
	C74.942871,44.476002 72.471092,43.543324 70.096344,42.214199 
z"/>
<path fill="#D1D1DB" opacity="1.000000" stroke="none" 
	d="
M129.904053,87.028328 
	C131.188217,85.897751 132.113342,84.814613 132.997925,83.778938 
	C134.787445,85.231514 136.628204,86.725685 138.502228,88.246857 
	C137.888733,89.967606 137.161743,92.006744 136.363449,94.245857 
	C134.498779,94.245857 132.246918,94.245857 129.979980,94.245857 
	C129.367676,92.691605 128.500656,90.880188 128.011429,88.971909 
	C127.890915,88.501816 129.000793,87.716286 129.904053,87.028328 
z"/>
<path fill="#CECED9" opacity="1.000000" stroke="none" 
	d="
M18.039127,86.263184 
	C19.343573,86.877769 20.425303,87.204643 21.593052,87.557518 
	C20.838156,89.809746 20.112787,91.973869 19.337343,94.287399 
	C17.368176,94.287399 15.090348,94.287399 12.700357,94.287399 
	C12.135921,92.390533 11.465523,90.137558 10.837066,88.025543 
	C12.437679,86.823029 14.218479,85.485153 16.328255,83.900124 
	C16.581781,84.253685 17.199097,85.114578 18.039127,86.263184 
z"/>
<path fill="#D5D5DE" opacity="1.000000" stroke="none" 
	d="
M100.719147,11.973038 
	C101.692375,10.879623 102.332077,9.958699 102.846085,9.218720 
	C104.839973,10.659279 106.674065,11.984385 108.606697,13.380691 
	C107.933601,15.115574 107.098236,17.268703 106.292038,19.346664 
	C104.309296,19.346664 102.146957,19.346664 99.945358,19.346664 
	C99.318642,17.529795 98.574951,15.373804 97.694305,12.820792 
	C98.344315,12.657701 99.364960,12.401614 100.719147,11.973038 
z"/>
<path fill="#D3D2DC" opacity="1.000000" stroke="none" 
	d="
M93.407768,52.857170 
	C92.889595,54.550190 92.625458,55.956322 92.422035,57.039268 
	C90.113609,57.039268 87.934273,57.039268 85.641930,57.039268 
	C85.057579,55.304710 84.322540,53.122887 83.617798,51.030972 
	C85.342987,49.740849 87.274200,48.296650 88.822098,47.139107 
	C90.499435,48.150803 92.334732,49.142387 93.994164,50.371414 
	C94.273186,50.578056 93.791832,51.811348 93.407768,52.857170 
z"/>
<path fill="#D8D7E0" opacity="1.000000" stroke="none" 
	d="
M84.816116,28.347599 
	C84.108536,27.451790 83.577065,26.874006 83.046219,26.296900 
	C85.078285,24.722485 86.911972,23.301771 88.739502,21.885826 
	C90.231316,23.121592 91.960976,24.554379 93.766190,26.049751 
	C93.230637,27.680416 92.526077,29.825659 91.820084,31.975266 
	C89.862991,31.975266 87.445244,31.975266 84.734993,31.975266 
	C84.799561,31.144552 84.895897,29.905088 84.816116,28.347599 
z"/>
<path fill="#D9D8E1" opacity="1.000000" stroke="none" 
	d="
M133.687393,59.637726 
	C135.304367,61.058403 136.682816,62.210148 138.191742,63.470921 
	C137.610596,65.183357 136.856476,67.405449 136.163498,69.447395 
	C134.228058,69.447395 132.063995,69.447395 129.754898,69.447395 
	C129.183884,67.721542 128.476151,65.582413 127.717018,63.287991 
	C129.416245,62.126129 131.432556,60.747459 133.687393,59.637726 
z"/>
<path fill="#D7D7E0" opacity="1.000000" stroke="none" 
	d="
M116.115196,32.081863 
	C114.647118,30.208464 113.468460,28.142321 112.423767,26.311026 
	C114.397362,24.683535 116.170006,23.221752 117.849968,21.836401 
	C119.372955,23.082708 121.161530,24.546347 123.093422,26.127270 
	C122.515106,27.806326 121.770592,29.967890 121.108864,31.889120 
	C119.723358,31.889120 118.063988,31.889120 116.115196,32.081863 
z"/>
<path fill="#D1D1DB" opacity="1.000000" stroke="none" 
	d="
M69.045868,114.188583 
	C70.689949,112.262779 72.541328,110.606201 74.177322,109.142349 
	C75.982361,110.490761 77.691879,111.767822 79.512810,113.128098 
	C78.909401,114.949982 78.181557,117.147575 77.486282,119.246826 
	C75.393280,119.246826 73.101891,119.246826 71.129181,119.246826 
	C70.545502,117.756836 69.899323,116.107315 69.045868,114.188583 
z"/>
<path fill="#DADAE1" opacity="1.000000" stroke="none" 
	d="
M27.501614,24.689404 
	C28.438671,23.544554 29.064857,22.573778 29.694715,21.597307 
	C31.579264,23.134604 33.420547,24.636608 35.183018,26.074322 
	C34.588226,27.926867 33.924725,29.993420 33.332264,31.838705 
	C31.319818,31.838705 29.072649,31.838705 26.674694,31.838705 
	C26.187616,30.193726 25.543110,28.017078 24.806705,25.530058 
	C25.390146,25.366926 26.290443,25.115200 27.501614,24.689404 
z"/>
<path fill="#DBDBE2" opacity="1.000000" stroke="none" 
	d="
M34.137539,107.041039 
	C31.713678,106.984032 29.477001,106.690315 26.960102,106.359795 
	C26.485460,104.901222 25.742012,102.616608 25.120773,100.707550 
	C26.732092,99.523720 28.554592,98.184738 30.463272,96.782448 
	C31.909792,97.906059 33.824993,99.393738 35.231712,100.486435 
	C34.923279,102.634895 34.624001,104.719612 34.137539,107.041039 
z"/>
<path fill="#DBDBE2" opacity="1.000000" stroke="none" 
	d="
M61.659824,106.919235 
	C59.593372,106.754272 57.811787,106.754272 56.242580,106.754272 
	C55.787853,105.025688 55.209976,102.828964 54.592236,100.480705 
	C55.988205,99.530861 57.865669,98.253387 59.812023,96.929047 
	C61.271076,98.014839 63.066853,99.351219 64.706017,100.571045 
	C64.361969,102.396370 63.999527,104.571312 63.481827,106.708649 
	C63.424793,106.944115 62.478531,106.964211 61.659824,106.919235 
z"/>
<path fill="#DDDDE4" opacity="1.000000" stroke="none" 
	d="
M40.957458,65.761383 
	C40.332653,64.755280 39.887226,64.091393 39.479408,63.483551 
	C41.413315,62.215736 43.176903,61.059578 45.104214,59.796085 
	C46.627590,60.821823 48.535309,62.106346 50.406204,63.366077 
	C49.682480,65.343796 48.892467,67.502655 47.999260,69.943512 
	C46.821651,66.842033 41.098301,72.153046 40.957458,65.761383 
z"/>
<path fill="#D7D7E0" opacity="1.000000" stroke="none" 
	d="
M142.148468,27.288322 
	C143.494064,25.232571 145.176666,23.367340 146.582321,21.809109 
	C148.586304,23.335119 150.303772,24.642944 152.178635,26.070631 
	C151.695068,27.707521 151.055573,29.872240 150.461609,31.882820 
	C148.346725,31.882820 145.971573,31.882820 143.667877,31.882820 
	C143.350708,30.701481 142.918076,29.090164 142.148468,27.288322 
z"/>
<path fill="#DDDDE4" opacity="1.000000" stroke="none" 
	d="
M34.176056,82.102829 
	C31.777197,82.017334 29.567623,81.701363 27.024809,81.337738 
	C26.642878,80.095184 25.985481,77.956444 25.300114,75.726707 
	C26.759478,74.629944 28.648611,73.210197 30.454992,71.852646 
	C31.958376,73.006676 33.788437,74.411469 35.472462,75.704170 
	C35.144855,77.529373 34.755096,79.700851 34.176056,82.102829 
z"/>
<path fill="#DADAE1" opacity="1.000000" stroke="none" 
	d="
M88.400398,96.561897 
	C90.513115,97.817810 92.378052,99.333717 94.295578,100.892372 
	C93.674606,102.460815 92.873055,104.485374 92.066681,106.522095 
	C90.189072,106.522095 88.022781,106.522095 85.802971,106.522095 
	C85.135399,104.790497 84.356209,102.769348 83.615028,100.846825 
	C84.997421,99.620613 86.575020,98.221252 88.400398,96.561897 
z"/>
<path fill="#DDDDE4" opacity="1.000000" stroke="none" 
	d="
M152.626755,76.935394 
	C151.842300,78.727867 151.333359,80.326447 150.898911,81.691071 
	C148.762894,81.691071 146.356827,81.691071 144.207123,81.691071 
	C143.737839,79.923500 143.149948,77.709229 142.648102,75.819000 
	C144.278381,74.492401 146.076813,73.028976 147.831848,71.600868 
	C149.384506,73.175026 151.143387,74.958260 152.626755,76.935394 
z"/>
<path fill="#D8D8E0" opacity="1.000000" stroke="none" 
	d="
M119.705643,81.566727 
	C117.850639,81.697357 116.330116,82.012115 114.920952,82.303825 
	C114.408882,80.234619 113.876518,78.083389 113.268303,75.625671 
	C114.529602,74.718903 116.327415,73.426430 118.334763,71.983330 
	C119.834297,73.079208 121.778366,74.499962 123.611298,75.839493 
	C123.145622,77.309792 122.646400,79.218933 121.892517,81.021576 
	C121.714073,81.448273 120.680389,81.517303 119.705643,81.566727 
z"/>
<path fill="#D6D6DF" opacity="1.000000" stroke="none" 
	d="
M107.119209,93.085114 
	C104.947960,93.695450 102.826309,93.920929 100.653000,94.151909 
	C99.922256,92.021690 99.261574,90.095711 98.580757,88.111023 
	C100.251328,86.941490 102.076424,85.663780 103.892563,84.392342 
	C105.554825,85.507690 107.343307,86.707733 109.384941,88.077644 
	C108.773941,89.352127 107.971375,91.026199 107.119209,93.085114 
z"/>
<path fill="#D8D7E0" opacity="1.000000" stroke="none" 
	d="
M44.936951,109.186745 
	C46.978745,110.591820 48.650864,111.934525 50.243263,113.213219 
	C49.343094,115.054359 48.355480,117.074356 47.225571,119.385391 
	C45.853683,119.385391 43.850281,119.385391 41.748840,119.385391 
	C41.186176,117.476013 40.538681,115.278770 39.932907,113.223106 
	C41.395836,111.929260 42.981560,110.526817 44.936951,109.186745 
z"/>
<path fill="#DADAE1" opacity="1.000000" stroke="none" 
	d="
M86.794189,81.936172 
	C85.502373,80.002312 84.590034,77.963516 83.689911,75.952026 
	C85.439552,74.598259 87.320580,73.142830 89.068451,71.790428 
	C90.537270,72.981956 92.288918,74.402924 94.227516,75.975548 
	C93.645966,77.523529 92.853943,79.631783 92.128761,81.562088 
	C90.519196,81.649513 88.846436,81.740372 86.794189,81.936172 
z"/>
<path fill="#DADAE1" opacity="1.000000" stroke="none" 
	d="
M65.258575,76.457520 
	C64.328407,78.465942 63.586548,80.197021 62.861423,81.889053 
	C61.032280,81.774223 58.762398,81.631729 56.615654,81.496964 
	C56.003899,79.799217 55.273960,77.773506 54.574841,75.833298 
	C56.190342,74.627319 57.999107,73.277069 59.810158,71.925117 
	C61.508858,73.207436 63.477867,74.693802 65.258575,76.457520 
z"/>
</svg>