<svg width="16" height="16" viewBox="0 0 16 16" fill="none" xmlns="http://www.w3.org/2000/svg">
<circle cx="8" cy="8" r="7.5" fill="#2196F3" fill-opacity="0.06" stroke="#2196F3"/>
<g clip-path="url(#clip0_323_836)">
<path d="M7.99998 4.79999C7.62355 4.79999 7.26253 4.95343 6.99635 5.22655C6.73017 5.49967 6.58063 5.87011 6.58063 6.25636C6.58063 6.64262 6.73017 7.01306 6.99635 7.28618C7.26253 7.5593 7.62355 7.71274 7.99998 7.71274C8.37642 7.71274 8.73744 7.5593 9.00362 7.28618C9.2698 7.01306 9.41934 6.64262 9.41934 6.25636C9.41934 5.87011 9.2698 5.49967 9.00362 5.22655C8.73744 4.95343 8.37642 4.79999 7.99998 4.79999ZM6.486 8.48948C6.10957 8.48948 5.74855 8.64292 5.48237 8.91604C5.21619 9.18916 5.06665 9.5596 5.06665 9.94585V10.4072C5.06665 10.7001 5.27331 10.9494 5.55491 10.9964C7.17411 11.2679 8.82586 11.2679 10.4451 10.9964C10.5813 10.9736 10.7053 10.9018 10.7947 10.7939C10.8842 10.686 10.9333 10.5489 10.9333 10.4072V9.94585C10.9333 9.5596 10.7838 9.18916 10.5176 8.91604C10.2514 8.64292 9.8904 8.48948 9.51396 8.48948H9.38527C9.31525 8.48948 9.24561 8.50113 9.17937 8.52288L8.8516 8.63278C8.29822 8.81813 7.70175 8.81813 7.14837 8.63278L6.82059 8.52288C6.75423 8.50071 6.68487 8.48944 6.61507 8.48948H6.486Z" fill="#2196F3"/>
</g>
<defs>
<clipPath id="clip0_323_836">
<rect width="6.4" height="6.4" fill="white" transform="translate(4.80005 4.79999)"/>
</clipPath>
</defs>
</svg>
